{"glyphs":{"0":{"ha":772,"x_min":98,"x_max":785,"o":"m 98 326 q 136 583 98 452 q 220 791 174 713 q 315 913 266 869 q 413 978 365 957 q 519 998 460 998 q 709 913 633 998 q 785 669 785 829 q 732 342 785 504 q 559 56 670 151 q 364 -17 473 -17 q 175 71 252 -17 q 98 326 98 159 m 217 295 q 248 152 217 203 q 370 81 289 81 q 500 145 441 81 q 626 411 584 236 q 669 698 669 587 q 628 852 669 805 q 519 900 587 900 q 428 875 471 900 q 347 789 386 850 q 252 531 292 703 q 217 295 217 385 z "},"1":{"ha":772,"x_min":205,"x_max":666,"o":"m 334 0 l 492 751 q 205 623 390 671 l 229 734 q 409 829 320 770 q 543 932 498 888 q 595 998 570 960 l 666 998 l 458 0 l 334 0 z "},"2":{"ha":772,"x_min":81,"x_max":781,"o":"m 81 0 q 134 149 100 89 q 223 263 168 209 q 437 444 279 317 q 569 557 534 520 q 643 661 620 610 q 659 736 659 695 q 610 852 659 804 q 491 900 562 900 q 369 851 421 900 q 294 696 317 803 l 174 713 q 277 922 192 846 q 489 998 362 998 q 643 963 574 998 q 746 864 711 928 q 781 732 781 800 q 710 542 781 633 q 455 317 667 485 q 320 199 364 245 q 253 113 275 153 l 698 113 l 674 0 l 81 0 z "},"3":{"ha":772,"x_min":76,"x_max":774,"o":"m 76 260 l 195 275 q 255 126 209 171 q 377 81 302 81 q 534 146 468 81 q 600 295 600 211 q 551 416 600 368 q 418 464 501 464 q 378 461 408 464 l 399 564 q 433 561 417 561 q 595 612 538 561 q 652 738 652 663 q 605 853 652 806 q 492 900 559 900 q 373 852 426 900 q 306 717 321 804 l 185 741 q 300 931 215 864 q 500 998 385 998 q 698 924 623 998 q 774 743 774 850 q 733 605 774 664 q 610 508 692 547 q 697 425 668 473 q 726 313 726 376 q 626 81 726 179 q 387 -17 526 -17 q 169 59 252 -17 q 76 260 85 134 z "},"4":{"ha":772,"x_min":63,"x_max":753,"o":"m 415 0 l 469 254 l 63 254 l 89 375 l 646 994 l 746 994 l 614 362 l 753 362 l 731 254 l 591 254 l 538 0 l 415 0 m 491 362 l 578 777 l 208 362 l 491 362 z "},"5":{"ha":772,"x_min":96,"x_max":795,"o":"m 97 284 l 222 296 q 220 264 220 270 q 243 174 220 220 q 305 105 266 129 q 387 81 344 81 q 503 120 444 81 q 599 235 562 159 q 635 384 635 310 q 586 517 635 467 q 457 568 537 568 q 356 542 404 568 q 267 465 308 516 l 159 472 l 309 981 l 795 981 l 771 868 l 393 868 l 319 615 q 405 661 361 646 q 496 676 450 676 q 684 601 610 676 q 757 395 757 526 q 707 183 757 280 q 569 35 656 87 q 379 -17 481 -17 q 228 22 294 -17 q 129 128 162 60 q 96 264 96 196 q 97 284 96 271 z "},"6":{"ha":772,"x_min":116,"x_max":789,"o":"m 279 576 q 382 641 331 619 q 484 662 433 662 q 671 585 597 662 q 745 376 745 507 q 635 87 745 208 q 404 -17 540 -17 q 198 74 281 -17 q 116 332 116 164 q 169 642 116 481 q 270 844 210 764 q 397 961 330 924 q 549 998 465 998 q 715 935 651 998 q 789 753 780 871 l 675 743 q 629 859 665 823 q 541 895 593 895 q 430 852 486 895 q 334 726 374 810 q 279 576 294 642 m 237 279 q 289 138 237 195 q 407 81 341 81 q 505 116 453 81 q 592 222 556 151 q 628 363 628 293 q 578 509 628 454 q 458 564 528 564 q 307 484 376 564 q 237 279 237 404 z "},"7":{"ha":772,"x_min":168,"x_max":827,"o":"m 201 0 q 271 241 218 100 q 436 579 334 412 q 664 868 538 747 l 168 868 l 192 981 l 827 981 l 804 868 q 522 503 642 726 q 330 0 381 244 l 201 0 z "},"8":{"ha":772,"x_min":104,"x_max":784,"o":"m 313 547 q 230 625 258 577 q 202 728 202 673 q 267 895 202 818 q 503 998 354 998 q 709 928 633 998 q 784 756 784 858 q 743 625 784 684 q 616 532 703 567 q 701 453 675 495 q 734 325 734 398 q 640 87 734 191 q 388 -18 545 -18 q 183 60 262 -18 q 104 253 104 137 q 160 440 104 362 q 313 547 216 519 m 323 722 q 364 620 323 659 q 477 581 405 581 q 613 632 561 581 q 666 758 666 683 q 625 860 666 821 q 512 900 584 900 q 412 875 458 900 q 345 807 367 850 q 323 722 323 764 m 227 243 q 247 163 227 201 q 308 103 267 125 q 401 81 349 81 q 562 174 500 81 q 611 332 611 248 q 566 446 611 401 q 448 490 521 490 q 291 421 355 490 q 227 243 227 353 z "},"9":{"ha":772,"x_min":94,"x_max":766,"o":"m 94 228 l 209 239 q 256 121 220 156 q 342 85 292 85 q 473 146 412 85 q 604 404 562 236 q 494 338 542 357 q 396 318 446 318 q 233 379 305 318 q 138 607 138 458 q 248 895 138 775 q 479 998 342 998 q 684 907 603 998 q 766 649 766 816 q 711 329 766 487 q 537 55 647 143 q 336 -17 448 -17 q 167 47 233 -17 q 94 228 102 111 m 257 621 q 307 472 257 528 q 425 416 357 416 q 526 451 476 416 q 612 554 576 486 q 648 696 648 623 q 625 802 648 753 q 560 875 601 850 q 477 900 519 900 q 397 878 436 900 q 324 814 357 857 q 274 718 290 772 q 257 621 257 663 z "}," ":{"ha":386,"x_min":0,"x_max":0,"o":""},"!":{"ha":386,"x_min":78,"x_max":422,"o":"m 155 251 l 231 791 l 273 994 l 422 994 l 376 774 l 232 251 l 155 251 m 78 0 l 107 139 l 245 139 l 216 0 l 78 0 z "},"\"":{"ha":493,"x_min":188,"x_max":595,"o":"m 188 642 l 196 828 l 231 994 l 371 994 l 335 828 l 264 642 l 188 642 m 412 642 l 420 828 l 456 994 l 595 994 l 559 828 l 488 642 l 412 642 z "},"#":{"ha":772,"x_min":64,"x_max":805,"o":"m 120 -17 l 179 272 l 64 272 l 64 373 l 199 373 l 250 619 l 64 619 l 64 720 l 270 720 l 329 1011 l 431 1011 l 372 720 l 585 720 l 644 1011 l 747 1011 l 688 720 l 805 720 l 805 619 l 667 619 l 616 373 l 805 373 l 805 272 l 596 272 l 537 -17 l 435 -17 l 494 272 l 281 272 l 222 -17 l 120 -17 m 301 373 l 514 373 l 565 619 l 351 619 l 301 373 z "},"$":{"ha":772,"x_min":71,"x_max":795,"o":"m 308 -9 q 143 92 209 12 q 71 288 77 172 l 195 295 q 237 163 201 214 q 329 92 273 112 l 408 467 q 292 531 328 502 q 215 625 241 571 q 189 736 189 680 q 276 926 189 844 q 493 1008 363 1008 q 520 1008 497 1008 l 531 1061 l 599 1061 l 586 999 q 731 915 678 976 q 795 754 784 854 l 678 748 q 642 844 669 808 q 565 898 616 880 l 494 557 q 682 434 631 500 q 733 286 733 368 q 687 132 733 209 q 566 18 642 54 q 393 -18 491 -18 q 374 -17 386 -18 l 349 -133 l 282 -133 l 308 -9 m 431 584 l 500 909 q 403 891 448 911 q 334 831 358 870 q 309 745 309 791 q 335 656 309 693 q 431 584 360 618 m 469 441 l 394 81 q 548 135 486 77 q 610 273 610 193 q 582 365 610 326 q 469 441 553 404 z "},"%":{"ha":1235,"x_min":135,"x_max":1184,"o":"m 194 -37 l 1015 1011 l 1126 1011 l 309 -37 l 194 -37 m 135 688 q 148 774 135 716 q 184 877 160 831 q 239 949 209 922 q 304 989 269 977 q 384 1002 339 1002 q 529 954 479 1002 q 578 812 578 905 q 545 647 578 734 q 455 520 512 560 q 317 479 397 479 q 182 530 229 479 q 135 688 135 581 m 239 666 q 261 585 239 609 q 318 562 282 562 q 396 594 361 562 q 451 701 431 627 q 471 826 471 774 q 448 896 471 871 q 387 920 425 920 q 315 889 348 920 q 260 789 281 857 q 239 666 239 720 m 741 172 q 754 258 741 200 q 791 361 766 315 q 845 433 815 406 q 910 473 875 460 q 990 486 945 486 q 1135 438 1086 486 q 1184 296 1184 389 q 1151 131 1184 218 q 1061 4 1118 44 q 924 -37 1004 -37 q 788 14 835 -37 q 741 172 741 64 m 846 149 q 867 69 846 93 q 924 45 888 45 q 1002 78 967 45 q 1057 183 1036 111 q 1077 309 1077 256 q 1054 380 1077 355 q 994 404 1031 404 q 921 373 954 404 q 867 273 888 341 q 846 149 846 204 z "},"&":{"ha":926,"x_min":109,"x_max":905,"o":"m 689 97 q 544 3 604 28 q 410 -22 484 -22 q 192 58 275 -22 q 109 258 109 138 q 140 397 109 337 q 232 507 171 458 q 370 585 279 543 q 328 689 335 663 q 318 770 318 727 q 350 886 318 827 q 440 978 382 945 q 567 1011 498 1011 q 721 956 663 1011 q 780 821 780 900 q 730 687 780 753 q 532 547 680 621 q 703 283 621 387 q 798 425 753 344 l 905 370 q 781 186 860 276 q 895 50 825 130 l 803 -24 q 689 97 734 35 m 488 639 q 630 743 587 690 q 660 818 660 780 q 632 885 660 858 q 566 913 605 913 q 482 874 518 913 q 446 783 446 836 q 488 639 446 719 m 618 191 q 420 489 491 357 q 289 405 328 446 q 234 273 234 348 q 287 142 234 195 q 415 89 339 89 q 618 191 517 89 z "},"'":{"ha":265,"x_min":176,"x_max":359,"o":"m 176 642 l 184 828 l 220 994 l 359 994 l 323 828 l 252 642 l 176 642 z "},"(":{"ha":463,"x_min":117,"x_max":574,"o":"m 224 -292 q 117 187 117 -59 q 160 493 117 351 q 292 772 203 634 q 478 1011 350 865 l 574 1011 q 406 772 494 926 q 277 470 317 618 q 237 172 237 321 q 315 -292 237 -52 l 224 -292 z "},")":{"ha":463,"x_min":-74,"x_max":382,"o":"m 275 1011 q 382 532 382 778 q 339 227 382 368 q 208 -54 296 85 q 22 -292 149 -146 l -74 -292 q 94 -53 5 -207 q 222 249 182 101 q 262 548 262 397 q 184 1011 262 772 l 275 1011 z "},"*":{"ha":541,"x_min":160,"x_max":608,"o":"m 160 812 l 191 908 q 348 842 299 870 q 334 1011 335 965 l 433 1011 q 417 843 431 944 q 577 908 487 878 l 608 812 q 439 774 522 783 q 556 646 481 738 l 475 588 q 382 734 435 642 q 294 588 332 638 l 214 646 q 326 774 292 743 q 160 812 239 791 z "},"+":{"ha":811,"x_min":125,"x_max":781,"o":"m 395 161 l 395 433 l 125 433 l 125 547 l 395 547 l 395 818 l 511 818 l 511 547 l 781 547 l 781 433 l 511 433 l 511 161 l 395 161 z "},",":{"ha":386,"x_min":33,"x_max":244,"o":"m 75 0 l 104 139 l 244 139 l 219 18 q 148 -142 196 -92 q 33 -201 99 -193 l 45 -147 q 151 0 125 -125 l 75 0 z "},"-":{"ha":463,"x_min":64,"x_max":465,"o":"m 64 298 l 90 421 l 465 421 l 439 298 l 64 298 z "},".":{"ha":386,"x_min":80,"x_max":248,"o":"m 80 0 l 109 139 l 248 139 l 218 0 l 80 0 z "},"/":{"ha":386,"x_min":-71,"x_max":570,"o":"m -71 -16 l 464 1011 l 570 1011 l 36 -16 l -71 -16 z "},":":{"ha":386,"x_min":79,"x_max":368,"o":"m 201 581 l 230 720 l 368 720 l 340 581 l 201 581 m 79 0 l 109 139 l 248 139 l 218 0 l 79 0 z "},";":{"ha":386,"x_min":33,"x_max":364,"o":"m 197 581 l 226 720 l 364 720 l 335 581 l 197 581 m 75 0 l 104 139 l 244 139 l 219 18 q 148 -142 196 -92 q 33 -201 99 -193 l 45 -147 q 151 0 125 -125 l 75 0 z "},"<":{"ha":811,"x_min":125,"x_max":783,"o":"m 125 435 l 125 549 l 783 827 l 783 705 l 261 491 l 783 275 l 783 153 l 125 435 z "},"=":{"ha":811,"x_min":125,"x_max":781,"o":"m 781 585 l 125 585 l 125 699 l 781 699 l 781 585 m 781 283 l 125 283 l 125 397 l 781 397 l 781 283 z "},">":{"ha":811,"x_min":125,"x_max":783,"o":"m 783 435 l 125 153 l 125 275 l 646 491 l 125 705 l 125 827 l 783 549 l 783 435 z "},"?":{"ha":772,"x_min":176,"x_max":779,"o":"m 291 249 q 319 358 298 311 q 384 456 340 406 q 505 563 410 485 q 629 688 601 640 q 657 777 657 736 q 612 872 657 831 q 496 913 567 913 q 367 864 418 913 q 299 702 316 816 l 176 722 q 289 939 205 867 q 492 1011 373 1011 q 642 978 574 1011 q 744 887 709 945 q 779 768 779 829 q 728 624 779 692 q 561 469 691 572 q 445 356 472 397 q 407 249 418 315 l 291 249 m 231 0 l 260 139 l 399 139 l 370 0 l 231 0 z "},"@":{"ha":1410,"x_min":75,"x_max":1360,"o":"m 787 111 q 689 29 743 60 q 579 -2 634 -2 q 462 33 519 -2 q 369 142 405 68 q 334 302 334 215 q 389 518 334 410 q 526 681 444 627 q 686 735 608 735 q 798 704 745 735 q 890 610 852 673 l 913 715 l 1035 715 l 937 260 q 917 155 917 165 q 931 124 917 137 q 964 111 945 111 q 1059 152 1000 111 q 1181 297 1136 206 q 1226 486 1226 389 q 1168 697 1226 599 q 995 854 1110 795 q 741 913 880 913 q 451 839 583 913 q 248 626 320 765 q 176 329 176 488 q 248 43 176 163 q 457 -135 320 -77 q 760 -192 593 -192 q 1057 -132 937 -192 q 1237 13 1177 -73 l 1360 13 q 1241 -132 1325 -58 q 1041 -249 1157 -206 q 762 -292 925 -292 q 484 -254 611 -292 q 267 -137 357 -215 q 132 41 178 -60 q 75 318 75 170 q 143 633 75 484 q 378 915 226 817 q 747 1013 530 1013 q 1049 944 916 1013 q 1261 739 1183 875 q 1326 484 1326 621 q 1188 134 1326 287 q 918 -3 1065 -3 q 843 12 871 -3 q 800 52 814 26 q 787 111 791 69 m 459 294 q 503 150 459 201 q 604 98 547 98 q 684 121 642 98 q 765 189 726 144 q 827 302 803 233 q 852 440 852 371 q 806 583 852 532 q 694 634 760 634 q 613 612 651 634 q 538 541 574 590 q 481 422 503 492 q 459 294 459 353 z "},"A":{"ha":926,"x_min":-28,"x_max":857,"o":"m -28 0 l 536 994 l 692 994 l 857 0 l 728 0 l 680 286 l 277 286 l 118 0 l -28 0 m 334 389 l 663 389 l 625 638 q 597 886 602 787 q 498 683 563 800 l 334 389 z "},"B":{"ha":926,"x_min":60,"x_max":909,"o":"m 60 0 l 269 994 l 576 994 q 701 987 661 994 q 813 947 768 976 q 884 868 859 918 q 909 758 909 819 q 864 614 909 676 q 726 519 819 551 q 847 439 807 492 q 887 315 887 386 q 840 157 887 233 q 715 41 793 82 q 542 0 637 0 l 60 0 m 313 570 l 514 570 q 722 616 659 570 q 785 750 785 662 q 766 823 785 792 q 713 867 746 853 q 589 881 680 881 l 378 881 l 313 570 m 217 113 l 444 113 q 565 119 534 113 q 667 156 628 130 q 729 224 707 182 q 751 314 751 267 q 708 420 751 384 q 541 456 664 456 l 289 456 l 217 113 z "},"C":{"ha":1003,"x_min":126,"x_max":1015,"o":"m 838 350 l 969 332 q 787 71 907 159 q 519 -17 668 -17 q 232 94 338 -17 q 126 410 126 204 q 288 854 126 679 q 645 1011 431 1011 q 901 926 803 1011 q 1015 699 999 842 l 890 687 q 809 848 871 795 q 651 901 748 901 q 356 739 469 901 q 258 408 258 600 q 334 174 258 254 q 530 93 409 93 q 716 160 633 93 q 838 350 800 227 z "},"D":{"ha":1003,"x_min":62,"x_max":989,"o":"m 62 0 l 269 994 l 569 994 q 734 979 677 994 q 873 904 815 958 q 960 769 930 850 q 989 588 989 688 q 952 369 989 468 q 858 196 916 271 q 735 78 799 121 q 583 16 671 36 q 420 0 517 0 l 62 0 m 218 113 l 376 113 q 565 132 482 113 q 653 168 616 144 q 741 249 701 199 q 823 400 792 315 q 854 594 854 486 q 812 780 854 715 q 705 865 770 844 q 555 881 656 881 l 379 881 l 218 113 z "},"E":{"ha":926,"x_min":62,"x_max":988,"o":"m 62 0 l 271 994 l 988 994 l 964 881 l 380 881 l 315 572 l 884 572 l 861 458 l 291 458 l 219 113 l 845 113 l 821 0 l 62 0 z "},"F":{"ha":848,"x_min":63,"x_max":917,"o":"m 63 0 l 271 994 l 917 994 l 893 881 l 380 881 l 314 564 l 837 564 l 813 451 l 290 451 l 196 0 l 63 0 z "},"G":{"ha":1080,"x_min":135,"x_max":1064,"o":"m 569 392 l 593 505 l 1028 505 l 943 100 q 756 16 861 48 q 549 -17 651 -17 q 225 114 332 -17 q 135 398 135 224 q 214 724 135 577 q 413 941 293 871 q 681 1011 534 1011 q 871 973 787 1011 q 1000 870 955 935 q 1064 703 1044 806 l 934 689 q 847 846 913 791 q 677 901 781 901 q 475 842 569 901 q 326 665 382 783 q 270 396 270 547 q 344 170 270 246 q 548 93 418 93 q 827 178 677 93 l 871 392 l 569 392 z "},"H":{"ha":1003,"x_min":58,"x_max":1047,"o":"m 58 0 l 267 994 l 399 994 l 313 581 l 828 581 l 914 994 l 1047 994 l 840 0 l 707 0 l 804 469 l 290 469 l 191 0 l 58 0 z "},"I":{"ha":386,"x_min":79,"x_max":420,"o":"m 79 0 l 288 994 l 420 994 l 212 0 l 79 0 z "},"J":{"ha":694,"x_min":46,"x_max":744,"o":"m 56 290 l 180 298 q 169 214 169 241 q 203 126 169 159 q 298 93 237 93 q 376 113 342 93 q 431 175 410 133 q 464 290 447 207 l 612 994 l 744 994 l 593 268 q 486 49 561 115 q 296 -17 412 -17 q 109 40 172 -17 q 46 200 46 97 q 56 290 46 245 z "},"K":{"ha":926,"x_min":62,"x_max":1029,"o":"m 62 0 l 269 994 l 402 994 l 302 515 l 842 994 l 1029 994 l 568 589 l 906 0 l 758 0 l 471 504 l 262 323 l 195 0 l 62 0 z "},"L":{"ha":772,"x_min":56,"x_max":728,"o":"m 56 0 l 263 994 l 396 994 l 212 113 l 728 113 l 705 0 l 56 0 z "},"M":{"ha":1157,"x_min":61,"x_max":1211,"o":"m 61 0 l 269 994 l 432 994 l 532 350 q 558 106 552 223 q 696 378 600 207 l 1045 994 l 1211 994 l 1004 0 l 873 0 l 977 484 q 1080 859 1013 651 q 974 650 1037 762 l 604 0 l 475 0 l 376 637 q 356 842 362 725 q 323 634 339 711 l 191 0 l 61 0 z "},"N":{"ha":1003,"x_min":68,"x_max":1051,"o":"m 68 0 l 276 994 l 405 994 l 572 621 q 694 334 649 450 q 753 151 720 266 q 800 410 772 276 l 922 994 l 1051 994 l 844 0 l 712 0 l 465 574 q 363 842 399 726 q 323 604 353 745 l 197 0 l 68 0 z "},"O":{"ha":1080,"x_min":127,"x_max":1073,"o":"m 127 416 q 280 847 127 682 q 653 1011 434 1011 q 956 890 839 1011 q 1073 566 1073 769 q 1014 296 1073 420 q 903 136 970 203 q 759 32 836 68 q 543 -17 657 -17 q 326 40 424 -17 q 177 199 228 97 q 127 416 127 301 m 258 410 q 294 249 258 322 q 402 134 330 176 q 553 93 474 93 q 699 129 630 93 q 823 230 768 165 q 909 390 878 295 q 941 576 941 484 q 858 812 941 724 q 652 901 774 901 q 377 767 496 901 q 258 410 258 634 z "},"P":{"ha":926,"x_min":60,"x_max":969,"o":"m 60 0 l 268 994 l 683 994 q 845 969 791 994 q 934 885 899 945 q 969 750 969 825 q 944 625 969 688 q 881 519 919 561 q 803 457 842 478 q 719 426 764 436 q 526 404 623 404 l 277 404 l 193 0 l 60 0 m 300 516 l 519 516 q 707 544 647 516 q 802 627 766 571 q 838 747 838 684 q 819 826 838 795 q 766 872 800 857 q 633 886 731 886 l 378 886 l 300 516 z "},"Q":{"ha":1080,"x_min":128,"x_max":1074,"o":"m 840 80 q 975 -35 890 20 l 916 -114 q 754 29 826 -55 q 562 -18 653 -18 q 401 9 488 -18 q 254 94 313 37 q 162 238 195 150 q 128 434 128 327 q 178 682 128 564 q 285 851 219 780 q 430 960 351 922 q 654 1011 534 1011 q 957 890 840 1011 q 1074 566 1074 769 q 1012 289 1074 416 q 840 80 949 163 m 758 165 q 891 341 840 229 q 942 573 942 452 q 859 812 942 724 q 656 901 777 901 q 463 842 556 901 q 315 670 370 783 q 259 423 259 557 q 363 164 259 256 q 538 93 445 93 q 671 116 612 93 q 544 206 609 172 l 592 289 q 672 244 636 270 q 758 165 707 218 z "},"R":{"ha":1003,"x_min":65,"x_max":1014,"o":"m 65 0 l 273 994 l 690 994 q 878 974 814 994 q 978 896 941 953 q 1014 752 1014 839 q 935 551 1014 631 q 678 447 855 471 q 760 368 732 407 q 861 187 823 281 l 937 0 l 788 0 l 717 185 q 629 359 678 286 q 559 426 595 410 q 445 441 524 441 l 290 441 l 198 0 l 65 0 m 313 549 l 496 549 q 663 553 624 549 q 786 587 738 560 q 861 658 834 613 q 887 754 887 703 q 867 830 887 798 q 816 873 848 862 q 707 885 784 885 l 383 885 l 313 549 z "},"S":{"ha":926,"x_min":98,"x_max":932,"o":"m 98 321 l 228 334 l 227 299 q 253 194 227 241 q 340 120 279 146 q 486 94 401 94 q 668 146 605 94 q 730 265 730 198 q 697 351 730 312 q 512 454 663 389 q 352 532 395 505 q 253 628 285 576 q 221 746 221 680 q 263 884 221 823 q 386 979 305 946 q 569 1011 467 1011 q 774 970 690 1011 q 895 862 857 930 q 932 732 932 794 q 932 712 932 726 l 804 702 q 796 768 804 744 q 754 838 783 809 q 676 883 726 866 q 564 901 626 901 q 395 852 456 901 q 349 753 349 814 q 368 687 349 716 q 437 631 387 659 q 604 553 472 611 q 752 478 711 505 q 836 391 806 442 q 865 275 865 340 q 815 126 865 194 q 680 20 766 58 q 481 -17 593 -17 q 205 57 312 -17 q 98 321 98 130 z "},"T":{"ha":848,"x_min":173,"x_max":979,"o":"m 315 0 l 499 881 l 173 881 l 197 994 l 979 994 l 956 881 l 632 881 l 448 0 l 315 0 z "},"U":{"ha":1003,"x_min":134,"x_max":1048,"o":"m 275 994 l 408 994 l 281 383 q 265 271 265 307 q 328 142 265 191 q 487 93 391 93 q 628 128 563 93 q 732 231 694 163 q 800 447 770 298 l 915 994 l 1048 994 l 926 411 q 844 175 895 262 q 703 35 793 87 q 494 -18 613 -18 q 299 20 381 -18 q 175 123 216 57 q 134 272 134 189 q 162 452 134 324 l 275 994 z "},"V":{"ha":926,"x_min":172,"x_max":1051,"o":"m 363 0 l 172 994 l 300 994 l 416 401 q 457 141 448 240 q 559 343 519 269 l 914 994 l 1051 994 l 506 0 l 363 0 z "},"W":{"ha":1311,"x_min":174,"x_max":1474,"o":"m 235 0 l 174 994 l 309 994 l 332 503 q 338 311 334 467 q 340 250 340 268 q 339 183 340 239 q 458 422 422 353 l 761 994 l 898 994 l 931 413 q 939 173 937 313 q 982 276 951 208 q 1055 434 1031 387 l 1339 994 l 1474 994 l 968 0 l 826 0 l 793 602 q 785 792 788 680 q 716 646 744 698 l 372 0 l 235 0 z "},"X":{"ha":926,"x_min":-44,"x_max":1068,"o":"m -44 0 l 431 503 l 149 994 l 296 994 l 424 769 q 482 665 475 680 q 521 586 500 632 q 676 764 571 654 l 895 994 l 1068 994 l 587 481 l 860 0 l 715 0 l 554 291 q 499 401 530 334 q 410 296 463 351 l 132 0 l -44 0 z "},"Y":{"ha":926,"x_min":162,"x_max":1074,"o":"m 388 0 l 468 385 l 162 994 l 304 994 l 451 704 q 545 500 499 609 q 682 702 595 593 l 915 994 l 1074 994 l 599 374 l 521 0 l 388 0 z "},"Z":{"ha":848,"x_min":34,"x_max":884,"o":"m 34 0 l 47 100 l 545 694 l 648 819 q 708 889 679 857 q 620 882 645 882 l 587 882 l 548 882 l 509 881 l 175 881 l 199 994 l 884 994 l 873 890 l 339 256 q 214 109 241 139 q 253 113 244 113 l 795 113 l 771 0 l 34 0 z "},"[":{"ha":386,"x_min":9,"x_max":543,"o":"m 9 -272 l 270 994 l 543 994 l 524 900 l 375 900 l 150 -178 l 300 -178 l 280 -272 l 9 -272 z "},"\\":{"ha":386,"x_min":118,"x_max":380,"o":"m 285 -16 l 118 1011 l 213 1011 l 380 -16 l 285 -16 z "},"]":{"ha":386,"x_min":-81,"x_max":457,"o":"m 190 -272 l -81 -272 l -62 -178 l 88 -178 l 313 900 l 164 900 l 184 994 l 457 994 l 190 -272 z "},"^":{"ha":652,"x_min":98,"x_max":676,"o":"m 223 468 l 98 468 l 337 1011 l 435 1011 l 676 468 l 553 468 l 386 873 l 223 468 z "},"_":{"ha":772,"x_min":-88,"x_max":721,"o":"m -88 -276 l -88 -188 l 721 -188 l 721 -276 l -88 -276 z "},"`":{"ha":463,"x_min":202,"x_max":430,"o":"m 334 808 l 202 994 l 351 994 l 430 808 l 334 808 z "},"a":{"ha":772,"x_min":61,"x_max":731,"o":"m 532 90 q 409 9 468 35 q 283 -16 350 -16 q 122 42 183 -16 q 61 193 61 101 q 89 299 61 253 q 161 374 116 346 q 273 414 207 402 q 430 427 314 422 q 595 452 545 432 q 610 535 610 502 q 578 602 610 578 q 454 636 536 636 q 327 602 376 636 q 256 505 278 568 l 132 515 q 252 680 170 623 q 460 736 334 736 q 671 673 593 736 q 731 549 731 625 q 714 416 731 492 l 674 237 q 655 98 655 151 q 670 0 655 64 l 546 0 q 532 90 536 35 m 577 365 q 522 349 551 355 q 423 338 492 344 q 272 314 316 328 q 205 267 228 299 q 183 197 183 235 q 219 112 183 145 q 320 79 254 79 q 437 111 381 79 q 526 201 494 143 q 577 365 559 258 z "},"b":{"ha":772,"x_min":46,"x_max":743,"o":"m 46 0 l 254 994 l 376 994 l 302 639 q 408 714 361 692 q 507 736 456 736 q 676 661 608 736 q 743 442 743 586 q 716 267 743 347 q 649 134 689 188 q 566 48 609 80 q 479 0 524 16 q 393 -16 434 -16 q 267 21 321 -16 q 182 136 213 59 l 154 0 l 46 0 m 228 296 l 227 273 q 271 132 227 180 q 381 84 315 84 q 499 129 446 84 q 588 270 553 174 q 623 446 623 366 q 579 587 623 537 q 471 637 535 637 q 349 586 404 637 q 256 429 293 535 q 228 296 228 349 z "},"c":{"ha":694,"x_min":78,"x_max":709,"o":"m 543 262 l 666 250 q 535 49 620 115 q 341 -16 450 -16 q 151 60 224 -16 q 78 272 78 136 q 125 504 78 390 q 259 677 172 618 q 458 736 346 736 q 642 671 574 736 q 709 498 709 606 l 589 490 q 549 597 588 558 q 446 635 510 635 q 318 589 372 635 q 233 447 264 542 q 202 263 202 351 q 243 125 202 171 q 343 79 283 79 q 457 124 403 79 q 543 262 512 170 z "},"d":{"ha":772,"x_min":73,"x_max":831,"o":"m 532 104 q 312 -16 427 -16 q 141 59 210 -16 q 73 279 73 135 q 127 519 73 410 q 262 682 181 628 q 425 736 343 736 q 627 607 559 736 l 709 994 l 831 994 l 623 0 l 510 0 l 532 104 m 195 302 q 210 183 195 227 q 261 111 225 140 q 347 82 297 82 q 498 169 431 82 q 589 454 589 284 q 545 587 589 539 q 432 635 500 635 q 352 616 388 635 q 280 549 315 596 q 220 429 244 502 q 195 302 195 357 z "},"e":{"ha":772,"x_min":72,"x_max":739,"o":"m 575 245 l 694 233 q 576 64 669 144 q 355 -16 484 -16 q 209 21 275 -16 q 107 128 142 58 q 72 289 72 199 q 126 518 72 407 q 268 683 181 629 q 456 736 355 736 q 662 656 585 736 q 739 438 739 576 q 729 330 739 385 l 199 330 q 196 292 196 309 q 242 137 196 191 q 356 84 289 84 q 480 125 419 84 q 575 245 541 167 m 218 423 l 623 423 q 623 450 623 442 q 577 592 623 543 q 458 641 531 641 q 315 587 380 641 q 218 423 250 532 z "},"f":{"ha":386,"x_min":63,"x_max":566,"o":"m 63 0 l 194 625 l 84 625 l 104 720 l 214 720 l 235 823 q 268 933 251 899 q 325 989 286 967 q 431 1011 363 1011 q 566 991 477 1011 l 544 884 q 439 901 481 901 q 385 883 404 901 q 353 798 366 865 l 336 720 l 473 720 l 454 625 l 317 625 l 186 0 l 63 0 z "},"g":{"ha":772,"x_min":36,"x_max":784,"o":"m 39 -65 l 163 -77 q 174 -140 162 -119 q 210 -172 185 -161 q 296 -187 243 -187 q 456 -130 408 -187 q 515 39 488 -91 l 528 97 q 324 0 432 0 q 141 80 215 0 q 68 308 68 161 q 126 531 68 429 q 264 685 184 633 q 429 736 344 736 q 647 602 570 736 l 671 720 l 784 720 l 639 25 q 576 -154 615 -90 q 469 -253 538 -218 q 310 -288 400 -288 q 160 -266 223 -288 q 67 -200 98 -243 q 36 -102 36 -157 q 39 -65 36 -85 m 193 319 q 207 208 193 245 q 265 128 227 155 q 349 100 302 100 q 469 143 409 100 q 565 274 528 185 q 602 444 602 363 q 553 585 602 532 q 431 637 504 637 q 345 613 387 637 q 266 540 302 589 q 211 422 230 491 q 193 319 193 354 z "},"h":{"ha":772,"x_min":46,"x_max":734,"o":"m 46 0 l 254 994 l 376 994 l 297 612 q 425 708 366 679 q 546 736 484 736 q 685 689 635 736 q 734 565 734 642 q 713 425 734 527 l 624 0 l 501 0 l 593 436 q 612 555 612 531 q 588 613 612 591 q 517 635 564 635 q 391 601 451 635 q 296 505 330 566 q 233 309 262 444 l 169 0 l 46 0 z "},"i":{"ha":309,"x_min":41,"x_max":372,"o":"m 220 855 l 250 994 l 372 994 l 342 855 l 220 855 m 41 0 l 192 720 l 315 720 l 164 0 l 41 0 z "},"j":{"ha":309,"x_min":-168,"x_max":371,"o":"m 220 855 l 250 994 l 371 994 l 342 855 l 220 855 m -168 -271 l -146 -166 q -72 -178 -104 -178 q -9 -152 -33 -178 q 39 -7 14 -125 l 191 720 l 313 720 l 157 -29 q 90 -220 128 -170 q -52 -288 39 -288 q -168 -271 -100 -288 z "},"k":{"ha":694,"x_min":47,"x_max":769,"o":"m 47 0 l 256 994 l 378 994 l 249 378 l 607 720 l 769 720 l 462 452 l 648 0 l 513 0 l 370 370 l 220 241 l 170 0 l 47 0 z "},"l":{"ha":309,"x_min":37,"x_max":367,"o":"m 37 0 l 244 994 l 367 994 l 159 0 l 37 0 z "},"m":{"ha":1157,"x_min":45,"x_max":1128,"o":"m 45 0 l 196 720 l 319 720 l 294 602 q 416 707 362 678 q 533 736 470 736 q 645 701 600 736 q 705 602 690 665 q 820 703 760 669 q 948 736 881 736 q 1083 694 1038 736 q 1128 574 1128 651 q 1113 464 1128 541 l 1016 0 l 893 0 l 992 476 q 1005 559 1005 534 q 983 615 1005 595 q 920 635 960 635 q 808 602 865 635 q 719 515 751 569 q 664 349 688 461 l 591 0 l 468 0 l 570 486 q 581 557 581 536 q 558 614 581 592 q 501 635 536 635 q 392 602 449 635 q 298 510 334 569 q 239 340 262 450 l 168 0 l 45 0 z "},"n":{"ha":772,"x_min":46,"x_max":733,"o":"m 46 0 l 197 720 l 308 720 l 281 595 q 417 703 354 669 q 546 736 480 736 q 683 689 633 736 q 733 562 733 642 q 715 436 733 522 l 624 0 l 501 0 l 597 456 q 611 555 611 523 q 586 613 611 591 q 515 635 562 635 q 347 568 420 635 q 239 335 273 500 l 169 0 l 46 0 z "},"o":{"ha":772,"x_min":68,"x_max":750,"o":"m 68 273 q 192 623 68 484 q 460 736 294 736 q 670 655 591 736 q 750 435 750 574 q 700 204 750 311 q 557 41 650 98 q 362 -16 465 -16 q 209 20 278 -16 q 104 121 140 56 q 68 273 68 187 m 191 286 q 239 131 191 184 q 363 79 288 79 q 441 95 403 79 q 513 143 480 111 q 570 217 547 176 q 608 307 593 259 q 629 436 629 374 q 579 588 629 534 q 456 642 530 642 q 351 614 398 642 q 265 534 303 587 q 209 411 227 481 q 191 286 191 340 z "},"p":{"ha":772,"x_min":-14,"x_max":743,"o":"m -14 -276 l 194 720 l 307 720 l 286 620 q 399 711 349 686 q 505 736 449 736 q 675 662 608 736 q 743 447 743 587 q 706 242 743 334 q 614 93 669 149 q 505 10 560 37 q 391 -16 449 -16 q 190 115 261 -16 l 109 -276 l -14 -276 m 229 294 q 240 182 229 214 q 296 111 257 138 q 385 84 334 84 q 556 203 491 84 q 621 446 621 322 q 577 588 621 538 q 469 637 534 637 q 382 613 422 637 q 308 539 342 588 q 251 418 273 490 q 229 294 229 347 z "},"q":{"ha":772,"x_min":71,"x_max":767,"o":"m 511 81 q 310 -16 406 -16 q 140 60 210 -16 q 71 277 71 136 q 124 519 71 411 q 258 682 176 628 q 427 736 340 736 q 546 700 492 736 q 633 588 600 663 l 661 720 l 767 720 l 559 -276 l 437 -276 l 511 81 m 193 293 q 237 135 193 186 q 347 84 281 84 q 459 130 402 84 q 552 269 515 176 q 588 447 588 361 q 543 585 588 535 q 431 635 497 635 q 319 593 367 635 q 220 437 256 539 q 193 293 193 358 z "},"r":{"ha":463,"x_min":46,"x_max":583,"o":"m 46 0 l 197 720 l 305 720 l 275 573 q 384 696 330 656 q 492 736 437 736 q 583 710 529 736 l 532 596 q 463 619 500 619 q 330 547 398 619 q 224 289 262 475 l 163 0 l 46 0 z "},"s":{"ha":694,"x_min":53,"x_max":696,"o":"m 58 246 l 180 254 q 197 163 180 201 q 257 102 213 126 q 359 79 300 79 q 481 111 440 79 q 522 188 522 144 q 497 248 522 220 q 375 318 472 277 q 250 377 277 360 q 182 443 205 405 q 159 529 159 480 q 227 675 159 614 q 416 736 294 736 q 623 674 552 736 q 696 509 694 611 l 576 500 q 530 604 574 566 q 408 642 487 642 q 309 612 344 642 q 273 549 273 583 q 304 490 273 515 q 409 435 324 472 q 587 339 550 374 q 645 202 645 283 q 612 97 645 149 q 512 15 579 45 q 353 -16 444 -16 q 140 45 228 -16 q 58 246 53 107 z "},"t":{"ha":386,"x_min":78,"x_max":446,"o":"m 333 100 l 313 -1 q 227 -12 269 -12 q 111 24 154 -12 q 78 98 78 51 q 96 207 78 121 l 183 625 l 86 625 l 106 720 l 203 720 l 240 897 l 380 982 l 326 720 l 446 720 l 426 625 l 306 625 l 222 227 q 207 136 207 151 q 219 103 207 115 q 260 92 232 92 q 333 100 301 92 z "},"u":{"ha":772,"x_min":87,"x_max":774,"o":"m 538 130 q 273 -16 408 -16 q 138 32 189 -16 q 87 149 87 79 q 110 304 87 194 l 197 720 l 319 720 l 223 260 q 211 170 211 202 q 236 107 211 130 q 309 84 260 84 q 409 109 360 84 q 494 177 458 134 q 552 278 530 220 q 587 409 567 315 l 652 720 l 774 720 l 624 0 l 511 0 l 538 130 z "},"v":{"ha":694,"x_min":110,"x_max":777,"o":"m 228 0 l 110 720 l 229 720 l 291 323 q 316 111 301 258 q 406 287 351 188 l 647 720 l 777 720 l 364 0 l 228 0 z "},"w":{"ha":1003,"x_min":108,"x_max":1079,"o":"m 183 0 l 108 720 l 226 720 l 258 397 l 271 215 q 275 133 273 195 q 310 239 296 202 q 355 345 324 276 l 527 720 l 661 720 l 684 360 q 691 141 690 278 q 802 393 725 232 l 956 720 l 1079 720 l 727 0 l 600 0 l 572 422 q 568 576 570 462 q 503 419 541 503 l 312 0 l 183 0 z "},"x":{"ha":694,"x_min":-2,"x_max":747,"o":"m -2 0 l 311 366 l 132 720 l 267 720 l 328 592 q 389 454 362 520 l 597 720 l 747 720 l 444 356 l 626 0 l 490 0 l 418 146 q 366 262 395 193 l 152 0 l -2 0 z "},"y":{"ha":694,"x_min":0,"x_max":779,"o":"m 0 -278 l 7 -163 q 81 -174 45 -174 q 142 -157 119 -174 q 207 -73 172 -134 l 246 -2 l 126 720 l 247 720 l 301 356 q 329 140 317 248 l 651 720 l 779 720 l 320 -96 q 202 -254 254 -215 q 83 -292 151 -292 q 0 -278 41 -292 z "},"z":{"ha":694,"x_min":27,"x_max":711,"o":"m 27 0 l 47 95 l 434 531 q 526 627 475 577 q 401 618 439 618 l 133 618 l 155 720 l 711 720 l 695 643 l 304 204 q 205 102 271 167 q 346 108 308 108 l 629 108 l 607 0 l 27 0 z "},"{":{"ha":464,"x_min":73,"x_max":618,"o":"m 96 415 q 187 443 149 416 q 250 524 226 469 q 294 678 269 565 q 332 831 319 791 q 376 923 351 888 q 431 977 401 958 q 502 1006 460 996 q 581 1011 526 1011 l 618 1011 l 595 905 l 574 905 q 491 891 517 905 q 452 847 466 877 q 416 715 439 817 q 363 522 388 581 q 302 426 339 463 q 197 359 265 389 q 270 299 246 337 q 293 197 293 260 q 262 4 293 144 q 241 -121 241 -95 q 251 -161 241 -146 q 277 -179 258 -173 q 359 -186 296 -186 l 336 -292 l 298 -292 q 209 -283 235 -292 q 147 -238 170 -270 q 125 -153 125 -205 q 156 41 125 -106 q 180 193 180 153 q 153 275 180 247 q 73 304 125 303 l 96 415 z "},"|":{"ha":361,"x_min":127,"x_max":234,"o":"m 127 -292 l 127 1011 l 234 1011 l 234 -292 l 127 -292 z "},"}":{"ha":464,"x_min":-117,"x_max":429,"o":"m 429 415 l 406 304 q 315 277 354 303 q 254 203 276 250 q 208 42 233 155 q 171 -110 183 -72 q 126 -203 152 -168 q 71 -257 100 -238 q -1 -287 41 -277 q -79 -292 -24 -292 l -117 -292 l -94 -186 l -73 -186 q 11 -172 -15 -186 q 52 -123 36 -157 q 85 4 63 -98 q 132 182 113 132 q 200 293 159 251 q 304 359 241 335 q 230 423 252 387 q 209 523 209 458 q 239 715 209 575 q 261 840 261 814 q 242 890 261 875 q 164 905 224 905 l 143 905 l 166 1011 l 203 1011 q 293 1002 267 1011 q 355 957 333 989 q 377 871 377 925 q 355 721 377 827 q 322 526 322 564 q 349 444 322 472 q 429 415 376 416 z "},"~":{"ha":811,"x_min":111,"x_max":805,"o":"m 111 378 l 111 517 q 300 598 183 598 q 385 586 340 598 q 513 539 430 574 q 583 513 559 519 q 630 507 606 507 q 721 534 674 507 q 805 600 768 560 l 805 456 q 717 397 762 416 q 617 379 673 379 q 539 389 576 379 q 422 434 503 398 q 288 470 342 470 q 207 451 245 470 q 111 378 168 433 z "},"Ä":{"ha":926,"x_min":-28,"x_max":857,"o":"m -28 0 l 536 994 l 692 994 l 857 0 l 728 0 l 680 286 l 277 286 l 118 0 l -28 0 m 334 389 l 663 389 l 625 638 q 597 886 602 787 q 498 683 563 800 l 334 389 m 418 1055 l 448 1194 l 576 1194 l 547 1055 l 418 1055 m 669 1055 l 698 1194 l 825 1194 l 797 1055 l 669 1055 z "},"Å":{"ha":926,"x_min":-28,"x_max":857,"o":"m -28 0 l 536 994 l 692 994 l 857 0 l 728 0 l 680 286 l 277 286 l 118 0 l -28 0 m 334 389 l 663 389 l 625 638 q 597 886 602 787 q 498 683 563 800 l 334 389 m 509 1076 q 546 1163 509 1127 q 633 1199 582 1199 q 720 1163 684 1199 q 756 1076 756 1126 q 720 988 756 1024 q 633 952 684 952 q 546 988 582 952 q 509 1076 509 1024 m 560 1076 q 582 1024 560 1045 q 633 1002 603 1002 q 685 1024 663 1002 q 706 1076 706 1045 q 685 1127 706 1105 q 633 1148 663 1148 q 582 1127 603 1148 q 560 1076 560 1105 z "},"Ç":{"ha":1003,"x_min":126,"x_max":1015,"o":"m 838 350 l 969 332 q 787 71 907 159 q 519 -17 668 -17 q 232 94 338 -17 q 126 410 126 204 q 288 854 126 679 q 645 1011 431 1011 q 901 926 803 1011 q 1015 699 999 842 l 890 687 q 809 848 871 795 q 651 901 748 901 q 356 739 469 901 q 258 408 258 600 q 334 174 258 254 q 530 93 409 93 q 716 160 633 93 q 838 350 800 227 m 374 -105 l 402 4 l 497 4 l 481 -57 q 572 -98 541 -65 q 603 -172 603 -131 q 562 -250 603 -221 q 371 -292 502 -292 q 256 -284 305 -292 l 271 -208 q 370 -210 312 -210 q 462 -195 439 -210 q 485 -162 485 -180 q 465 -126 485 -140 q 374 -105 436 -106 z "},"É":{"ha":926,"x_min":62,"x_max":988,"o":"m 62 0 l 271 994 l 988 994 l 964 881 l 380 881 l 315 572 l 884 572 l 861 458 l 291 458 l 219 113 l 845 113 l 821 0 l 62 0 m 505 1055 l 633 1242 l 787 1242 l 607 1055 l 505 1055 z "},"Ñ":{"ha":1003,"x_min":68,"x_max":1051,"o":"m 68 0 l 276 994 l 405 994 l 572 621 q 694 334 649 450 q 753 151 720 266 q 800 410 772 276 l 922 994 l 1051 994 l 844 0 l 712 0 l 465 574 q 363 842 399 726 q 323 604 353 745 l 197 0 l 68 0 m 448 1053 q 504 1174 471 1143 q 586 1205 536 1205 q 630 1200 608 1205 q 704 1171 651 1194 q 777 1147 757 1147 q 804 1159 792 1147 q 825 1201 817 1170 l 907 1201 q 862 1092 900 1131 q 773 1053 823 1053 q 705 1070 746 1053 q 589 1111 611 1111 q 553 1097 568 1111 q 533 1053 539 1083 l 448 1053 z "},"Ö":{"ha":1080,"x_min":127,"x_max":1073,"o":"m 127 416 q 280 847 127 682 q 653 1011 434 1011 q 956 890 839 1011 q 1073 566 1073 769 q 1014 296 1073 420 q 903 136 970 203 q 759 32 836 68 q 543 -17 657 -17 q 326 40 424 -17 q 177 199 228 97 q 127 416 127 301 m 258 410 q 294 249 258 322 q 402 134 330 176 q 553 93 474 93 q 699 129 630 93 q 823 230 768 165 q 909 390 878 295 q 941 576 941 484 q 858 812 941 724 q 652 901 774 901 q 377 767 496 901 q 258 410 258 634 m 464 1055 l 493 1194 l 621 1194 l 592 1055 l 464 1055 m 714 1055 l 743 1194 l 871 1194 l 842 1055 l 714 1055 z "},"Ü":{"ha":1003,"x_min":134,"x_max":1048,"o":"m 275 994 l 408 994 l 281 383 q 265 271 265 307 q 328 142 265 191 q 487 93 391 93 q 628 128 563 93 q 732 231 694 163 q 800 447 770 298 l 915 994 l 1048 994 l 926 411 q 844 175 895 262 q 703 35 793 87 q 494 -18 613 -18 q 299 20 381 -18 q 175 123 216 57 q 134 272 134 189 q 162 452 134 324 l 275 994 m 477 1055 l 506 1194 l 634 1194 l 605 1055 l 477 1055 m 727 1055 l 756 1194 l 884 1194 l 855 1055 l 727 1055 z "},"á":{"ha":772,"x_min":61,"x_max":731,"o":"m 532 90 q 409 9 468 35 q 283 -16 350 -16 q 122 42 183 -16 q 61 193 61 101 q 89 299 61 253 q 161 374 116 346 q 273 414 207 402 q 430 427 314 422 q 595 452 545 432 q 610 535 610 502 q 578 602 610 578 q 454 636 536 636 q 327 602 376 636 q 256 505 278 568 l 132 515 q 252 680 170 623 q 460 736 334 736 q 671 673 593 736 q 731 549 731 625 q 714 416 731 492 l 674 237 q 655 98 655 151 q 670 0 655 64 l 546 0 q 532 90 536 35 m 577 365 q 522 349 551 355 q 423 338 492 344 q 272 314 316 328 q 205 267 228 299 q 183 197 183 235 q 219 112 183 145 q 320 79 254 79 q 437 111 381 79 q 526 201 494 143 q 577 365 559 258 m 376 808 l 504 994 l 659 994 l 478 808 l 376 808 z "},"à":{"ha":772,"x_min":61,"x_max":731,"o":"m 532 90 q 409 9 468 35 q 283 -16 350 -16 q 122 42 183 -16 q 61 193 61 101 q 89 299 61 253 q 161 374 116 346 q 273 414 207 402 q 430 427 314 422 q 595 452 545 432 q 610 535 610 502 q 578 602 610 578 q 454 636 536 636 q 327 602 376 636 q 256 505 278 568 l 132 515 q 252 680 170 623 q 460 736 334 736 q 671 673 593 736 q 731 549 731 625 q 714 416 731 492 l 674 237 q 655 98 655 151 q 670 0 655 64 l 546 0 q 532 90 536 35 m 577 365 q 522 349 551 355 q 423 338 492 344 q 272 314 316 328 q 205 267 228 299 q 183 197 183 235 q 219 112 183 145 q 320 79 254 79 q 437 111 381 79 q 526 201 494 143 q 577 365 559 258 m 519 808 l 387 994 l 536 994 l 615 808 l 519 808 z "},"â":{"ha":772,"x_min":61,"x_max":731,"o":"m 532 90 q 409 9 468 35 q 283 -16 350 -16 q 122 42 183 -16 q 61 193 61 101 q 89 299 61 253 q 161 374 116 346 q 273 414 207 402 q 430 427 314 422 q 595 452 545 432 q 610 535 610 502 q 578 602 610 578 q 454 636 536 636 q 327 602 376 636 q 256 505 278 568 l 132 515 q 252 680 170 623 q 460 736 334 736 q 671 673 593 736 q 731 549 731 625 q 714 416 731 492 l 674 237 q 655 98 655 151 q 670 0 655 64 l 546 0 q 532 90 536 35 m 577 365 q 522 349 551 355 q 423 338 492 344 q 272 314 316 328 q 205 267 228 299 q 183 197 183 235 q 219 112 183 145 q 320 79 254 79 q 437 111 381 79 q 526 201 494 143 q 577 365 559 258 m 293 808 l 473 994 l 608 994 l 692 808 l 585 808 l 531 928 l 419 808 l 293 808 z "},"ä":{"ha":772,"x_min":61,"x_max":731,"o":"m 532 90 q 409 9 468 35 q 283 -16 350 -16 q 122 42 183 -16 q 61 193 61 101 q 89 299 61 253 q 161 374 116 346 q 273 414 207 402 q 430 427 314 422 q 595 452 545 432 q 610 535 610 502 q 578 602 610 578 q 454 636 536 636 q 327 602 376 636 q 256 505 278 568 l 132 515 q 252 680 170 623 q 460 736 334 736 q 671 673 593 736 q 731 549 731 625 q 714 416 731 492 l 674 237 q 655 98 655 151 q 670 0 655 64 l 546 0 q 532 90 536 35 m 577 365 q 522 349 551 355 q 423 338 492 344 q 272 314 316 328 q 205 267 228 299 q 183 197 183 235 q 219 112 183 145 q 320 79 254 79 q 437 111 381 79 q 526 201 494 143 q 577 365 559 258 m 302 832 l 332 971 l 460 971 l 431 832 l 302 832 m 553 832 l 582 971 l 709 971 l 681 832 l 553 832 z "},"ã":{"ha":772,"x_min":61,"x_max":751,"o":"m 532 90 q 409 9 468 35 q 283 -16 350 -16 q 122 42 183 -16 q 61 193 61 101 q 89 299 61 253 q 161 374 116 346 q 273 414 207 402 q 430 427 314 422 q 595 452 545 432 q 610 535 610 502 q 578 602 610 578 q 454 636 536 636 q 327 602 376 636 q 256 505 278 568 l 132 515 q 252 680 170 623 q 460 736 334 736 q 671 673 593 736 q 731 549 731 625 q 714 416 731 492 l 674 237 q 655 98 655 151 q 670 0 655 64 l 546 0 q 532 90 536 35 m 577 365 q 522 349 551 355 q 423 338 492 344 q 272 314 316 328 q 205 267 228 299 q 183 197 183 235 q 219 112 183 145 q 320 79 254 79 q 437 111 381 79 q 526 201 494 143 q 577 365 559 258 m 292 829 q 348 950 315 920 q 430 981 380 981 q 474 976 452 981 q 548 947 495 970 q 621 924 601 924 q 648 935 636 924 q 669 977 661 946 l 751 977 q 706 868 744 907 q 617 829 667 829 q 549 846 590 829 q 433 887 455 887 q 397 873 412 887 q 377 829 383 859 l 292 829 z "},"å":{"ha":772,"x_min":61,"x_max":731,"o":"m 532 90 q 409 9 468 35 q 283 -16 350 -16 q 122 42 183 -16 q 61 193 61 101 q 89 299 61 253 q 161 374 116 346 q 273 414 207 402 q 430 427 314 422 q 595 452 545 432 q 610 535 610 502 q 578 602 610 578 q 454 636 536 636 q 327 602 376 636 q 256 505 278 568 l 132 515 q 252 680 170 623 q 460 736 334 736 q 671 673 593 736 q 731 549 731 625 q 714 416 731 492 l 674 237 q 655 98 655 151 q 670 0 655 64 l 546 0 q 532 90 536 35 m 577 365 q 522 349 551 355 q 423 338 492 344 q 272 314 316 328 q 205 267 228 299 q 183 197 183 235 q 219 112 183 145 q 320 79 254 79 q 437 111 381 79 q 526 201 494 143 q 577 365 559 258 m 370 895 q 406 983 370 947 q 493 1019 442 1019 q 581 982 545 1019 q 616 895 616 946 q 580 808 616 844 q 493 772 544 772 q 406 808 442 772 q 370 895 370 844 m 420 895 q 442 843 420 865 q 493 822 463 822 q 545 843 524 822 q 566 895 566 865 q 545 946 566 925 q 493 968 524 968 q 442 946 463 968 q 420 895 420 925 z "},"ç":{"ha":694,"x_min":78,"x_max":709,"o":"m 543 262 l 666 250 q 535 49 620 115 q 341 -16 450 -16 q 151 60 224 -16 q 78 272 78 136 q 125 504 78 390 q 259 677 172 618 q 458 736 346 736 q 642 671 574 736 q 709 498 709 606 l 589 490 q 549 597 588 558 q 446 635 510 635 q 318 589 372 635 q 233 447 264 542 q 202 263 202 351 q 243 125 202 171 q 343 79 283 79 q 457 124 403 79 q 543 262 512 170 m 239 -89 l 267 20 l 362 20 l 346 -41 q 437 -82 406 -49 q 468 -156 468 -115 q 427 -234 468 -205 q 236 -276 367 -276 q 121 -268 170 -276 l 136 -192 q 235 -194 177 -194 q 327 -179 304 -194 q 350 -146 350 -164 q 330 -110 350 -124 q 239 -89 301 -90 z "},"é":{"ha":772,"x_min":72,"x_max":739,"o":"m 575 245 l 694 233 q 576 64 669 144 q 355 -16 484 -16 q 209 21 275 -16 q 107 128 142 58 q 72 289 72 199 q 126 518 72 407 q 268 683 181 629 q 456 736 355 736 q 662 656 585 736 q 739 438 739 576 q 729 330 739 385 l 199 330 q 196 292 196 309 q 242 137 196 191 q 356 84 289 84 q 480 125 419 84 q 575 245 541 167 m 218 423 l 623 423 q 623 450 623 442 q 577 592 623 543 q 458 641 531 641 q 315 587 380 641 q 218 423 250 532 m 388 808 l 515 994 l 670 994 l 490 808 l 388 808 z "},"è":{"ha":772,"x_min":72,"x_max":739,"o":"m 575 245 l 694 233 q 576 64 669 144 q 355 -16 484 -16 q 209 21 275 -16 q 107 128 142 58 q 72 289 72 199 q 126 518 72 407 q 268 683 181 629 q 456 736 355 736 q 662 656 585 736 q 739 438 739 576 q 729 330 739 385 l 199 330 q 196 292 196 309 q 242 137 196 191 q 356 84 289 84 q 480 125 419 84 q 575 245 541 167 m 218 423 l 623 423 q 623 450 623 442 q 577 592 623 543 q 458 641 531 641 q 315 587 380 641 q 218 423 250 532 m 520 808 l 388 994 l 537 994 l 616 808 l 520 808 z "},"ê":{"ha":772,"x_min":72,"x_max":739,"o":"m 575 245 l 694 233 q 576 64 669 144 q 355 -16 484 -16 q 209 21 275 -16 q 107 128 142 58 q 72 289 72 199 q 126 518 72 407 q 268 683 181 629 q 456 736 355 736 q 662 656 585 736 q 739 438 739 576 q 729 330 739 385 l 199 330 q 196 292 196 309 q 242 137 196 191 q 356 84 289 84 q 480 125 419 84 q 575 245 541 167 m 218 423 l 623 423 q 623 450 623 442 q 577 592 623 543 q 458 641 531 641 q 315 587 380 641 q 218 423 250 532 m 302 808 l 481 994 l 617 994 l 701 808 l 594 808 l 540 928 l 428 808 l 302 808 z "},"ë":{"ha":772,"x_min":72,"x_max":739,"o":"m 575 245 l 694 233 q 576 64 669 144 q 355 -16 484 -16 q 209 21 275 -16 q 107 128 142 58 q 72 289 72 199 q 126 518 72 407 q 268 683 181 629 q 456 736 355 736 q 662 656 585 736 q 739 438 739 576 q 729 330 739 385 l 199 330 q 196 292 196 309 q 242 137 196 191 q 356 84 289 84 q 480 125 419 84 q 575 245 541 167 m 218 423 l 623 423 q 623 450 623 442 q 577 592 623 543 q 458 641 531 641 q 315 587 380 641 q 218 423 250 532 m 303 832 l 332 971 l 460 971 l 431 832 l 303 832 m 553 832 l 583 971 l 710 971 l 682 832 l 553 832 z "},"í":{"ha":386,"x_min":85,"x_max":485,"o":"m 85 0 l 235 720 l 358 720 l 208 0 l 85 0 m 203 808 l 330 994 l 485 994 l 304 808 l 203 808 z "},"ì":{"ha":386,"x_min":85,"x_max":431,"o":"m 85 0 l 235 720 l 358 720 l 208 0 l 85 0 m 335 808 l 203 994 l 352 994 l 431 808 l 335 808 z "},"î":{"ha":386,"x_min":85,"x_max":503,"o":"m 85 0 l 235 720 l 358 720 l 208 0 l 85 0 m 103 808 l 283 994 l 418 994 l 503 808 l 395 808 l 341 928 l 229 808 l 103 808 z "},"ï":{"ha":386,"x_min":85,"x_max":525,"o":"m 85 0 l 235 720 l 358 720 l 208 0 l 85 0 m 118 832 l 147 971 l 275 971 l 246 832 l 118 832 m 368 832 l 397 971 l 525 971 l 496 832 l 368 832 z "},"ñ":{"ha":772,"x_min":46,"x_max":739,"o":"m 46 0 l 197 720 l 308 720 l 281 595 q 417 703 354 669 q 546 736 480 736 q 683 689 633 736 q 733 562 733 642 q 715 436 733 522 l 624 0 l 501 0 l 597 456 q 611 555 611 523 q 586 613 611 591 q 515 635 562 635 q 347 568 420 635 q 239 335 273 500 l 169 0 l 46 0 m 281 829 q 336 950 303 919 q 418 981 369 981 q 462 975 441 981 q 536 946 484 970 q 609 923 589 923 q 637 934 625 923 q 657 977 649 945 l 739 977 q 694 867 732 907 q 606 828 656 828 q 537 846 578 828 q 422 886 444 886 q 386 872 400 886 q 366 829 372 859 l 281 829 z "},"ó":{"ha":772,"x_min":68,"x_max":750,"o":"m 68 273 q 192 623 68 484 q 460 736 294 736 q 670 655 591 736 q 750 435 750 574 q 700 204 750 311 q 557 41 650 98 q 362 -16 465 -16 q 209 20 278 -16 q 104 121 140 56 q 68 273 68 187 m 191 286 q 239 131 191 184 q 363 79 288 79 q 441 95 403 79 q 513 143 480 111 q 570 217 547 176 q 608 307 593 259 q 629 436 629 374 q 579 588 629 534 q 456 642 530 642 q 351 614 398 642 q 265 534 303 587 q 209 411 227 481 q 191 286 191 340 m 363 808 l 491 994 l 646 994 l 465 808 l 363 808 z "},"ò":{"ha":772,"x_min":68,"x_max":750,"o":"m 68 273 q 192 623 68 484 q 460 736 294 736 q 670 655 591 736 q 750 435 750 574 q 700 204 750 311 q 557 41 650 98 q 362 -16 465 -16 q 209 20 278 -16 q 104 121 140 56 q 68 273 68 187 m 191 286 q 239 131 191 184 q 363 79 288 79 q 441 95 403 79 q 513 143 480 111 q 570 217 547 176 q 608 307 593 259 q 629 436 629 374 q 579 588 629 534 q 456 642 530 642 q 351 614 398 642 q 265 534 303 587 q 209 411 227 481 q 191 286 191 340 m 523 808 l 391 994 l 540 994 l 618 808 l 523 808 z "},"ô":{"ha":772,"x_min":68,"x_max":750,"o":"m 68 273 q 192 623 68 484 q 460 736 294 736 q 670 655 591 736 q 750 435 750 574 q 700 204 750 311 q 557 41 650 98 q 362 -16 465 -16 q 209 20 278 -16 q 104 121 140 56 q 68 273 68 187 m 191 286 q 239 131 191 184 q 363 79 288 79 q 441 95 403 79 q 513 143 480 111 q 570 217 547 176 q 608 307 593 259 q 629 436 629 374 q 579 588 629 534 q 456 642 530 642 q 351 614 398 642 q 265 534 303 587 q 209 411 227 481 q 191 286 191 340 m 280 808 l 460 994 l 595 994 l 680 808 l 572 808 l 518 928 l 406 808 l 280 808 z "},"ö":{"ha":772,"x_min":68,"x_max":750,"o":"m 68 273 q 192 623 68 484 q 460 736 294 736 q 670 655 591 736 q 750 435 750 574 q 700 204 750 311 q 557 41 650 98 q 362 -16 465 -16 q 209 20 278 -16 q 104 121 140 56 q 68 273 68 187 m 191 286 q 239 131 191 184 q 363 79 288 79 q 441 95 403 79 q 513 143 480 111 q 570 217 547 176 q 608 307 593 259 q 629 436 629 374 q 579 588 629 534 q 456 642 530 642 q 351 614 398 642 q 265 534 303 587 q 209 411 227 481 q 191 286 191 340 m 290 832 l 319 971 l 447 971 l 418 832 l 290 832 m 540 832 l 569 971 l 696 971 l 668 832 l 540 832 z "},"õ":{"ha":772,"x_min":68,"x_max":750,"o":"m 68 273 q 192 623 68 484 q 460 736 294 736 q 670 655 591 736 q 750 435 750 574 q 700 204 750 311 q 557 41 650 98 q 362 -16 465 -16 q 209 20 278 -16 q 104 121 140 56 q 68 273 68 187 m 191 286 q 239 131 191 184 q 363 79 288 79 q 441 95 403 79 q 513 143 480 111 q 570 217 547 176 q 608 307 593 259 q 629 436 629 374 q 579 588 629 534 q 456 642 530 642 q 351 614 398 642 q 265 534 303 587 q 209 411 227 481 q 191 286 191 340 m 263 829 q 318 950 286 919 q 401 981 351 981 q 445 975 423 981 q 519 946 466 970 q 591 923 572 923 q 619 934 607 923 q 640 977 631 945 l 722 977 q 676 867 715 907 q 588 828 638 828 q 519 846 561 828 q 404 886 426 886 q 368 872 382 886 q 348 829 354 859 l 263 829 z "},"ú":{"ha":772,"x_min":87,"x_max":774,"o":"m 538 130 q 273 -16 408 -16 q 138 32 189 -16 q 87 149 87 79 q 110 304 87 194 l 197 720 l 319 720 l 223 260 q 211 170 211 202 q 236 107 211 130 q 309 84 260 84 q 409 109 360 84 q 494 177 458 134 q 552 278 530 220 q 587 409 567 315 l 652 720 l 774 720 l 624 0 l 511 0 l 538 130 m 397 808 l 524 994 l 679 994 l 498 808 l 397 808 z "},"ù":{"ha":772,"x_min":87,"x_max":774,"o":"m 538 130 q 273 -16 408 -16 q 138 32 189 -16 q 87 149 87 79 q 110 304 87 194 l 197 720 l 319 720 l 223 260 q 211 170 211 202 q 236 107 211 130 q 309 84 260 84 q 409 109 360 84 q 494 177 458 134 q 552 278 530 220 q 587 409 567 315 l 652 720 l 774 720 l 624 0 l 511 0 l 538 130 m 524 808 l 391 994 l 541 994 l 619 808 l 524 808 z "},"û":{"ha":772,"x_min":87,"x_max":774,"o":"m 538 130 q 273 -16 408 -16 q 138 32 189 -16 q 87 149 87 79 q 110 304 87 194 l 197 720 l 319 720 l 223 260 q 211 170 211 202 q 236 107 211 130 q 309 84 260 84 q 409 109 360 84 q 494 177 458 134 q 552 278 530 220 q 587 409 567 315 l 652 720 l 774 720 l 624 0 l 511 0 l 538 130 m 289 808 l 469 994 l 604 994 l 688 808 l 581 808 l 527 928 l 415 808 l 289 808 z "},"ü":{"ha":772,"x_min":87,"x_max":774,"o":"m 538 130 q 273 -16 408 -16 q 138 32 189 -16 q 87 149 87 79 q 110 304 87 194 l 197 720 l 319 720 l 223 260 q 211 170 211 202 q 236 107 211 130 q 309 84 260 84 q 409 109 360 84 q 494 177 458 134 q 552 278 530 220 q 587 409 567 315 l 652 720 l 774 720 l 624 0 l 511 0 l 538 130 m 307 832 l 336 971 l 464 971 l 435 832 l 307 832 m 557 832 l 586 971 l 713 971 l 685 832 l 557 832 z "},"†":{"ha":772,"x_min":126,"x_max":810,"o":"m 224 -237 l 397 589 l 126 589 l 147 691 l 418 691 l 479 981 l 602 981 l 541 691 l 810 691 l 789 589 l 520 589 l 347 -237 l 224 -237 z "},"°":{"ha":555,"x_min":185,"x_max":562,"o":"m 185 823 q 240 956 185 901 q 373 1011 296 1011 q 507 956 452 1011 q 562 823 562 901 q 506 690 562 745 q 373 635 451 635 q 240 690 296 635 q 185 823 185 745 m 259 823 q 293 742 259 776 q 374 709 326 709 q 454 742 420 709 q 488 823 488 776 q 454 904 488 871 q 374 938 420 938 q 293 904 326 938 q 259 823 259 871 z "},"¢":{"ha":772,"x_min":104,"x_max":736,"o":"m 229 18 q 104 272 104 92 q 151 504 104 390 q 286 677 198 618 q 484 736 373 736 q 526 734 505 736 l 640 1008 l 711 977 l 602 713 q 702 631 667 686 q 736 498 736 577 l 615 490 q 602 561 614 533 q 559 610 589 589 l 341 81 q 370 79 357 79 q 484 124 429 79 q 570 262 538 170 l 692 250 q 561 49 646 115 q 368 -16 476 -16 q 304 -9 336 -16 l 193 -276 l 120 -244 l 229 18 m 272 122 l 485 635 l 474 635 q 344 588 398 635 q 259 446 290 541 q 229 265 229 350 q 272 122 229 170 z "},"£":{"ha":772,"x_min":43,"x_max":844,"o":"m 58 -17 l 43 103 q 174 214 118 151 q 235 316 216 262 q 254 411 254 370 q 251 441 254 420 l 101 441 l 122 544 l 239 544 q 227 698 227 635 q 321 921 227 830 q 556 1011 415 1011 q 748 946 667 1011 q 844 747 829 880 l 732 736 q 674 868 722 823 q 555 913 626 913 q 412 849 471 913 q 353 676 353 786 q 366 544 353 628 l 563 544 l 541 441 l 371 441 l 372 412 q 339 273 372 342 q 228 144 307 203 q 281 149 264 149 q 367 143 336 149 q 454 120 399 138 q 547 101 509 101 q 696 144 623 101 l 733 33 q 552 -17 630 -17 q 493 -10 523 -17 q 423 15 471 -5 q 341 43 375 35 q 270 50 308 50 q 166 36 212 50 q 58 -17 119 22 z "},"§":{"ha":772,"x_min":42,"x_max":771,"o":"m 42 -61 l 155 -33 q 222 -157 171 -114 q 342 -201 273 -201 q 453 -161 410 -201 q 496 -72 496 -122 q 487 -30 496 -51 q 460 12 478 -9 q 262 180 435 42 q 170 261 194 235 q 119 335 134 300 q 104 412 104 369 q 148 542 104 486 q 297 651 191 598 q 243 788 243 716 q 313 947 243 883 q 507 1011 382 1011 q 689 957 625 1011 q 771 781 752 903 l 648 767 q 608 874 648 836 q 500 913 569 913 q 399 877 438 913 q 359 792 359 841 q 386 715 359 757 q 511 592 412 673 q 695 426 656 475 q 734 315 734 377 q 688 189 734 250 q 545 83 642 128 q 596 7 579 45 q 613 -72 613 -32 q 540 -226 613 -160 q 342 -292 467 -292 q 144 -230 223 -292 q 42 -61 65 -168 m 484 147 q 589 222 557 181 q 620 300 620 263 q 605 353 620 329 q 507 446 591 377 q 347 592 393 540 q 215 426 215 517 q 229 372 215 398 q 328 273 250 336 l 484 147 z "},"•":{"ha":486,"x_min":74,"x_max":418,"o":"m 74 487 q 124 608 74 558 q 245 659 175 659 q 367 608 317 659 q 418 487 418 558 q 367 365 418 416 q 245 315 317 315 q 124 365 175 315 q 74 487 74 416 z "},"¶":{"ha":746,"x_min":96,"x_max":846,"o":"m 370 -276 l 370 433 q 170 515 243 439 q 96 708 96 591 q 178 917 96 839 q 417 994 260 994 l 846 994 l 846 877 l 749 877 l 749 -276 l 633 -276 l 633 877 l 482 877 l 482 -276 l 370 -276 z "},"ß":{"ha":848,"x_min":50,"x_max":788,"o":"m 50 0 l 197 701 q 261 876 221 817 q 377 973 300 935 q 540 1011 454 1011 q 703 960 642 1011 q 763 852 763 909 q 745 777 763 818 q 674 669 727 736 q 608 575 621 601 q 595 527 595 549 q 604 491 595 507 q 670 415 613 474 q 770 295 753 330 q 788 220 788 260 q 754 107 788 164 q 654 17 720 51 q 519 -17 589 -17 q 279 142 376 -17 l 382 198 q 450 107 417 132 q 517 83 484 83 q 618 128 574 83 q 663 223 663 172 q 652 266 663 245 q 558 366 640 286 q 483 455 498 425 q 468 512 468 484 q 489 587 468 545 q 575 712 509 630 q 641 840 641 794 q 612 893 641 869 q 536 917 584 917 q 471 905 505 917 q 411 874 437 893 q 368 832 385 855 q 337 772 350 809 q 317 686 331 755 l 173 0 l 50 0 z "},"®":{"ha":1023,"x_min":56,"x_max":1080,"o":"m 568 1011 q 820 945 697 1011 q 1011 756 943 879 q 1080 499 1080 633 q 1012 245 1080 367 q 823 55 945 123 q 568 -12 701 -12 q 314 55 435 -12 q 124 245 192 123 q 56 499 56 367 q 125 756 56 633 q 317 945 194 879 q 568 1011 439 1011 m 568 926 q 358 871 460 926 q 199 713 256 816 q 141 499 141 610 q 198 287 141 389 q 356 129 254 186 q 568 73 458 73 q 781 129 679 73 q 939 287 882 186 q 995 499 995 389 q 938 713 995 610 q 778 871 880 816 q 568 926 675 926 m 344 216 l 344 767 l 533 767 q 673 752 630 767 q 743 699 717 736 q 768 618 768 661 q 725 513 768 557 q 611 463 682 468 q 658 433 640 450 q 739 324 691 401 l 806 216 l 698 216 l 649 303 q 556 431 591 406 q 485 450 532 450 l 433 450 l 433 216 l 344 216 m 433 526 l 541 526 q 646 549 618 526 q 674 610 674 572 q 661 654 674 635 q 623 683 647 673 q 534 692 599 692 l 433 692 l 433 526 z "},"©":{"ha":1023,"x_min":56,"x_max":1080,"o":"m 568 1011 q 820 945 697 1011 q 1011 756 943 879 q 1080 499 1080 633 q 1012 245 1080 367 q 823 55 945 123 q 568 -12 701 -12 q 314 55 435 -12 q 124 245 192 123 q 56 499 56 367 q 125 756 56 633 q 317 945 194 879 q 568 1011 439 1011 m 568 926 q 358 871 460 926 q 199 713 256 816 q 141 499 141 610 q 198 287 141 389 q 356 129 254 186 q 568 73 458 73 q 781 129 679 73 q 939 287 882 186 q 995 499 995 389 q 938 713 995 610 q 778 871 880 816 q 568 926 675 926 m 732 416 l 816 392 q 729 257 795 307 q 569 206 663 206 q 375 283 450 206 q 300 498 300 361 q 334 653 300 587 q 431 753 368 720 q 574 787 494 787 q 724 744 665 787 q 806 627 784 701 l 725 607 q 665 684 705 657 q 572 711 625 711 q 443 655 494 711 q 393 496 393 600 q 440 339 393 392 q 564 286 488 286 q 671 321 625 286 q 732 416 718 356 z "},"™":{"ha":1389,"x_min":190,"x_max":1246,"o":"m 369 441 l 369 912 l 190 912 l 190 994 l 642 994 l 642 912 l 461 912 l 461 441 l 369 441 m 703 441 l 703 994 l 839 994 l 979 553 l 1114 994 l 1246 994 l 1246 441 l 1162 441 l 1162 905 l 1020 441 l 937 441 l 788 912 l 788 441 l 703 441 z "},"´":{"ha":463,"x_min":235,"x_max":517,"o":"m 235 808 l 362 994 l 517 994 l 336 808 l 235 808 z "},"¨":{"ha":463,"x_min":161,"x_max":568,"o":"m 161 832 l 190 971 l 318 971 l 289 832 l 161 832 m 411 832 l 440 971 l 568 971 l 539 832 l 411 832 z "},"≠":{"ha":762,"x_min":84,"x_max":741,"o":"m 367 283 l 235 -19 l 143 -19 l 275 283 l 84 283 l 84 397 l 326 397 l 408 585 l 84 585 l 84 699 l 458 699 l 591 1000 l 682 1000 l 549 699 l 741 699 l 741 585 l 499 585 l 417 397 l 741 397 l 741 283 l 367 283 z "},"Æ":{"ha":1389,"x_min":-56,"x_max":1449,"o":"m -56 0 l 555 994 l 1449 994 l 1426 881 l 913 881 l 848 572 l 1367 572 l 1343 459 l 825 459 l 752 113 l 1325 113 l 1301 0 l 589 0 l 648 283 l 264 283 l 95 0 l -56 0 m 333 396 l 671 396 l 773 881 l 630 881 l 333 396 z "},"Ø":{"ha":1080,"x_min":118,"x_max":1078,"o":"m 231 119 q 127 434 127 243 q 176 682 127 564 q 283 850 217 779 q 427 960 349 921 q 650 1011 531 1011 q 909 932 804 1011 l 1018 1062 l 1078 1008 l 968 876 q 1073 562 1073 757 q 1015 298 1073 422 q 903 137 971 204 q 759 32 836 69 q 543 -17 657 -17 q 292 62 399 -17 l 182 -70 l 118 -16 l 231 119 m 313 217 l 830 837 q 654 901 753 901 q 461 842 554 901 q 313 669 368 783 q 257 426 257 556 q 313 217 257 300 m 886 777 l 370 157 q 553 93 452 93 q 699 129 630 93 q 823 230 768 165 q 909 390 878 295 q 941 576 941 484 q 886 777 941 690 z "},"∞":{"ha":990,"x_min":104,"x_max":888,"o":"m 467 551 q 578 669 538 640 q 693 708 633 708 q 826 656 764 708 q 888 490 888 605 q 865 365 888 410 q 793 291 842 319 q 693 263 745 263 q 578 302 633 263 q 467 420 538 331 q 271 304 375 304 q 154 356 203 304 q 104 486 104 408 q 154 614 104 562 q 271 667 203 667 q 467 551 375 667 m 514 486 q 622 361 573 395 q 692 338 653 338 q 778 376 743 338 q 813 484 813 414 q 778 593 813 555 q 689 631 742 631 q 627 612 656 631 q 514 486 587 586 m 420 486 q 334 573 366 553 q 271 592 301 592 q 206 564 232 592 q 180 488 180 536 q 207 411 180 439 q 273 382 234 382 q 420 486 341 382 z "},"±":{"ha":762,"x_min":84,"x_max":741,"o":"m 355 176 l 355 450 l 84 450 l 84 563 l 355 563 l 355 833 l 470 833 l 470 563 l 741 563 l 741 450 l 470 450 l 470 176 l 355 176 m 741 0 l 84 0 l 84 114 l 741 114 l 741 0 z "},"≤":{"ha":762,"x_min":84,"x_max":743,"o":"m 84 517 l 84 631 l 743 909 l 743 787 l 220 573 l 743 357 l 743 235 l 84 517 m 741 72 l 85 72 l 85 185 l 741 185 l 741 72 z "},"≥":{"ha":762,"x_min":84,"x_max":743,"o":"m 743 517 l 84 235 l 84 357 l 606 573 l 84 787 l 84 909 l 743 631 l 743 517 m 741 72 l 85 72 l 85 185 l 741 185 l 741 72 z "},"¥":{"ha":772,"x_min":51,"x_max":926,"o":"m 282 0 l 328 222 l 51 222 l 71 315 l 348 315 l 369 415 l 92 415 l 111 509 l 344 509 l 159 994 l 282 994 l 361 781 q 422 614 417 627 q 450 524 440 562 q 538 669 478 587 l 774 994 l 926 994 l 560 509 l 787 509 l 767 415 l 492 415 l 471 315 l 746 315 l 726 222 l 451 222 l 405 0 l 282 0 z "},"µ":{"ha":800,"x_min":8,"x_max":794,"o":"m 219 720 l 340 720 l 269 382 q 242 209 242 258 q 278 120 242 155 q 376 86 314 86 q 518 146 460 86 q 591 332 562 193 l 673 720 l 794 720 l 641 0 l 532 0 l 544 57 q 363 -17 452 -17 q 276 3 313 -17 q 202 68 238 24 l 129 -278 l 8 -278 l 219 720 z "},"∂":{"ha":686,"x_min":38,"x_max":660,"o":"m 289 772 l 197 812 q 311 965 245 919 q 441 1011 378 1011 q 535 984 493 1011 q 597 923 576 958 q 645 796 629 869 q 660 628 660 723 q 601 280 660 433 q 443 56 543 128 q 247 -17 343 -17 q 96 45 154 -17 q 38 218 38 106 q 142 481 38 372 q 582 627 275 621 q 566 800 579 741 q 519 892 552 860 q 443 924 487 924 q 361 891 401 924 q 289 772 321 857 m 579 540 q 337 494 414 530 q 210 374 260 457 q 160 205 160 291 q 195 113 160 149 q 275 76 229 76 q 384 113 326 76 q 513 272 463 165 q 579 540 563 380 z "},"∑":{"ha":990,"x_min":83,"x_max":940,"o":"m 94 1011 l 933 1011 l 933 900 l 263 900 l 675 374 l 235 -183 l 940 -183 l 940 -292 l 83 -292 l 83 -165 l 503 369 l 94 892 l 94 1011 z "},"∏":{"ha":1143,"x_min":163,"x_max":1087,"o":"m 163 1011 l 1087 1011 l 1087 -292 l 958 -292 l 958 893 l 294 893 l 294 -292 l 163 -292 l 163 1011 z "},"∫":{"ha":380,"x_min":0,"x_max":380,"o":"m 136 643 l 148 1003 q 182 1175 154 1107 q 232 1241 200 1219 q 295 1263 264 1263 q 354 1241 329 1263 q 380 1191 380 1218 q 362 1140 380 1159 q 317 1120 344 1120 q 266 1145 294 1120 q 239 1158 250 1158 q 219 1148 227 1158 q 212 1115 212 1139 q 218 1017 212 1086 q 243 566 243 739 q 232 167 243 520 q 171 -104 227 -33 q 80 -149 134 -149 q 22 -126 45 -149 q 0 -67 0 -103 q 17 -18 0 -37 q 61 0 35 0 q 108 -22 88 0 q 141 -43 127 -43 q 160 -34 153 -43 q 168 -2 168 -24 q 161 79 168 26 q 136 643 136 293 z "},"ª":{"ha":514,"x_min":113,"x_max":568,"o":"m 423 558 q 353 517 397 535 q 266 499 309 499 q 154 539 195 499 q 113 638 113 579 q 137 720 113 682 q 207 775 160 757 q 345 800 253 794 q 463 814 416 804 q 473 859 473 844 q 448 908 473 888 q 380 929 423 929 q 306 909 340 929 q 255 848 273 888 l 159 863 q 244 972 191 934 q 381 1011 297 1011 q 521 972 473 1011 q 568 876 568 932 q 532 689 568 824 q 512 580 512 617 q 526 513 512 540 l 432 513 q 423 558 427 529 m 444 737 q 333 720 407 726 q 235 693 258 713 q 210 646 210 673 q 231 600 210 618 q 284 581 252 581 q 383 619 340 581 q 444 737 427 657 z "},"º":{"ha":507,"x_min":97,"x_max":572,"o":"m 97 724 q 124 846 97 777 q 213 963 151 915 q 359 1011 275 1011 q 513 952 454 1011 q 572 800 572 892 q 505 599 572 698 q 317 500 437 500 q 195 528 248 500 q 120 603 143 556 q 97 724 97 649 m 197 728 q 218 634 197 664 q 306 589 251 589 q 382 614 343 589 q 446 692 420 639 q 471 800 471 745 q 439 888 471 854 q 359 922 407 922 q 279 893 318 922 q 218 814 240 865 q 197 728 197 764 z "},"Ω":{"ha":1067,"x_min":127,"x_max":1041,"o":"m 377 109 q 265 197 304 154 q 174 350 206 262 q 142 544 142 437 q 196 788 142 677 q 353 960 250 900 q 589 1019 456 1019 q 939 847 817 1019 q 1027 543 1027 721 q 991 341 1027 429 q 895 191 954 254 q 794 109 859 151 l 1041 113 l 1041 0 l 651 0 l 651 120 q 735 173 705 147 q 818 271 784 214 q 869 393 852 328 q 886 527 886 457 q 853 715 886 621 q 751 859 819 810 q 586 909 683 909 q 385 827 456 909 q 286 529 286 713 q 348 276 286 382 q 518 122 410 171 l 518 0 l 127 0 l 127 114 l 377 109 z "},"æ":{"ha":1235,"x_min":59,"x_max":1202,"o":"m 1038 243 l 1162 232 q 1018 46 1103 109 q 821 -16 934 -16 q 674 22 743 -16 q 562 144 606 61 q 436 22 509 60 q 287 -17 363 -17 q 119 41 178 -17 q 59 193 59 98 q 85 299 59 252 q 150 370 111 346 q 254 407 190 394 q 407 424 294 415 q 568 448 519 433 q 583 532 583 497 q 551 612 583 582 q 454 642 518 642 q 327 608 377 642 q 251 506 277 575 l 130 516 q 248 679 165 621 q 457 737 331 737 q 587 712 530 737 q 682 638 643 688 q 918 736 777 736 q 1067 699 1002 736 q 1167 590 1133 661 q 1202 436 1202 519 q 1192 329 1202 395 l 667 329 q 665 288 665 309 q 709 135 665 186 q 823 84 754 84 q 941 123 884 84 q 1038 243 997 162 m 691 423 l 1086 423 q 1087 452 1087 446 q 1067 551 1087 507 q 1008 618 1047 595 q 924 642 969 642 q 787 584 854 642 q 691 423 719 526 m 549 356 q 373 330 477 339 q 269 313 296 323 q 206 271 227 299 q 184 200 184 243 q 219 113 184 146 q 316 79 253 79 q 453 136 397 79 q 549 356 525 211 z "},"ø":{"ha":848,"x_min":104,"x_max":811,"o":"m 673 690 l 749 786 l 811 737 l 732 637 q 795 431 795 558 q 745 205 795 312 q 603 41 696 98 q 408 -16 510 -16 q 242 26 315 -16 l 165 -69 l 104 -22 l 182 75 q 113 282 113 154 q 164 512 113 401 q 305 680 215 624 q 506 736 395 736 q 673 690 601 736 m 606 606 q 501 642 562 642 q 370 597 431 642 q 272 463 308 552 q 236 283 236 373 q 258 171 236 215 l 606 606 m 309 110 q 409 79 353 79 q 504 103 459 79 q 589 177 549 127 q 651 299 628 226 q 674 437 674 373 q 654 541 674 494 l 309 110 z "},"¿":{"ha":848,"x_min":117,"x_max":719,"o":"m 665 720 l 635 581 l 496 581 l 526 720 l 665 720 m 604 471 q 576 361 597 410 q 511 264 555 313 q 390 157 486 235 q 266 32 294 79 q 238 -56 238 -16 q 283 -152 238 -111 q 399 -193 328 -193 q 528 -144 477 -193 q 596 18 579 -96 l 719 -2 q 606 -219 690 -147 q 402 -291 522 -291 q 253 -258 321 -291 q 151 -167 186 -224 q 117 -47 117 -110 q 167 96 117 27 q 334 252 204 148 q 450 363 423 323 q 488 471 477 404 l 604 471 z "},"¡":{"ha":463,"x_min":80,"x_max":424,"o":"m 424 720 l 395 581 l 256 581 l 286 720 l 424 720 m 347 469 l 271 -71 l 229 -274 l 80 -274 l 126 -54 l 270 469 l 347 469 z "},"¬":{"ha":811,"x_min":125,"x_max":781,"o":"m 781 288 l 666 288 l 666 585 l 125 585 l 125 699 l 781 699 l 781 288 z "},"√":{"ha":762,"x_min":57,"x_max":762,"o":"m 712 1267 l 762 1267 l 551 -53 l 214 640 l 80 578 l 57 621 l 261 724 l 536 165 l 712 1267 z "},"ƒ":{"ha":772,"x_min":31,"x_max":736,"o":"m 31 -275 l 55 -170 q 158 -184 123 -184 q 214 -165 195 -184 q 245 -81 234 -146 l 365 625 l 229 625 l 245 720 l 381 720 l 397 810 q 428 922 412 892 q 488 988 449 964 q 590 1012 527 1012 q 736 986 644 1012 l 712 882 q 608 899 642 899 q 551 880 570 899 q 519 790 532 861 l 506 720 l 644 720 l 627 625 l 489 625 l 359 -115 q 300 -254 342 -216 q 183 -292 259 -292 q 31 -275 119 -292 z "},"≈":{"ha":762,"x_min":84,"x_max":778,"o":"m 84 500 l 84 640 q 273 721 156 721 q 358 709 313 721 q 486 662 402 698 q 556 636 532 642 q 603 630 579 630 q 694 656 647 630 q 778 723 741 683 l 778 579 q 690 520 734 538 q 590 502 646 502 q 513 511 549 502 q 395 556 476 520 q 261 593 315 593 q 179 574 218 593 q 84 500 141 555 m 84 255 l 84 394 q 273 475 156 475 q 358 464 313 475 q 486 416 402 452 q 556 391 532 397 q 603 385 579 385 q 694 411 647 385 q 778 477 741 437 l 778 334 q 690 275 734 293 q 590 256 646 256 q 513 266 549 256 q 395 311 476 275 q 261 347 315 347 q 179 329 218 347 q 84 255 141 310 z "},"∆":{"ha":850,"x_min":18,"x_max":831,"o":"m 831 0 l 18 0 l 444 941 l 831 0 m 671 56 l 401 711 l 102 56 l 671 56 z "},"«":{"ha":772,"x_min":109,"x_max":746,"o":"m 237 357 l 345 49 l 253 49 l 109 372 l 381 665 l 478 665 l 237 357 m 505 357 l 611 49 l 512 49 l 378 374 l 641 665 l 746 665 l 505 357 z "},"»":{"ha":772,"x_min":56,"x_max":701,"o":"m 305 353 l 205 665 l 302 665 l 433 337 l 167 49 l 56 49 l 305 353 m 570 348 l 469 665 l 562 665 l 701 336 l 425 49 l 328 49 l 570 348 z "},"…":{"ha":1389,"x_min":199,"x_max":1295,"o":"m 199 0 l 229 139 l 368 139 l 338 0 l 199 0 m 663 0 l 692 139 l 831 139 l 802 0 l 663 0 m 1128 0 l 1157 139 l 1295 139 l 1266 0 l 1128 0 z "},"À":{"ha":926,"x_min":-28,"x_max":857,"o":"m -28 0 l 536 994 l 692 994 l 857 0 l 728 0 l 680 286 l 277 286 l 118 0 l -28 0 m 334 389 l 663 389 l 625 638 q 597 886 602 787 q 498 683 563 800 l 334 389 m 671 1056 l 539 1242 l 688 1242 l 767 1056 l 671 1056 z "},"Ã":{"ha":926,"x_min":-28,"x_max":857,"o":"m -28 0 l 536 994 l 692 994 l 857 0 l 728 0 l 680 286 l 277 286 l 118 0 l -28 0 m 334 389 l 663 389 l 625 638 q 597 886 602 787 q 498 683 563 800 l 334 389 m 393 1053 q 448 1174 415 1143 q 530 1205 481 1205 q 574 1200 553 1205 q 648 1171 595 1194 q 721 1147 701 1147 q 749 1159 736 1147 q 769 1201 761 1170 l 851 1201 q 806 1092 844 1131 q 718 1053 768 1053 q 649 1070 690 1053 q 534 1111 555 1111 q 498 1097 512 1111 q 477 1053 484 1083 l 393 1053 z "},"Õ":{"ha":1080,"x_min":127,"x_max":1073,"o":"m 127 416 q 280 847 127 682 q 653 1011 434 1011 q 956 890 839 1011 q 1073 566 1073 769 q 1014 296 1073 420 q 903 136 970 203 q 759 32 836 68 q 543 -17 657 -17 q 326 40 424 -17 q 177 199 228 97 q 127 416 127 301 m 258 410 q 294 249 258 322 q 402 134 330 176 q 553 93 474 93 q 699 129 630 93 q 823 230 768 165 q 909 390 878 295 q 941 576 941 484 q 858 812 941 724 q 652 901 774 901 q 377 767 496 901 q 258 410 258 634 m 433 1053 q 489 1174 456 1143 q 571 1205 522 1205 q 615 1200 593 1205 q 689 1171 636 1194 q 762 1147 742 1147 q 789 1159 777 1147 q 810 1201 802 1170 l 892 1201 q 847 1092 885 1131 q 758 1053 808 1053 q 690 1070 731 1053 q 574 1111 596 1111 q 538 1097 553 1111 q 518 1053 524 1083 l 433 1053 z "},"Œ":{"ha":1389,"x_min":111,"x_max":1450,"o":"m 694 73 q 592 5 645 27 q 465 -18 538 -18 q 209 90 307 -18 q 111 401 111 197 q 181 719 111 574 q 366 938 250 864 q 606 1011 481 1011 q 748 977 682 1011 q 862 876 814 942 l 886 994 l 1450 994 l 1427 881 l 996 881 l 930 567 l 1365 567 l 1341 454 l 907 454 l 835 113 l 1316 113 l 1293 0 l 678 0 l 694 73 m 242 417 q 268 227 242 290 q 350 129 294 164 q 475 93 407 93 q 649 164 572 93 q 764 398 726 235 q 812 681 812 602 q 749 838 812 775 q 596 901 687 901 q 498 881 544 901 q 412 824 452 861 q 340 741 372 788 q 275 604 299 680 q 242 417 242 502 z "},"œ":{"ha":1311,"x_min":87,"x_max":1276,"o":"m 654 124 q 527 19 595 55 q 371 -16 458 -16 q 164 62 241 -16 q 87 284 87 141 q 137 514 87 408 q 274 679 186 621 q 469 736 361 736 q 617 701 551 736 q 720 601 683 666 q 830 694 784 669 q 995 736 905 736 q 1198 655 1119 736 q 1276 439 1276 574 q 1264 328 1276 382 l 743 328 q 741 282 741 304 q 781 145 741 206 q 901 84 821 84 q 1018 129 961 84 q 1107 244 1075 173 l 1234 233 q 1093 51 1184 118 q 898 -16 1001 -16 q 755 18 819 -16 q 654 124 692 52 m 208 290 q 253 130 208 181 q 372 79 298 79 q 502 127 438 79 q 600 271 565 175 q 635 449 635 366 q 594 583 635 524 q 469 642 553 642 q 363 613 413 642 q 277 529 313 584 q 224 401 240 475 q 208 290 208 328 m 763 422 l 1157 422 q 1159 455 1159 444 q 1114 594 1159 546 q 996 642 1069 642 q 865 589 929 642 q 763 422 801 535 z "},"–":{"ha":772,"x_min":-3,"x_max":770,"o":"m -3 311 l -3 409 l 770 409 l 770 311 l -3 311 z "},"—":{"ha":1389,"x_min":0,"x_max":1389,"o":"m 0 311 l 0 409 l 1389 409 l 1389 311 l 0 311 z "},"“":{"ha":463,"x_min":146,"x_max":574,"o":"m 532 810 l 503 671 l 363 671 l 389 793 q 459 953 411 902 q 574 1011 508 1004 l 563 958 q 456 810 484 936 l 532 810 m 315 810 l 286 671 l 146 671 l 172 793 q 243 953 195 902 q 357 1011 292 1004 l 347 958 q 239 810 267 936 l 315 810 z "},"”":{"ha":463,"x_min":145,"x_max":580,"o":"m 187 851 l 216 990 l 356 990 l 331 868 q 259 708 308 759 q 145 650 211 658 l 157 703 q 263 851 237 726 l 187 851 m 411 851 l 440 990 l 580 990 l 554 868 q 483 708 532 759 q 369 650 435 658 l 380 703 q 487 851 460 726 l 411 851 z "},"‘":{"ha":309,"x_min":179,"x_max":390,"o":"m 348 810 l 319 671 l 179 671 l 205 793 q 276 953 227 902 q 390 1011 324 1004 l 379 958 q 272 810 300 936 l 348 810 z "},"’":{"ha":309,"x_min":174,"x_max":385,"o":"m 216 851 l 245 990 l 385 990 l 359 868 q 288 708 336 759 q 174 650 239 658 l 185 703 q 292 851 265 726 l 216 851 z "},"÷":{"ha":762,"x_min":87,"x_max":743,"o":"m 345 625 l 345 764 l 484 764 l 484 625 l 345 625 m 743 433 l 87 433 l 87 547 l 743 547 l 743 433 m 345 216 l 345 355 l 484 355 l 484 216 l 345 216 z "},"◊":{"ha":686,"x_min":81,"x_max":705,"o":"m 422 964 l 705 481 l 422 0 l 347 0 l 81 481 l 347 964 l 422 964 m 385 899 l 155 481 l 385 64 l 629 481 l 385 899 z "},"ÿ":{"ha":694,"x_min":0,"x_max":779,"o":"m 0 -278 l 7 -163 q 81 -174 45 -174 q 142 -157 119 -174 q 207 -73 172 -134 l 246 -2 l 126 720 l 247 720 l 301 356 q 329 140 317 248 l 651 720 l 779 720 l 320 -96 q 202 -254 254 -215 q 83 -292 151 -292 q 0 -278 41 -292 m 277 832 l 306 971 l 434 971 l 405 832 l 277 832 m 527 832 l 556 971 l 684 971 l 655 832 l 527 832 z "},"Ÿ":{"ha":926,"x_min":162,"x_max":1074,"o":"m 388 0 l 468 385 l 162 994 l 304 994 l 451 704 q 545 500 499 609 q 682 702 595 593 l 915 994 l 1074 994 l 599 374 l 521 0 l 388 0 m 432 1053 l 461 1192 l 589 1192 l 560 1053 l 432 1053 m 682 1053 l 711 1192 l 839 1192 l 810 1053 l 682 1053 z "},"⁄":{"ha":232,"x_min":-363,"x_max":702,"o":"m -363 -41 l 583 1011 l 702 1011 l -254 -41 l -363 -41 z "},"€":{"ha":772,"x_min":55,"x_max":896,"o":"m 519 -17 q 239 85 342 -17 q 127 363 139 184 l 55 363 l 74 454 l 127 454 q 137 543 130 500 l 55 543 l 74 634 l 159 634 q 288 854 199 758 q 645 1011 431 1011 q 896 931 798 1011 l 840 816 q 651 901 777 901 q 356 739 469 901 q 300 634 321 689 l 726 634 l 707 543 l 272 543 q 260 454 263 500 l 688 454 l 669 363 l 260 363 q 338 169 270 240 q 530 93 409 93 q 716 160 635 93 l 686 15 q 519 -17 608 -17 z "},"‹":{"ha":463,"x_min":66,"x_max":436,"o":"m 190 357 l 298 49 l 206 49 l 66 372 l 335 665 l 436 665 l 190 357 z "},"›":{"ha":463,"x_min":22,"x_max":400,"o":"m 268 355 l 166 665 l 264 665 l 400 340 l 128 49 l 22 49 l 268 355 z "},"ﬁ":{"ha":694,"x_min":75,"x_max":757,"o":"m 75 0 l 206 625 l 96 625 l 115 720 l 226 720 l 247 822 q 276 925 263 899 q 334 988 295 964 q 444 1011 373 1011 q 578 991 509 1011 l 555 884 q 448 905 490 905 q 407 894 424 905 q 380 861 391 883 q 363 792 376 848 l 349 720 l 487 720 l 467 625 l 329 625 l 198 0 l 75 0 m 604 850 l 634 994 l 757 994 l 727 850 l 604 850 m 427 0 l 577 720 l 700 720 l 549 0 l 427 0 z "},"ﬂ":{"ha":694,"x_min":75,"x_max":757,"o":"m 75 0 l 206 625 l 96 625 l 115 720 l 226 720 l 247 822 q 276 925 263 899 q 334 988 295 964 q 444 1011 373 1011 q 578 991 509 1011 l 555 884 q 448 905 490 905 q 407 894 424 905 q 380 861 391 883 q 363 792 376 848 l 349 720 l 485 720 l 465 625 l 329 625 l 198 0 l 75 0 m 427 0 l 634 994 l 757 994 l 549 0 l 427 0 z "},"‡":{"ha":772,"x_min":7,"x_max":817,"o":"m 226 -237 l 279 16 l 7 16 l 30 123 l 300 123 l 404 619 l 134 619 l 156 726 l 427 726 l 480 981 l 603 981 l 549 726 l 817 726 l 795 619 l 527 619 l 423 123 l 691 123 l 669 16 l 401 16 l 349 -237 l 226 -237 z "},"∙":{"ha":386,"x_min":125,"x_max":264,"o":"m 125 420 l 125 559 l 264 559 l 264 420 l 125 420 z "},"‚":{"ha":309,"x_min":-10,"x_max":201,"o":"m 32 0 l 61 139 l 201 139 l 176 18 q 104 -142 153 -92 q -10 -201 56 -193 l 1 -147 q 108 0 82 -125 l 32 0 z "},"„":{"ha":463,"x_min":-27,"x_max":405,"o":"m 15 0 l 44 139 l 184 139 l 159 18 q 87 -142 136 -92 q -27 -201 39 -193 l -16 -147 q 91 0 65 -125 l 15 0 m 236 0 l 265 139 l 405 139 l 380 18 q 308 -142 357 -92 q 194 -201 260 -193 l 205 -147 q 312 0 286 -125 l 236 0 z "},"‰":{"ha":1389,"x_min":92,"x_max":1394,"o":"m 92 676 q 123 838 92 751 q 208 968 154 924 q 337 1011 261 1011 q 463 964 417 1011 q 508 833 508 917 q 477 666 508 757 q 390 531 446 574 q 264 487 335 487 q 138 535 184 487 q 92 676 92 583 m 191 674 q 210 592 191 615 q 264 569 230 569 q 362 648 326 569 q 407 838 407 746 q 387 907 407 884 q 334 930 366 930 q 266 899 298 930 q 212 793 234 868 q 191 674 191 719 m 136 -37 l 781 1011 l 884 1011 l 238 -37 l 136 -37 m 512 153 q 543 314 512 227 q 627 444 574 401 q 757 488 681 488 q 882 440 837 488 q 928 309 928 393 q 897 142 928 233 q 810 7 865 51 q 684 -37 755 -37 q 558 11 604 -37 q 512 153 512 58 m 610 151 q 630 68 610 92 q 684 45 650 45 q 782 124 746 45 q 827 314 827 222 q 806 383 827 361 q 753 406 786 406 q 686 375 718 406 q 632 270 654 345 q 610 151 610 195 m 978 153 q 1009 314 978 227 q 1093 444 1040 401 q 1223 488 1147 488 q 1348 440 1303 488 q 1394 309 1394 393 q 1362 141 1394 233 q 1276 6 1331 50 q 1150 -37 1221 -37 q 1024 11 1069 -37 q 978 153 978 58 m 1076 151 q 1096 68 1076 92 q 1150 45 1116 45 q 1248 124 1213 45 q 1293 314 1293 222 q 1273 383 1293 361 q 1219 406 1253 406 q 1152 375 1184 406 q 1098 270 1120 345 q 1076 151 1076 195 z "},"Â":{"ha":926,"x_min":-28,"x_max":857,"o":"m -28 0 l 536 994 l 692 994 l 857 0 l 728 0 l 680 286 l 277 286 l 118 0 l -28 0 m 334 389 l 663 389 l 625 638 q 597 886 602 787 q 498 683 563 800 l 334 389 m 404 1055 l 583 1242 l 719 1242 l 803 1055 l 696 1055 l 642 1176 l 530 1055 l 404 1055 z "},"Ê":{"ha":926,"x_min":62,"x_max":988,"o":"m 62 0 l 271 994 l 988 994 l 964 881 l 380 881 l 315 572 l 884 572 l 861 458 l 291 458 l 219 113 l 845 113 l 821 0 l 62 0 m 416 1055 l 595 1242 l 731 1242 l 815 1055 l 708 1055 l 654 1176 l 542 1055 l 416 1055 z "},"Á":{"ha":926,"x_min":-28,"x_max":857,"o":"m -28 0 l 536 994 l 692 994 l 857 0 l 728 0 l 680 286 l 277 286 l 118 0 l -28 0 m 334 389 l 663 389 l 625 638 q 597 886 602 787 q 498 683 563 800 l 334 389 m 533 1055 l 661 1242 l 815 1242 l 635 1055 l 533 1055 z "},"Ë":{"ha":926,"x_min":62,"x_max":988,"o":"m 62 0 l 271 994 l 988 994 l 964 881 l 380 881 l 315 572 l 884 572 l 861 458 l 291 458 l 219 113 l 845 113 l 821 0 l 62 0 m 445 1053 l 474 1192 l 602 1192 l 573 1053 l 445 1053 m 695 1053 l 724 1192 l 852 1192 l 823 1053 l 695 1053 z "},"È":{"ha":926,"x_min":62,"x_max":988,"o":"m 62 0 l 271 994 l 988 994 l 964 881 l 380 881 l 315 572 l 884 572 l 861 458 l 291 458 l 219 113 l 845 113 l 821 0 l 62 0 m 697 1056 l 565 1242 l 714 1242 l 793 1056 l 697 1056 z "},"Í":{"ha":386,"x_min":79,"x_max":541,"o":"m 79 0 l 288 994 l 420 994 l 212 0 l 79 0 m 258 1055 l 386 1242 l 541 1242 l 360 1055 l 258 1055 z "},"Î":{"ha":386,"x_min":79,"x_max":566,"o":"m 79 0 l 288 994 l 420 994 l 212 0 l 79 0 m 166 1055 l 346 1242 l 481 1242 l 566 1055 l 458 1055 l 404 1176 l 292 1055 l 166 1055 z "},"Ï":{"ha":386,"x_min":79,"x_max":574,"o":"m 79 0 l 288 994 l 420 994 l 212 0 l 79 0 m 168 1055 l 197 1194 l 325 1194 l 296 1055 l 168 1055 m 418 1055 l 447 1194 l 574 1194 l 546 1055 l 418 1055 z "},"Ì":{"ha":386,"x_min":79,"x_max":473,"o":"m 79 0 l 288 994 l 420 994 l 212 0 l 79 0 m 377 1056 l 245 1242 l 394 1242 l 473 1056 l 377 1056 z "},"Ó":{"ha":1080,"x_min":127,"x_max":1073,"o":"m 127 416 q 280 847 127 682 q 653 1011 434 1011 q 956 890 839 1011 q 1073 566 1073 769 q 1014 296 1073 420 q 903 136 970 203 q 759 32 836 68 q 543 -17 657 -17 q 326 40 424 -17 q 177 199 228 97 q 127 416 127 301 m 258 410 q 294 249 258 322 q 402 134 330 176 q 553 93 474 93 q 699 129 630 93 q 823 230 768 165 q 909 390 878 295 q 941 576 941 484 q 858 812 941 724 q 652 901 774 901 q 377 767 496 901 q 258 410 258 634 m 557 1055 l 684 1242 l 839 1242 l 659 1055 l 557 1055 z "},"Ô":{"ha":1080,"x_min":127,"x_max":1073,"o":"m 127 416 q 280 847 127 682 q 653 1011 434 1011 q 956 890 839 1011 q 1073 566 1073 769 q 1014 296 1073 420 q 903 136 970 203 q 759 32 836 68 q 543 -17 657 -17 q 326 40 424 -17 q 177 199 228 97 q 127 416 127 301 m 258 410 q 294 249 258 322 q 402 134 330 176 q 553 93 474 93 q 699 129 630 93 q 823 230 768 165 q 909 390 878 295 q 941 576 941 484 q 858 812 941 724 q 652 901 774 901 q 377 767 496 901 q 258 410 258 634 m 451 1055 l 631 1242 l 766 1242 l 850 1055 l 743 1055 l 689 1176 l 577 1055 l 451 1055 z "},"Ò":{"ha":1080,"x_min":127,"x_max":1073,"o":"m 127 416 q 280 847 127 682 q 653 1011 434 1011 q 956 890 839 1011 q 1073 566 1073 769 q 1014 296 1073 420 q 903 136 970 203 q 759 32 836 68 q 543 -17 657 -17 q 326 40 424 -17 q 177 199 228 97 q 127 416 127 301 m 258 410 q 294 249 258 322 q 402 134 330 176 q 553 93 474 93 q 699 129 630 93 q 823 230 768 165 q 909 390 878 295 q 941 576 941 484 q 858 812 941 724 q 652 901 774 901 q 377 767 496 901 q 258 410 258 634 m 708 1056 l 576 1242 l 725 1242 l 804 1056 l 708 1056 z "},"Ú":{"ha":1003,"x_min":134,"x_max":1048,"o":"m 275 994 l 408 994 l 281 383 q 265 271 265 307 q 328 142 265 191 q 487 93 391 93 q 628 128 563 93 q 732 231 694 163 q 800 447 770 298 l 915 994 l 1048 994 l 926 411 q 844 175 895 262 q 703 35 793 87 q 494 -18 613 -18 q 299 20 381 -18 q 175 123 216 57 q 134 272 134 189 q 162 452 134 324 l 275 994 m 544 1055 l 671 1242 l 826 1242 l 646 1055 l 544 1055 z "},"Û":{"ha":1003,"x_min":134,"x_max":1048,"o":"m 275 994 l 408 994 l 281 383 q 265 271 265 307 q 328 142 265 191 q 487 93 391 93 q 628 128 563 93 q 732 231 694 163 q 800 447 770 298 l 915 994 l 1048 994 l 926 411 q 844 175 895 262 q 703 35 793 87 q 494 -18 613 -18 q 299 20 381 -18 q 175 123 216 57 q 134 272 134 189 q 162 452 134 324 l 275 994 m 457 1055 l 637 1242 l 772 1242 l 857 1055 l 749 1055 l 695 1176 l 583 1055 l 457 1055 z "},"Ù":{"ha":1003,"x_min":134,"x_max":1048,"o":"m 275 994 l 408 994 l 281 383 q 265 271 265 307 q 328 142 265 191 q 487 93 391 93 q 628 128 563 93 q 732 231 694 163 q 800 447 770 298 l 915 994 l 1048 994 l 926 411 q 844 175 895 262 q 703 35 793 87 q 494 -18 613 -18 q 299 20 381 -18 q 175 123 216 57 q 134 272 134 189 q 162 452 134 324 l 275 994 m 684 1056 l 552 1242 l 701 1242 l 780 1056 l 684 1056 z "},"ı":{"ha":386,"x_min":85,"x_max":358,"o":"m 85 0 l 235 720 l 358 720 l 208 0 l 85 0 z "},"ˆ":{"ha":463,"x_min":139,"x_max":538,"o":"m 139 808 l 319 994 l 454 994 l 538 808 l 431 808 l 377 928 l 265 808 l 139 808 z "},"˜":{"ha":463,"x_min":130,"x_max":589,"o":"m 130 829 q 185 950 153 919 q 268 981 218 981 q 312 975 290 981 q 386 946 333 970 q 458 923 439 923 q 486 934 474 923 q 507 977 498 945 l 589 977 q 544 867 582 907 q 455 828 505 828 q 387 846 428 828 q 271 886 293 886 q 235 872 250 886 q 215 829 221 859 l 130 829 z "},"ˉ":{"ha":463,"x_min":136,"x_max":577,"o":"m 136 833 l 156 928 l 577 928 l 557 833 l 136 833 z "},"˘":{"ha":463,"x_min":149,"x_max":555,"o":"m 149 964 l 229 964 q 262 892 236 915 q 334 869 288 869 q 419 895 383 869 q 473 964 454 920 l 555 964 q 471 836 532 883 q 330 788 410 788 q 202 836 252 788 q 149 964 153 884 z "},"˙":{"ha":463,"x_min":270,"x_max":453,"o":"m 270 820 l 302 971 l 453 971 l 420 820 l 270 820 z "},"˚":{"ha":463,"x_min":222,"x_max":469,"o":"m 222 895 q 259 983 222 947 q 346 1019 295 1019 q 433 982 397 1019 q 469 895 469 946 q 433 808 469 844 q 346 772 397 772 q 259 808 295 772 q 222 895 222 844 m 273 895 q 295 843 273 865 q 346 822 316 822 q 398 843 376 822 q 419 895 419 865 q 398 946 419 925 q 346 968 376 968 q 295 946 316 968 q 273 895 273 925 z "},"¸":{"ha":463,"x_min":52,"x_max":399,"o":"m 171 -101 l 199 8 l 294 8 l 277 -53 q 368 -94 337 -61 q 399 -168 399 -127 q 358 -246 399 -217 q 168 -288 298 -288 q 52 -280 102 -288 l 67 -204 q 166 -206 109 -206 q 259 -191 236 -206 q 281 -158 281 -176 q 262 -122 281 -136 q 171 -101 233 -102 z "},"˝":{"ha":463,"x_min":119,"x_max":630,"o":"m 119 808 l 245 994 l 402 994 l 220 808 l 119 808 m 348 808 l 472 994 l 630 994 l 445 808 l 348 808 z "},"˛":{"ha":463,"x_min":43,"x_max":273,"o":"m 273 -181 l 255 -268 q 157 -292 201 -292 q 62 -254 91 -292 q 43 -196 43 -231 q 90 -79 43 -139 q 176 0 123 -37 l 265 0 q 156 -130 173 -50 q 154 -149 154 -139 q 208 -197 154 -197 q 273 -181 240 -197 z "},"ˇ":{"ha":463,"x_min":179,"x_max":578,"o":"m 578 994 l 398 808 l 262 808 l 179 994 l 286 994 l 338 873 l 450 994 l 578 994 z "},"Ł":{"ha":772,"x_min":16,"x_max":728,"o":"m 143 408 l 16 338 l 40 452 l 167 523 l 265 994 l 398 994 l 317 606 l 582 753 l 558 640 l 294 492 l 214 113 l 728 113 l 704 0 l 58 0 l 143 408 z "},"ł":{"ha":309,"x_min":26,"x_max":396,"o":"m 129 422 l 26 368 l 48 473 l 151 528 l 248 994 l 371 994 l 289 601 l 396 658 l 374 553 l 267 496 l 163 0 l 41 0 l 129 422 z "},"Š":{"ha":926,"x_min":98,"x_max":932,"o":"m 98 321 l 228 334 l 227 299 q 253 194 227 241 q 340 120 279 146 q 486 94 401 94 q 668 146 605 94 q 730 265 730 198 q 697 351 730 312 q 512 454 663 389 q 352 532 395 505 q 253 628 285 576 q 221 746 221 680 q 263 884 221 823 q 386 979 305 946 q 569 1011 467 1011 q 774 970 690 1011 q 895 862 857 930 q 932 732 932 794 q 932 712 932 726 l 804 702 q 796 768 804 744 q 754 838 783 809 q 676 883 726 866 q 564 901 626 901 q 395 852 456 901 q 349 753 349 814 q 368 687 349 716 q 437 631 387 659 q 604 553 472 611 q 752 478 711 505 q 836 391 806 442 q 865 275 865 340 q 815 126 865 194 q 680 20 766 58 q 481 -17 593 -17 q 205 57 312 -17 q 98 321 98 130 m 831 1242 l 651 1055 l 515 1055 l 432 1242 l 539 1242 l 591 1121 l 703 1242 l 831 1242 z "},"š":{"ha":694,"x_min":53,"x_max":700,"o":"m 58 246 l 180 254 q 197 163 180 201 q 257 102 213 126 q 359 79 300 79 q 481 111 440 79 q 522 188 522 144 q 497 248 522 220 q 375 318 472 277 q 250 377 277 360 q 182 443 205 405 q 159 529 159 480 q 227 675 159 614 q 416 736 294 736 q 623 674 552 736 q 696 509 694 611 l 576 500 q 530 604 574 566 q 408 642 487 642 q 309 612 344 642 q 273 549 273 583 q 304 490 273 515 q 409 435 324 472 q 587 339 550 374 q 645 202 645 283 q 612 97 645 149 q 512 15 579 45 q 353 -16 444 -16 q 140 45 228 -16 q 58 246 53 107 m 700 994 l 520 808 l 385 808 l 301 994 l 408 994 l 460 873 l 572 994 l 700 994 z "},"Ž":{"ha":848,"x_min":34,"x_max":884,"o":"m 34 0 l 47 100 l 545 694 l 648 819 q 708 889 679 857 q 620 882 645 882 l 587 882 l 548 882 l 509 881 l 175 881 l 199 994 l 884 994 l 873 890 l 339 256 q 214 109 241 139 q 253 113 244 113 l 795 113 l 771 0 l 34 0 m 760 1242 l 581 1055 l 445 1055 l 361 1242 l 469 1242 l 520 1121 l 633 1242 l 760 1242 z "},"ž":{"ha":694,"x_min":27,"x_max":711,"o":"m 27 0 l 47 95 l 434 531 q 526 627 475 577 q 401 618 439 618 l 133 618 l 155 720 l 711 720 l 695 643 l 304 204 q 205 102 271 167 q 346 108 308 108 l 629 108 l 607 0 l 27 0 m 675 994 l 496 808 l 360 808 l 277 994 l 384 994 l 435 873 l 548 994 l 675 994 z "},"¦":{"ha":361,"x_min":127,"x_max":234,"o":"m 234 1011 l 234 475 l 127 475 l 127 1011 l 234 1011 m 234 244 l 234 -292 l 127 -292 l 127 244 l 234 244 z "},"Ð":{"ha":1003,"x_min":62,"x_max":1000,"o":"m 73 0 l 169 452 l 62 452 l 81 543 l 189 543 l 284 994 l 581 994 q 712 987 674 994 q 825 947 772 977 q 920 864 879 918 q 981 739 961 810 q 1000 588 1000 668 q 964 369 1000 468 q 869 195 927 271 q 746 78 810 120 q 595 16 682 36 q 431 0 528 0 l 73 0 m 230 113 l 387 113 q 576 132 493 113 q 664 168 627 144 q 752 249 712 199 q 834 400 804 315 q 865 594 865 486 q 823 780 865 715 q 716 865 781 844 q 566 881 667 881 l 393 881 l 321 543 l 595 543 l 576 452 l 302 452 l 230 113 z "},"ð":{"ha":772,"x_min":68,"x_max":758,"o":"m 425 994 l 552 994 q 602 943 577 970 l 722 994 l 753 928 l 648 880 q 731 694 704 788 q 758 478 758 601 q 702 215 758 336 q 561 38 645 94 q 363 -17 477 -17 q 148 63 229 -17 q 68 278 68 144 q 119 503 68 395 q 257 666 171 611 q 425 720 342 720 q 537 699 486 720 q 624 641 576 683 q 552 835 606 738 l 397 767 l 365 835 l 507 899 q 425 994 460 960 m 627 429 q 579 572 627 521 q 452 623 530 623 q 328 583 386 623 q 231 458 269 544 q 193 282 193 373 q 240 133 193 183 q 366 82 287 82 q 504 136 441 82 q 597 277 568 189 q 627 429 627 364 z "},"Ý":{"ha":926,"x_min":162,"x_max":1074,"o":"m 388 0 l 468 385 l 162 994 l 304 994 l 451 704 q 545 500 499 609 q 682 702 595 593 l 915 994 l 1074 994 l 599 374 l 521 0 l 388 0 m 513 1055 l 640 1242 l 795 1242 l 614 1055 l 513 1055 z "},"ý":{"ha":694,"x_min":0,"x_max":779,"o":"m 0 -278 l 7 -163 q 81 -174 45 -174 q 142 -157 119 -174 q 207 -73 172 -134 l 246 -2 l 126 720 l 247 720 l 301 356 q 329 140 317 248 l 651 720 l 779 720 l 320 -96 q 202 -254 254 -215 q 83 -292 151 -292 q 0 -278 41 -292 m 355 808 l 482 994 l 637 994 l 456 808 l 355 808 z "},"Þ":{"ha":926,"x_min":60,"x_max":926,"o":"m 60 0 l 271 994 l 404 994 l 361 793 l 640 793 q 802 768 748 793 q 891 683 856 743 q 926 549 926 623 q 901 424 926 488 q 838 318 876 359 q 760 256 800 277 q 675 224 720 235 q 483 202 580 202 l 235 202 l 193 0 l 60 0 m 260 315 l 477 315 q 664 342 604 315 q 760 426 724 370 q 795 545 795 482 q 776 625 795 595 q 723 670 757 656 q 590 685 688 685 l 338 685 l 260 315 z "},"þ":{"ha":772,"x_min":-14,"x_max":743,"o":"m -14 -276 l 252 994 l 375 994 l 299 634 q 404 713 355 690 q 504 736 452 736 q 675 662 608 736 q 743 447 743 587 q 706 242 743 334 q 614 93 669 149 q 505 10 560 37 q 391 -16 449 -16 q 190 115 261 -16 l 109 -276 l -14 -276 m 229 294 q 240 182 229 214 q 296 111 257 138 q 385 84 334 84 q 556 203 491 84 q 621 446 621 322 q 577 588 621 538 q 469 637 534 637 q 382 613 422 637 q 308 539 342 588 q 251 418 273 490 q 229 294 229 347 z "},"−":{"ha":811,"x_min":125,"x_max":781,"o":"m 781 433 l 125 433 l 125 547 l 781 547 l 781 433 z "},"×":{"ha":811,"x_min":177,"x_max":768,"o":"m 177 277 l 391 491 l 178 704 l 260 787 l 473 574 l 686 786 l 767 704 l 555 492 l 768 279 l 686 196 l 473 409 l 259 195 l 177 277 z "},"¹":{"ha":463,"x_min":189,"x_max":492,"o":"m 284 497 l 359 858 q 189 789 290 809 l 208 875 q 321 927 259 890 q 416 1006 382 964 l 492 1006 l 386 497 l 284 497 z "},"²":{"ha":463,"x_min":103,"x_max":557,"o":"m 103 497 q 176 626 124 568 q 346 752 227 685 q 431 808 414 791 q 454 861 454 833 q 433 906 454 887 q 370 924 412 924 q 295 905 321 924 q 256 847 269 886 l 152 857 q 226 968 172 930 q 369 1006 279 1006 q 510 965 463 1006 q 557 864 557 924 q 516 763 557 809 q 385 669 486 730 q 301 615 324 633 q 264 579 279 597 l 522 579 l 505 497 l 103 497 z "},"³":{"ha":463,"x_min":115,"x_max":555,"o":"m 115 631 l 212 642 q 255 585 227 603 q 322 566 283 566 q 398 591 372 566 q 425 651 425 615 q 403 701 425 682 q 330 720 381 720 l 302 720 l 318 793 l 340 792 q 418 812 385 792 q 452 869 452 831 q 431 915 452 896 q 369 933 409 933 q 306 917 330 933 q 267 864 281 900 l 167 877 q 235 971 184 935 q 368 1006 286 1006 q 509 967 462 1006 q 555 873 555 928 q 528 799 555 831 q 441 753 501 768 q 512 705 492 733 q 532 640 532 677 q 476 532 532 580 q 326 485 421 485 q 187 526 243 485 q 115 631 132 566 z "},"½":{"ha":1158,"x_min":83,"x_max":1149,"o":"m 83 -41 l 1030 1011 l 1149 1011 l 193 -41 l 83 -41 m 284 497 l 359 858 q 189 789 290 809 l 208 875 q 321 927 259 890 q 416 1006 382 964 l 492 1006 l 386 497 l 284 497 m 692 -24 q 764 105 713 47 q 935 231 816 164 q 1019 287 1003 270 q 1043 340 1043 312 q 1021 385 1043 366 q 959 404 1000 404 q 883 385 910 404 q 844 326 857 366 l 741 336 q 814 447 761 409 q 958 486 867 486 q 1098 445 1051 486 q 1145 343 1145 404 q 1104 242 1145 288 q 972 148 1074 209 q 890 94 913 112 q 853 58 867 77 l 1110 58 l 1093 -24 l 692 -24 z "},"¼":{"ha":1158,"x_min":116,"x_max":1181,"o":"m 116 -41 l 1063 1011 l 1181 1011 l 226 -41 l 116 -41 m 284 497 l 359 858 q 189 789 290 809 l 208 875 q 321 927 259 890 q 416 1006 382 964 l 492 1006 l 386 497 l 284 497 m 923 -24 l 945 79 l 682 79 l 699 161 l 1046 486 l 1126 486 l 1059 157 l 1126 157 l 1109 79 l 1041 79 l 1020 -24 l 923 -24 m 962 157 l 1005 337 l 812 157 l 962 157 z "},"¾":{"ha":1158,"x_min":115,"x_max":1202,"o":"m 136 -41 l 1083 1011 l 1202 1011 l 246 -41 l 136 -41 m 115 631 l 212 642 q 255 585 227 603 q 322 566 283 566 q 398 591 372 566 q 425 651 425 615 q 403 701 425 682 q 330 720 381 720 l 302 720 l 318 793 l 340 792 q 418 812 385 792 q 452 869 452 831 q 431 915 452 896 q 369 933 409 933 q 306 917 330 933 q 267 864 281 900 l 167 877 q 235 971 184 935 q 368 1006 286 1006 q 509 967 462 1006 q 555 873 555 928 q 528 799 555 831 q 441 753 501 768 q 512 705 492 733 q 532 640 532 677 q 476 532 532 580 q 326 485 421 485 q 187 526 243 485 q 115 631 132 566 m 923 -24 l 945 79 l 682 79 l 699 161 l 1046 486 l 1126 486 l 1059 157 l 1126 157 l 1109 79 l 1041 79 l 1020 -24 l 923 -24 m 962 157 l 1005 337 l 812 157 l 962 157 z "},"₣":{"ha":772,"x_min":-16,"x_max":836,"o":"m 98 166 l -16 166 l 7 279 l 122 279 l 271 994 l 836 994 l 812 881 l 380 881 l 315 564 l 756 564 l 732 451 l 291 451 l 255 279 l 481 279 l 458 166 l 231 166 l 197 0 l 64 0 l 98 166 z "},"Ğ":{"ha":1080,"x_min":135,"x_max":1064,"o":"m 569 392 l 593 505 l 1028 505 l 943 100 q 756 16 861 48 q 549 -17 651 -17 q 225 114 332 -17 q 135 398 135 224 q 214 724 135 577 q 413 941 293 871 q 681 1011 534 1011 q 871 973 787 1011 q 1000 870 955 935 q 1064 703 1044 806 l 934 689 q 847 846 913 791 q 677 901 781 901 q 475 842 569 901 q 326 665 382 783 q 270 396 270 547 q 344 170 270 246 q 548 93 418 93 q 827 178 677 93 l 871 392 l 569 392 m 541 1231 l 621 1231 q 654 1159 628 1181 q 726 1136 680 1136 q 811 1161 775 1136 q 865 1231 846 1186 l 947 1231 q 863 1102 924 1149 q 722 1055 802 1055 q 594 1102 644 1055 q 541 1231 545 1150 z "},"ğ":{"ha":772,"x_min":36,"x_max":784,"o":"m 39 -65 l 163 -77 q 174 -140 162 -119 q 210 -172 185 -161 q 296 -187 243 -187 q 456 -130 408 -187 q 515 39 488 -91 l 528 97 q 324 0 432 0 q 141 80 215 0 q 68 308 68 161 q 126 531 68 429 q 264 685 184 633 q 429 736 344 736 q 647 602 570 736 l 671 720 l 784 720 l 639 25 q 576 -154 615 -90 q 469 -253 538 -218 q 310 -288 400 -288 q 160 -266 223 -288 q 67 -200 98 -243 q 36 -102 36 -157 q 39 -65 36 -85 m 193 319 q 207 208 193 245 q 265 128 227 155 q 349 100 302 100 q 469 143 409 100 q 565 274 528 185 q 602 444 602 363 q 553 585 602 532 q 431 637 504 637 q 345 613 387 637 q 266 540 302 589 q 211 422 230 491 q 193 319 193 354 m 328 964 l 408 964 q 441 892 415 915 q 513 869 467 869 q 598 895 562 869 q 652 964 633 920 l 734 964 q 650 836 711 883 q 509 788 589 788 q 381 836 431 788 q 328 964 332 884 z "},"İ":{"ha":386,"x_min":79,"x_max":464,"o":"m 79 0 l 288 994 l 420 994 l 212 0 l 79 0 m 281 1048 l 313 1200 l 464 1200 l 431 1048 l 281 1048 z "},"Ş":{"ha":926,"x_min":98,"x_max":932,"o":"m 98 321 l 228 334 l 227 299 q 253 194 227 241 q 340 120 279 146 q 486 94 401 94 q 668 146 605 94 q 730 265 730 198 q 697 351 730 312 q 512 454 663 389 q 352 532 395 505 q 253 628 285 576 q 221 746 221 680 q 263 884 221 823 q 386 979 305 946 q 569 1011 467 1011 q 774 970 690 1011 q 895 862 857 930 q 932 732 932 794 q 932 712 932 726 l 804 702 q 796 768 804 744 q 754 838 783 809 q 676 883 726 866 q 564 901 626 901 q 395 852 456 901 q 349 753 349 814 q 368 687 349 716 q 437 631 387 659 q 604 553 472 611 q 752 478 711 505 q 836 391 806 442 q 865 275 865 340 q 815 126 865 194 q 680 20 766 58 q 481 -17 593 -17 q 205 57 312 -17 q 98 321 98 130 m 338 -105 l 366 4 l 461 4 l 445 -57 q 536 -98 505 -65 q 567 -172 567 -131 q 526 -250 567 -221 q 335 -292 466 -292 q 220 -284 269 -292 l 235 -208 q 334 -210 276 -210 q 426 -195 404 -210 q 449 -162 449 -180 q 429 -126 449 -140 q 338 -105 400 -106 z "},"ş":{"ha":694,"x_min":53,"x_max":696,"o":"m 58 246 l 180 254 q 197 163 180 201 q 257 102 213 126 q 359 79 300 79 q 481 111 440 79 q 522 188 522 144 q 497 248 522 220 q 375 318 472 277 q 250 377 277 360 q 182 443 205 405 q 159 529 159 480 q 227 675 159 614 q 416 736 294 736 q 623 674 552 736 q 696 509 694 611 l 576 500 q 530 604 574 566 q 408 642 487 642 q 309 612 344 642 q 273 549 273 583 q 304 490 273 515 q 409 435 324 472 q 587 339 550 374 q 645 202 645 283 q 612 97 645 149 q 512 15 579 45 q 353 -16 444 -16 q 140 45 228 -16 q 58 246 53 107 m 243 -89 l 271 20 l 366 20 l 349 -41 q 440 -82 409 -49 q 471 -156 471 -115 q 430 -234 471 -205 q 239 -276 370 -276 q 124 -268 174 -276 l 139 -192 q 238 -194 180 -194 q 331 -179 308 -194 q 353 -146 353 -164 q 334 -110 353 -124 q 243 -89 304 -90 z "},"Ć":{"ha":1003,"x_min":126,"x_max":1015,"o":"m 838 350 l 969 332 q 787 71 907 159 q 519 -17 668 -17 q 232 94 338 -17 q 126 410 126 204 q 288 854 126 679 q 645 1011 431 1011 q 901 926 803 1011 q 1015 699 999 842 l 890 687 q 809 848 871 795 q 651 901 748 901 q 356 739 469 901 q 258 408 258 600 q 334 174 258 254 q 530 93 409 93 q 716 160 633 93 q 838 350 800 227 m 567 1055 l 694 1242 l 849 1242 l 669 1055 l 567 1055 z "},"ć":{"ha":694,"x_min":78,"x_max":709,"o":"m 543 262 l 666 250 q 535 49 620 115 q 341 -16 450 -16 q 151 60 224 -16 q 78 272 78 136 q 125 504 78 390 q 259 677 172 618 q 458 736 346 736 q 642 671 574 736 q 709 498 709 606 l 589 490 q 549 597 588 558 q 446 635 510 635 q 318 589 372 635 q 233 447 264 542 q 202 263 202 351 q 243 125 202 171 q 343 79 283 79 q 457 124 403 79 q 543 262 512 170 m 397 808 l 524 994 l 679 994 l 498 808 l 397 808 z "},"Č":{"ha":1003,"x_min":126,"x_max":1015,"o":"m 838 350 l 969 332 q 787 71 907 159 q 519 -17 668 -17 q 232 94 338 -17 q 126 410 126 204 q 288 854 126 679 q 645 1011 431 1011 q 901 926 803 1011 q 1015 699 999 842 l 890 687 q 809 848 871 795 q 651 901 748 901 q 356 739 469 901 q 258 408 258 600 q 334 174 258 254 q 530 93 409 93 q 716 160 633 93 q 838 350 800 227 m 896 1242 l 716 1055 l 581 1055 l 497 1242 l 604 1242 l 656 1121 l 768 1242 l 896 1242 z "},"č":{"ha":694,"x_min":78,"x_max":715,"o":"m 543 262 l 666 250 q 535 49 620 115 q 341 -16 450 -16 q 151 60 224 -16 q 78 272 78 136 q 125 504 78 390 q 259 677 172 618 q 458 736 346 736 q 642 671 574 736 q 709 498 709 606 l 589 490 q 549 597 588 558 q 446 635 510 635 q 318 589 372 635 q 233 447 264 542 q 202 263 202 351 q 243 125 202 171 q 343 79 283 79 q 457 124 403 79 q 543 262 512 170 m 715 994 l 536 808 l 400 808 l 317 994 l 424 994 l 475 873 l 588 994 l 715 994 z "},"đ":{"ha":772,"x_min":73,"x_max":907,"o":"m 673 827 l 452 827 l 472 918 l 692 918 l 709 994 l 831 994 l 815 918 l 907 918 l 887 827 l 796 827 l 623 0 l 510 0 l 532 104 q 311 -16 427 -16 q 141 59 210 -16 q 73 279 73 135 q 128 520 73 412 q 263 683 182 629 q 426 736 343 736 q 627 607 559 736 l 673 827 m 195 302 q 210 183 195 227 q 261 111 225 140 q 347 82 297 82 q 498 169 431 82 q 589 454 589 284 q 545 587 589 539 q 433 635 500 635 q 352 616 388 635 q 280 550 315 596 q 220 431 245 503 q 195 302 195 358 z "},"¯":{"ha":767,"x_min":123,"x_max":932,"o":"m 123 1062 l 123 1149 l 932 1149 l 932 1062 l 123 1062 z "},"·":{"ha":463,"x_min":210,"x_max":378,"o":"m 210 427 l 239 566 l 378 566 l 349 427 l 210 427 z "},"Ă":{"ha":926,"x_min":-28,"x_max":857,"o":"m -28 0 l 536 994 l 692 994 l 857 0 l 728 0 l 680 286 l 277 286 l 118 0 l -28 0 m 334 389 l 663 389 l 625 638 q 597 886 602 787 q 498 683 563 800 l 334 389 m 437 1231 l 517 1231 q 550 1159 524 1181 q 623 1136 576 1136 q 707 1161 671 1136 q 762 1231 743 1186 l 843 1231 q 759 1102 820 1149 q 618 1055 699 1055 q 490 1102 540 1055 q 437 1231 441 1150 z "},"ă":{"ha":772,"x_min":61,"x_max":731,"o":"m 532 90 q 409 9 468 35 q 283 -16 350 -16 q 122 42 183 -16 q 61 193 61 101 q 89 299 61 253 q 161 374 116 346 q 273 414 207 402 q 430 427 314 422 q 595 452 545 432 q 610 535 610 502 q 578 602 610 578 q 454 636 536 636 q 327 602 376 636 q 256 505 278 568 l 132 515 q 252 680 170 623 q 460 736 334 736 q 671 673 593 736 q 731 549 731 625 q 714 416 731 492 l 674 237 q 655 98 655 151 q 670 0 655 64 l 546 0 q 532 90 536 35 m 577 365 q 522 349 551 355 q 423 338 492 344 q 272 314 316 328 q 205 267 228 299 q 183 197 183 235 q 219 112 183 145 q 320 79 254 79 q 437 111 381 79 q 526 201 494 143 q 577 365 559 258 m 313 964 l 393 964 q 427 892 401 915 q 499 869 452 869 q 584 895 548 869 q 638 964 619 920 l 720 964 q 636 836 696 883 q 495 788 575 788 q 367 836 416 788 q 313 964 317 884 z "},"Ą":{"ha":926,"x_min":-28,"x_max":857,"o":"m -28 0 l 536 994 l 692 994 l 857 0 l 728 0 l 680 286 l 277 286 l 118 0 l -28 0 m 334 389 l 663 389 l 625 638 q 597 886 602 787 q 498 683 563 800 l 334 389 m 843 -181 l 825 -268 q 727 -292 770 -292 q 631 -254 661 -292 q 613 -196 613 -231 q 659 -79 613 -139 q 745 0 692 -37 l 835 0 q 726 -130 743 -50 q 724 -149 724 -139 q 778 -197 724 -197 q 843 -181 810 -197 z "},"ą":{"ha":772,"x_min":61,"x_max":731,"o":"m 532 90 q 409 9 468 35 q 283 -16 350 -16 q 122 42 183 -16 q 61 193 61 101 q 89 299 61 253 q 161 374 116 346 q 273 414 207 402 q 430 427 314 422 q 595 452 545 432 q 610 535 610 502 q 578 602 610 578 q 454 636 536 636 q 327 602 376 636 q 256 505 278 568 l 132 515 q 252 680 170 623 q 460 736 334 736 q 671 673 593 736 q 731 549 731 625 q 714 416 731 492 l 674 237 q 655 98 655 151 q 670 0 655 64 l 546 0 q 532 90 536 35 m 577 365 q 522 349 551 355 q 423 338 492 344 q 272 314 316 328 q 205 267 228 299 q 183 197 183 235 q 219 112 183 145 q 320 79 254 79 q 437 111 381 79 q 526 201 494 143 q 577 365 559 258 m 660 -181 l 642 -268 q 544 -292 587 -292 q 448 -254 477 -292 q 430 -196 430 -231 q 476 -79 430 -139 q 562 0 509 -37 l 652 0 q 543 -130 559 -50 q 541 -149 541 -139 q 595 -197 541 -197 q 660 -181 627 -197 z "},"Ď":{"ha":1003,"x_min":62,"x_max":989,"o":"m 62 0 l 269 994 l 569 994 q 734 979 677 994 q 873 904 815 958 q 960 769 930 850 q 989 588 989 688 q 952 369 989 468 q 858 196 916 271 q 735 78 799 121 q 583 16 671 36 q 420 0 517 0 l 62 0 m 218 113 l 376 113 q 565 132 482 113 q 653 168 616 144 q 741 249 701 199 q 823 400 792 315 q 854 594 854 486 q 812 780 854 715 q 705 865 770 844 q 555 881 656 881 l 379 881 l 218 113 m 802 1242 l 622 1055 l 486 1055 l 403 1242 l 510 1242 l 562 1121 l 674 1242 l 802 1242 z "},"ď":{"ha":868,"x_min":76,"x_max":1032,"o":"m 534 104 q 314 -16 429 -16 q 144 59 212 -16 q 76 279 76 135 q 131 520 76 412 q 266 683 185 629 q 429 736 346 736 q 630 607 562 736 l 711 994 l 833 994 l 626 0 l 513 0 l 534 104 m 198 302 q 213 183 198 227 q 264 111 228 140 q 350 82 300 82 q 501 169 433 82 q 592 454 592 284 q 547 587 592 539 q 436 635 503 635 q 354 616 391 635 q 283 550 318 596 q 223 431 248 503 q 198 302 198 358 m 880 869 l 906 994 l 1032 994 l 1009 884 q 945 741 989 786 q 842 688 901 695 l 852 736 q 949 869 924 757 l 880 869 z "},"Đ":{"ha":1003,"x_min":62,"x_max":1000,"o":"m 73 0 l 169 452 l 62 452 l 81 543 l 189 543 l 284 994 l 581 994 q 712 987 674 994 q 825 947 772 977 q 920 864 879 918 q 981 739 961 810 q 1000 588 1000 668 q 964 369 1000 468 q 869 195 927 271 q 746 78 810 120 q 595 16 682 36 q 431 0 528 0 l 73 0 m 230 113 l 387 113 q 576 132 493 113 q 664 168 627 144 q 752 249 712 199 q 834 400 804 315 q 865 594 865 486 q 823 780 865 715 q 716 865 781 844 q 566 881 667 881 l 393 881 l 321 543 l 595 543 l 576 452 l 302 452 l 230 113 z "},"Ę":{"ha":926,"x_min":62,"x_max":988,"o":"m 62 0 l 271 994 l 988 994 l 964 881 l 380 881 l 315 572 l 884 572 l 861 458 l 291 458 l 219 113 l 845 113 l 821 0 l 62 0 m 748 -181 l 730 -268 q 632 -292 675 -292 q 536 -254 566 -292 q 518 -196 518 -231 q 564 -79 518 -139 q 650 0 597 -37 l 740 0 q 631 -130 648 -50 q 629 -149 629 -139 q 683 -197 629 -197 q 748 -181 715 -197 z "},"ę":{"ha":772,"x_min":72,"x_max":739,"o":"m 575 245 l 694 233 q 576 64 669 144 q 355 -16 484 -16 q 209 21 275 -16 q 107 128 142 58 q 72 289 72 199 q 126 518 72 407 q 268 683 181 629 q 456 736 355 736 q 662 656 585 736 q 739 438 739 576 q 729 330 739 385 l 199 330 q 196 292 196 309 q 242 137 196 191 q 356 84 289 84 q 480 125 419 84 q 575 245 541 167 m 218 423 l 623 423 q 623 450 623 442 q 577 592 623 543 q 458 641 531 641 q 315 587 380 641 q 218 423 250 532 m 465 -181 l 447 -268 q 349 -292 393 -292 q 254 -254 283 -292 q 235 -196 235 -231 q 281 -79 235 -139 q 368 0 315 -37 l 457 0 q 348 -130 365 -50 q 346 -149 346 -139 q 400 -197 346 -197 q 465 -181 432 -197 z "},"Ě":{"ha":926,"x_min":62,"x_max":988,"o":"m 62 0 l 271 994 l 988 994 l 964 881 l 380 881 l 315 572 l 884 572 l 861 458 l 291 458 l 219 113 l 845 113 l 821 0 l 62 0 m 850 1242 l 671 1055 l 535 1055 l 452 1242 l 559 1242 l 610 1121 l 723 1242 l 850 1242 z "},"ě":{"ha":772,"x_min":72,"x_max":739,"o":"m 575 245 l 694 233 q 576 64 669 144 q 355 -16 484 -16 q 209 21 275 -16 q 107 128 142 58 q 72 289 72 199 q 126 518 72 407 q 268 683 181 629 q 456 736 355 736 q 662 656 585 736 q 739 438 739 576 q 729 330 739 385 l 199 330 q 196 292 196 309 q 242 137 196 191 q 356 84 289 84 q 480 125 419 84 q 575 245 541 167 m 218 423 l 623 423 q 623 450 623 442 q 577 592 623 543 q 458 641 531 641 q 315 587 380 641 q 218 423 250 532 m 715 994 l 536 808 l 400 808 l 317 994 l 424 994 l 475 873 l 588 994 l 715 994 z "},"Ĺ":{"ha":772,"x_min":56,"x_max":728,"o":"m 56 0 l 263 994 l 396 994 l 212 113 l 728 113 l 705 0 l 56 0 m 347 1055 l 475 1242 l 629 1242 l 449 1055 l 347 1055 z "},"ĺ":{"ha":309,"x_min":37,"x_max":487,"o":"m 37 0 l 244 994 l 367 994 l 159 0 l 37 0 m 205 1045 l 332 1232 l 487 1232 l 307 1045 l 205 1045 z "},"Ľ":{"ha":772,"x_min":56,"x_max":777,"o":"m 608 855 l 637 994 l 777 994 l 751 873 q 681 713 729 764 q 566 654 632 662 l 577 708 q 684 855 658 730 l 608 855 m 56 0 l 263 994 l 396 994 l 212 113 l 728 113 l 705 0 l 56 0 z "},"ľ":{"ha":391,"x_min":38,"x_max":555,"o":"m 38 0 l 245 994 l 368 994 l 161 0 l 38 0 m 403 869 l 429 994 l 555 994 l 532 884 q 468 741 511 786 q 365 688 424 695 l 375 736 q 471 869 448 757 l 403 869 z "},"Ŀ":{"ha":772,"x_min":56,"x_max":728,"o":"m 56 0 l 263 994 l 396 994 l 212 113 l 728 113 l 705 0 l 56 0 m 365 427 l 394 566 l 533 566 l 503 427 l 365 427 z "},"ŀ":{"ha":555,"x_min":37,"x_max":512,"o":"m 37 0 l 244 994 l 367 994 l 159 0 l 37 0 m 344 427 l 373 566 l 512 566 l 482 427 l 344 427 z "},"Ń":{"ha":1003,"x_min":68,"x_max":1051,"o":"m 68 0 l 276 994 l 405 994 l 572 621 q 694 334 649 450 q 753 151 720 266 q 800 410 772 276 l 922 994 l 1051 994 l 844 0 l 712 0 l 465 574 q 363 842 399 726 q 323 604 353 745 l 197 0 l 68 0 m 539 1055 l 667 1242 l 821 1242 l 641 1055 l 539 1055 z "},"ń":{"ha":772,"x_min":46,"x_max":733,"o":"m 46 0 l 197 720 l 308 720 l 281 595 q 417 703 354 669 q 546 736 480 736 q 683 689 633 736 q 733 562 733 642 q 715 436 733 522 l 624 0 l 501 0 l 597 456 q 611 555 611 523 q 586 613 611 591 q 515 635 562 635 q 347 568 420 635 q 239 335 273 500 l 169 0 l 46 0 m 393 808 l 520 994 l 675 994 l 494 808 l 393 808 z "},"Ň":{"ha":1003,"x_min":68,"x_max":1051,"o":"m 68 0 l 276 994 l 405 994 l 572 621 q 694 334 649 450 q 753 151 720 266 q 800 410 772 276 l 922 994 l 1051 994 l 844 0 l 712 0 l 465 574 q 363 842 399 726 q 323 604 353 745 l 197 0 l 68 0 m 884 1242 l 705 1055 l 569 1055 l 486 1242 l 593 1242 l 644 1121 l 757 1242 l 884 1242 z "},"ň":{"ha":772,"x_min":46,"x_max":736,"o":"m 46 0 l 197 720 l 308 720 l 281 595 q 417 703 354 669 q 546 736 480 736 q 683 689 633 736 q 733 562 733 642 q 715 436 733 522 l 624 0 l 501 0 l 597 456 q 611 555 611 523 q 586 613 611 591 q 515 635 562 635 q 347 568 420 635 q 239 335 273 500 l 169 0 l 46 0 m 736 994 l 556 808 l 420 808 l 337 994 l 444 994 l 496 873 l 608 994 l 736 994 z "},"Ő":{"ha":1080,"x_min":127,"x_max":1073,"o":"m 127 416 q 280 847 127 682 q 653 1011 434 1011 q 956 890 839 1011 q 1073 566 1073 769 q 1014 296 1073 420 q 903 136 970 203 q 759 32 836 68 q 543 -17 657 -17 q 326 40 424 -17 q 177 199 228 97 q 127 416 127 301 m 258 410 q 294 249 258 322 q 402 134 330 176 q 553 93 474 93 q 699 129 630 93 q 823 230 768 165 q 909 390 878 295 q 941 576 941 484 q 858 812 941 724 q 652 901 774 901 q 377 767 496 901 q 258 410 258 634 m 485 1055 l 611 1242 l 768 1242 l 586 1055 l 485 1055 m 713 1055 l 838 1242 l 996 1242 l 810 1055 l 713 1055 z "},"ő":{"ha":772,"x_min":68,"x_max":808,"o":"m 68 273 q 192 623 68 484 q 460 736 294 736 q 670 655 591 736 q 750 435 750 574 q 700 204 750 311 q 557 41 650 98 q 362 -16 465 -16 q 209 20 278 -16 q 104 121 140 56 q 68 273 68 187 m 191 286 q 239 131 191 184 q 363 79 288 79 q 441 95 403 79 q 513 143 480 111 q 570 217 547 176 q 608 307 593 259 q 629 436 629 374 q 579 588 629 534 q 456 642 530 642 q 351 614 398 642 q 265 534 303 587 q 209 411 227 481 q 191 286 191 340 m 297 808 l 423 994 l 580 994 l 398 808 l 297 808 m 526 808 l 650 994 l 808 994 l 623 808 l 526 808 z "},"Ŕ":{"ha":1003,"x_min":65,"x_max":1014,"o":"m 65 0 l 273 994 l 690 994 q 878 974 814 994 q 978 896 941 953 q 1014 752 1014 839 q 935 551 1014 631 q 678 447 855 471 q 760 368 732 407 q 861 187 823 281 l 937 0 l 788 0 l 717 185 q 629 359 678 286 q 559 426 595 410 q 445 441 524 441 l 290 441 l 198 0 l 65 0 m 313 549 l 496 549 q 663 553 624 549 q 786 587 738 560 q 861 658 834 613 q 887 754 887 703 q 867 830 887 798 q 816 873 848 862 q 707 885 784 885 l 383 885 l 313 549 m 471 1055 l 598 1242 l 753 1242 l 572 1055 l 471 1055 z "},"ŕ":{"ha":463,"x_min":46,"x_max":583,"o":"m 46 0 l 197 720 l 305 720 l 275 573 q 384 696 330 656 q 492 736 437 736 q 583 710 529 736 l 532 596 q 463 619 500 619 q 330 547 398 619 q 224 289 262 475 l 163 0 l 46 0 m 285 808 l 412 994 l 567 994 l 387 808 l 285 808 z "},"Ř":{"ha":1003,"x_min":65,"x_max":1014,"o":"m 65 0 l 273 994 l 690 994 q 878 974 814 994 q 978 896 941 953 q 1014 752 1014 839 q 935 551 1014 631 q 678 447 855 471 q 760 368 732 407 q 861 187 823 281 l 937 0 l 788 0 l 717 185 q 629 359 678 286 q 559 426 595 410 q 445 441 524 441 l 290 441 l 198 0 l 65 0 m 313 549 l 496 549 q 663 553 624 549 q 786 587 738 560 q 861 658 834 613 q 887 754 887 703 q 867 830 887 798 q 816 873 848 862 q 707 885 784 885 l 383 885 l 313 549 m 840 1242 l 661 1055 l 525 1055 l 441 1242 l 549 1242 l 600 1121 l 713 1242 l 840 1242 z "},"ř":{"ha":463,"x_min":46,"x_max":628,"o":"m 46 0 l 197 720 l 305 720 l 275 573 q 384 696 330 656 q 492 736 437 736 q 583 710 529 736 l 532 596 q 463 619 500 619 q 330 547 398 619 q 224 289 262 475 l 163 0 l 46 0 m 628 994 l 448 808 l 313 808 l 229 994 l 336 994 l 388 873 l 500 994 l 628 994 z "},"Ś":{"ha":926,"x_min":98,"x_max":932,"o":"m 98 321 l 228 334 l 227 299 q 253 194 227 241 q 340 120 279 146 q 486 94 401 94 q 668 146 605 94 q 730 265 730 198 q 697 351 730 312 q 512 454 663 389 q 352 532 395 505 q 253 628 285 576 q 221 746 221 680 q 263 884 221 823 q 386 979 305 946 q 569 1011 467 1011 q 774 970 690 1011 q 895 862 857 930 q 932 732 932 794 q 932 712 932 726 l 804 702 q 796 768 804 744 q 754 838 783 809 q 676 883 726 866 q 564 901 626 901 q 395 852 456 901 q 349 753 349 814 q 368 687 349 716 q 437 631 387 659 q 604 553 472 611 q 752 478 711 505 q 836 391 806 442 q 865 275 865 340 q 815 126 865 194 q 680 20 766 58 q 481 -17 593 -17 q 205 57 312 -17 q 98 321 98 130 m 487 1055 l 614 1242 l 769 1242 l 589 1055 l 487 1055 z "},"ś":{"ha":694,"x_min":53,"x_max":696,"o":"m 58 246 l 180 254 q 197 163 180 201 q 257 102 213 126 q 359 79 300 79 q 481 111 440 79 q 522 188 522 144 q 497 248 522 220 q 375 318 472 277 q 250 377 277 360 q 182 443 205 405 q 159 529 159 480 q 227 675 159 614 q 416 736 294 736 q 623 674 552 736 q 696 509 694 611 l 576 500 q 530 604 574 566 q 408 642 487 642 q 309 612 344 642 q 273 549 273 583 q 304 490 273 515 q 409 435 324 472 q 587 339 550 374 q 645 202 645 283 q 612 97 645 149 q 512 15 579 45 q 353 -16 444 -16 q 140 45 228 -16 q 58 246 53 107 m 339 808 l 467 994 l 621 994 l 441 808 l 339 808 z "},"Ţ":{"ha":848,"x_min":173,"x_max":979,"o":"m 315 0 l 499 881 l 173 881 l 197 994 l 979 994 l 956 881 l 632 881 l 448 0 l 315 0 m 313 -105 l 341 4 l 436 4 l 420 -57 q 511 -98 479 -65 q 542 -172 542 -131 q 500 -250 542 -221 q 310 -292 441 -292 q 195 -284 244 -292 l 210 -208 q 309 -210 251 -210 q 401 -195 378 -210 q 424 -162 424 -180 q 404 -126 424 -140 q 313 -105 375 -106 z "},"ţ":{"ha":386,"x_min":18,"x_max":446,"o":"m 333 100 l 313 -1 q 227 -12 269 -12 q 111 24 154 -12 q 78 98 78 51 q 96 207 78 121 l 183 625 l 86 625 l 106 720 l 203 720 l 240 897 l 380 982 l 326 720 l 446 720 l 426 625 l 306 625 l 222 227 q 207 136 207 151 q 219 103 207 115 q 260 92 232 92 q 333 100 301 92 m 137 -105 l 165 4 l 260 4 l 243 -57 q 334 -98 303 -65 q 366 -172 366 -131 q 324 -250 366 -221 q 134 -292 264 -292 q 18 -284 68 -292 l 33 -208 q 132 -210 75 -210 q 225 -195 202 -210 q 248 -162 248 -180 q 228 -126 248 -140 q 137 -105 199 -106 z "},"Ť":{"ha":848,"x_min":173,"x_max":979,"o":"m 315 0 l 499 881 l 173 881 l 197 994 l 979 994 l 956 881 l 632 881 l 448 0 l 315 0 m 819 1242 l 640 1055 l 504 1055 l 420 1242 l 528 1242 l 579 1121 l 692 1242 l 819 1242 z "},"ť":{"ha":492,"x_min":74,"x_max":657,"o":"m 505 869 l 532 994 l 657 994 l 635 884 q 570 741 614 786 q 467 688 527 695 l 477 736 q 574 869 550 757 l 505 869 m 329 100 l 309 -1 q 223 -12 264 -12 q 106 24 150 -12 q 74 98 74 51 q 92 207 74 121 l 179 625 l 82 625 l 102 720 l 199 720 l 236 897 l 376 982 l 321 720 l 442 720 l 422 625 l 302 625 l 218 227 q 203 136 203 151 q 215 103 203 115 q 256 92 228 92 q 329 100 297 92 z "},"Ů":{"ha":1003,"x_min":134,"x_max":1048,"o":"m 275 994 l 408 994 l 281 383 q 265 271 265 307 q 328 142 265 191 q 487 93 391 93 q 628 128 563 93 q 732 231 694 163 q 800 447 770 298 l 915 994 l 1048 994 l 926 411 q 844 175 895 262 q 703 35 793 87 q 494 -18 613 -18 q 299 20 381 -18 q 175 123 216 57 q 134 272 134 189 q 162 452 134 324 l 275 994 m 538 1118 q 575 1205 538 1169 q 662 1241 611 1241 q 749 1205 713 1241 q 785 1118 785 1168 q 749 1030 785 1066 q 662 994 713 994 q 575 1030 611 994 q 538 1118 538 1066 m 589 1118 q 611 1066 589 1087 q 662 1044 632 1044 q 714 1066 692 1044 q 735 1118 735 1087 q 714 1169 735 1147 q 662 1190 692 1190 q 611 1169 632 1190 q 589 1118 589 1147 z "},"ů":{"ha":772,"x_min":87,"x_max":774,"o":"m 538 130 q 273 -16 408 -16 q 138 32 189 -16 q 87 149 87 79 q 110 304 87 194 l 197 720 l 319 720 l 223 260 q 211 170 211 202 q 236 107 211 130 q 309 84 260 84 q 409 109 360 84 q 494 177 458 134 q 552 278 530 220 q 587 409 567 315 l 652 720 l 774 720 l 624 0 l 511 0 l 538 130 m 368 895 q 405 983 368 947 q 492 1019 441 1019 q 579 982 543 1019 q 615 895 615 946 q 579 808 615 844 q 492 772 543 772 q 405 808 441 772 q 368 895 368 844 m 419 895 q 440 843 419 865 q 492 822 462 822 q 544 843 522 822 q 565 895 565 865 q 544 946 565 925 q 492 968 522 968 q 440 946 462 968 q 419 895 419 925 z "},"Ű":{"ha":1003,"x_min":134,"x_max":1048,"o":"m 275 994 l 408 994 l 281 383 q 265 271 265 307 q 328 142 265 191 q 487 93 391 93 q 628 128 563 93 q 732 231 694 163 q 800 447 770 298 l 915 994 l 1048 994 l 926 411 q 844 175 895 262 q 703 35 793 87 q 494 -18 613 -18 q 299 20 381 -18 q 175 123 216 57 q 134 272 134 189 q 162 452 134 324 l 275 994 m 476 1055 l 602 1242 l 759 1242 l 577 1055 l 476 1055 m 705 1055 l 829 1242 l 987 1242 l 802 1055 l 705 1055 z "},"ű":{"ha":772,"x_min":87,"x_max":789,"o":"m 538 130 q 273 -16 408 -16 q 138 32 189 -16 q 87 149 87 79 q 110 304 87 194 l 197 720 l 319 720 l 223 260 q 211 170 211 202 q 236 107 211 130 q 309 84 260 84 q 409 109 360 84 q 494 177 458 134 q 552 278 530 220 q 587 409 567 315 l 652 720 l 774 720 l 624 0 l 511 0 l 538 130 m 278 808 l 404 994 l 561 994 l 379 808 l 278 808 m 507 808 l 631 994 l 789 994 l 604 808 l 507 808 z "},"Ź":{"ha":848,"x_min":34,"x_max":884,"o":"m 34 0 l 47 100 l 545 694 l 648 819 q 708 889 679 857 q 620 882 645 882 l 587 882 l 548 882 l 509 881 l 175 881 l 199 994 l 884 994 l 873 890 l 339 256 q 214 109 241 139 q 253 113 244 113 l 795 113 l 771 0 l 34 0 m 422 1055 l 550 1242 l 705 1242 l 524 1055 l 422 1055 z "},"ź":{"ha":694,"x_min":27,"x_max":711,"o":"m 27 0 l 47 95 l 434 531 q 526 627 475 577 q 401 618 439 618 l 133 618 l 155 720 l 711 720 l 695 643 l 304 204 q 205 102 271 167 q 346 108 308 108 l 629 108 l 607 0 l 27 0 m 332 808 l 459 994 l 614 994 l 433 808 l 332 808 z "},"Ż":{"ha":848,"x_min":34,"x_max":884,"o":"m 34 0 l 47 100 l 545 694 l 648 819 q 708 889 679 857 q 620 882 645 882 l 587 882 l 548 882 l 509 881 l 175 881 l 199 994 l 884 994 l 873 890 l 339 256 q 214 109 241 139 q 253 113 244 113 l 795 113 l 771 0 l 34 0 m 449 1048 l 481 1200 l 632 1200 l 600 1048 l 449 1048 z "},"ż":{"ha":694,"x_min":27,"x_max":711,"o":"m 27 0 l 47 95 l 434 531 q 526 627 475 577 q 401 618 439 618 l 133 618 l 155 720 l 711 720 l 695 643 l 304 204 q 205 102 271 167 q 346 108 308 108 l 629 108 l 607 0 l 27 0 m 351 820 l 382 971 l 534 971 l 501 820 l 351 820 z "},"Γ":{"ha":792,"x_min":59,"x_max":916,"o":"m 59 0 l 267 994 l 916 994 l 892 881 l 376 881 l 192 0 l 59 0 z "},"Θ":{"ha":1080,"x_min":127,"x_max":1073,"o":"m 127 433 q 273 838 127 664 q 653 1011 418 1011 q 963 883 852 1011 q 1073 565 1073 755 q 917 151 1073 319 q 545 -17 761 -17 q 243 106 360 -17 q 127 433 127 229 m 258 425 q 349 175 258 258 q 554 93 440 93 q 744 156 653 93 q 887 336 834 218 q 941 574 941 453 q 854 816 941 732 q 652 901 768 901 q 374 763 490 901 q 258 425 258 625 m 403 441 l 427 553 l 795 553 l 772 441 l 403 441 z "},"Φ":{"ha":1162,"x_min":122,"x_max":1147,"o":"m 678 1022 l 811 1022 l 784 894 q 1055 786 962 878 q 1147 559 1147 694 q 1086 351 1147 452 q 913 193 1025 250 q 618 123 800 135 l 583 -39 l 450 -39 l 485 130 q 216 234 310 144 q 122 459 122 323 q 254 759 122 628 q 651 898 386 889 l 678 1022 m 627 783 q 344 676 436 766 q 252 460 252 585 q 509 239 252 257 l 627 783 m 642 240 q 932 354 844 259 q 1019 570 1019 450 q 955 715 1019 658 q 760 781 890 773 l 642 240 z "},"α":{"ha":792,"x_min":69,"x_max":832,"o":"m 701 720 l 832 720 l 671 371 l 671 241 q 680 0 671 126 l 557 0 l 544 107 q 309 -16 444 -16 q 181 20 233 -16 q 99 118 130 57 q 69 277 69 179 q 175 603 69 469 q 428 736 281 736 q 641 589 568 736 l 701 720 m 191 268 q 233 130 191 175 q 337 84 275 84 q 512 199 439 84 q 585 449 585 315 q 546 582 585 529 q 437 635 507 635 q 260 518 330 635 q 191 268 191 400 z "},"δ":{"ha":772,"x_min":66,"x_max":820,"o":"m 273 994 l 820 994 l 799 892 l 395 892 q 581 711 467 808 q 720 552 692 616 q 748 422 748 488 q 645 120 748 257 q 358 -16 542 -16 q 141 71 216 -16 q 66 281 66 157 q 168 577 66 446 q 433 715 270 709 q 255 913 303 837 l 273 994 m 191 280 q 239 131 191 184 q 362 79 288 79 q 548 187 475 79 q 622 427 622 296 q 578 566 622 511 q 457 620 534 620 q 270 522 349 620 q 191 280 191 423 z "},"ε":{"ha":610,"x_min":47,"x_max":635,"o":"m 635 633 l 542 570 q 404 635 481 635 q 303 600 341 635 q 266 519 266 565 q 428 413 266 423 l 409 321 q 371 322 384 322 q 229 280 284 322 q 174 180 174 238 q 207 105 174 132 q 293 79 239 79 q 487 166 395 79 l 562 87 q 297 -16 445 -16 q 111 40 174 -16 q 47 177 47 96 q 216 381 47 315 q 143 527 143 444 q 218 675 143 614 q 397 736 292 736 q 635 633 541 736 z "},"σ":{"ha":838,"x_min":68,"x_max":895,"o":"m 895 720 l 874 618 l 694 618 q 747 429 747 542 q 644 118 747 253 q 361 -16 541 -16 q 146 64 224 -16 q 68 275 68 144 q 175 602 68 468 q 454 736 281 736 q 553 720 509 736 l 895 720 m 190 277 q 236 134 190 190 q 362 79 282 79 q 554 196 484 79 q 625 435 625 313 q 579 588 625 534 q 457 642 534 642 q 263 530 336 642 q 190 277 190 418 z "},"τ":{"ha":519,"x_min":119,"x_max":576,"o":"m 140 720 l 576 720 l 555 618 l 399 618 l 269 0 l 146 0 l 276 618 l 119 618 l 140 720 z "},"φ":{"ha":906,"x_min":75,"x_max":889,"o":"m 449 736 l 398 618 q 253 505 309 600 q 198 302 198 411 q 246 161 198 216 q 368 91 294 106 l 439 426 q 490 602 464 542 q 563 700 515 663 q 671 736 611 736 q 823 661 757 736 q 889 450 889 585 q 824 201 889 313 q 678 42 759 90 q 467 -16 597 -5 l 414 -276 l 291 -276 l 345 -16 q 145 96 216 3 q 75 315 75 190 q 181 605 75 476 q 449 736 288 733 m 490 92 q 699 220 625 110 q 772 466 772 330 q 746 592 772 549 q 677 635 720 635 q 611 593 634 635 q 563 432 588 551 l 490 92 z "},"‗":{"ha":767,"x_min":-88,"x_max":721,"o":"m -88 -276 l -88 -188 l 721 -188 l 721 -276 l -88 -276 m -88 -451 l -88 -363 l 721 -363 l 721 -451 l -88 -451 z "},"‼":{"ha":694,"x_min":78,"x_max":726,"o":"m 155 251 l 231 791 l 273 994 l 422 994 l 376 774 l 232 251 l 155 251 m 78 0 l 107 139 l 245 139 l 216 0 l 78 0 m 459 251 l 534 791 l 577 994 l 726 994 l 680 774 l 536 251 l 459 251 m 382 0 l 411 139 l 549 139 l 520 0 l 382 0 z "},"ⁿ":{"ha":507,"x_min":81,"x_max":546,"o":"m 81 352 l 183 803 l 272 803 l 258 743 q 342 797 306 782 q 418 812 378 812 q 512 781 478 812 q 546 697 546 749 q 534 621 546 673 l 473 352 l 376 352 l 441 637 q 450 694 450 676 q 437 722 450 711 q 395 733 423 733 q 291 694 336 733 q 224 561 246 654 l 178 352 l 81 352 z "},"₧":{"ha":1519,"x_min":17,"x_max":1493,"o":"m 231 994 l 448 994 q 625 966 557 994 q 732 877 693 937 q 777 723 771 816 l 828 723 l 873 932 l 996 932 l 951 723 l 1134 723 q 1243 743 1187 743 q 1364 718 1312 743 q 1444 659 1417 692 q 1483 589 1472 626 q 1493 492 1493 551 l 1381 492 q 1339 614 1377 581 q 1236 648 1301 648 q 1152 621 1181 648 q 1122 553 1122 593 q 1137 511 1122 531 q 1181 478 1147 497 q 1387 338 1334 393 q 1440 211 1440 283 q 1368 51 1440 119 q 1185 -18 1296 -18 q 1046 12 1109 -18 q 951 81 998 33 l 930 0 q 846 -7 877 -7 q 736 23 772 -7 q 701 97 701 54 q 713 186 701 123 l 807 627 l 764 627 q 688 494 738 546 q 561 418 637 442 q 358 402 507 402 l 237 402 l 151 0 l 17 0 l 231 994 m 339 883 l 261 513 l 339 513 q 529 535 477 513 q 611 605 581 557 q 641 717 641 652 q 595 840 641 797 q 447 883 549 883 l 339 883 m 930 627 l 836 182 q 830 136 830 151 q 845 106 830 119 q 888 93 860 93 q 939 98 908 93 q 909 154 918 126 q 901 224 901 182 q 905 272 901 245 l 1021 272 q 1019 235 1019 246 q 1062 124 1019 167 q 1177 82 1105 82 q 1280 116 1241 82 q 1318 195 1318 151 q 1288 260 1318 229 q 1191 324 1266 282 q 1045 432 1082 385 q 1009 537 1009 479 q 1031 627 1009 580 l 930 627 z "},"←":{"ha":1389,"x_min":54,"x_max":1335,"o":"m 334 594 l 385 594 q 325 482 345 514 q 253 385 305 450 l 1335 385 l 1335 316 l 253 316 q 387 106 323 243 l 334 106 q 184 255 247 204 q 54 338 121 305 l 54 368 q 178 445 113 393 q 334 594 244 496 z "},"↑":{"ha":694,"x_min":104,"x_max":591,"o":"m 104 628 q 253 784 202 718 q 330 908 304 850 l 361 908 q 443 778 393 841 q 591 627 494 715 l 591 575 q 382 709 455 639 l 382 -291 l 313 -291 l 313 709 q 216 637 248 657 q 104 576 184 616 l 104 628 z "},"→":{"ha":1389,"x_min":54,"x_max":1335,"o":"m 1055 594 q 1211 445 1145 496 q 1335 368 1276 393 l 1335 338 q 1204 255 1267 305 q 1054 106 1141 204 l 1002 106 q 1135 316 1065 243 l 54 316 l 54 385 l 1135 385 q 1063 482 1084 450 q 1003 594 1043 514 l 1055 594 z "},"↓":{"ha":694,"x_min":104,"x_max":591,"o":"m 104 -11 l 104 41 q 216 -20 184 1 q 313 -92 248 -40 l 313 908 l 382 908 l 382 -92 q 591 42 455 -22 l 591 -10 q 443 -161 494 -98 q 361 -291 393 -224 l 330 -291 q 253 -167 304 -233 q 104 -11 202 -101 z "},"↔":{"ha":1389,"x_min":54,"x_max":1335,"o":"m 1335 366 l 1335 336 q 1209 257 1271 307 q 1059 107 1147 208 l 1005 107 q 1137 318 1052 224 l 252 318 q 383 107 336 224 l 329 107 q 179 257 241 208 q 54 336 117 307 l 54 366 q 179 445 117 396 q 329 595 241 494 l 383 595 q 252 385 336 479 l 1137 385 q 1005 595 1052 479 l 1059 595 q 1209 445 1147 494 q 1335 366 1271 396 z "},"↕":{"ha":694,"x_min":103,"x_max":591,"o":"m 332 992 l 362 992 q 441 866 392 928 q 591 716 490 804 l 591 662 q 380 794 475 709 l 380 -92 q 591 40 475 -6 l 591 -14 q 441 -164 490 -102 q 362 -290 392 -226 l 332 -290 q 253 -164 302 -226 q 103 -14 203 -102 l 103 40 q 314 -92 219 -6 l 314 794 q 103 662 219 709 l 103 716 q 253 866 203 804 q 332 992 302 928 z "},"↨":{"ha":694,"x_min":103,"x_max":591,"o":"m 332 992 l 362 992 q 441 866 392 928 q 591 716 490 804 l 591 662 q 380 794 475 709 l 380 -92 q 591 40 475 -6 l 591 -14 q 441 -164 490 -102 q 362 -290 392 -226 l 332 -290 q 253 -164 302 -226 q 103 -14 203 -102 l 103 40 q 314 -92 219 -6 l 314 794 q 103 662 219 709 l 103 716 q 253 866 203 804 q 332 992 302 928 m 104 -354 l 591 -354 l 591 -420 l 104 -420 l 104 -354 z "},"∟":{"ha":1360,"x_min":245,"x_max":1114,"o":"m 245 867 l 313 867 l 313 68 l 1114 68 l 1114 0 l 245 0 l 245 867 z "},"∩":{"ha":998,"x_min":161,"x_max":946,"o":"m 253 0 l 161 0 l 161 421 q 166 645 161 598 q 197 785 174 730 q 271 892 220 840 q 396 979 321 945 q 554 1012 470 1012 q 708 980 635 1012 q 835 895 781 949 q 912 779 889 840 q 943 627 936 718 q 946 421 946 591 l 946 0 l 855 0 l 855 426 q 851 623 855 580 q 826 746 844 700 q 771 831 808 791 q 674 897 733 871 q 553 923 616 923 q 430 896 491 923 q 330 824 369 869 q 275 727 291 780 q 255 604 260 674 q 253 426 253 567 l 253 0 z "},"≡":{"ha":811,"x_min":125,"x_max":781,"o":"m 781 736 l 125 736 l 125 849 l 781 849 l 781 736 m 781 433 l 125 433 l 125 547 l 781 547 l 781 433 m 781 132 l 125 132 l 125 245 l 781 245 l 781 132 z "},"⌂":{"ha":839,"x_min":106,"x_max":732,"o":"m 106 0 l 106 430 l 419 782 l 732 430 l 732 0 l 106 0 m 161 55 l 677 55 l 677 407 l 419 696 l 161 407 l 161 55 z "},"⌐":{"ha":811,"x_min":77,"x_max":733,"o":"m 77 288 l 77 699 l 733 699 l 733 585 l 192 585 l 192 288 l 77 288 z "},"⌠":{"ha":839,"x_min":370,"x_max":662,"o":"m 469 -349 l 370 -349 l 370 879 q 431 1103 370 1027 q 568 1178 492 1178 q 638 1156 614 1178 q 662 1104 662 1134 q 645 1059 662 1077 q 602 1042 627 1042 q 564 1052 582 1042 q 535 1083 551 1059 q 504 1108 519 1108 q 483 1100 492 1108 q 473 1082 476 1095 q 469 987 469 1059 l 469 -349 z "},"⌡":{"ha":839,"x_min":177,"x_max":469,"o":"m 370 1178 l 469 1178 l 469 -50 q 408 -274 469 -199 q 271 -349 347 -349 q 201 -327 225 -349 q 177 -275 177 -305 q 194 -231 177 -248 q 236 -213 212 -213 q 276 -224 257 -213 q 304 -255 288 -231 q 335 -279 319 -279 q 356 -271 347 -279 q 366 -252 363 -267 q 370 -159 370 -231 l 370 1178 z "},"─":{"ha":984,"x_min":-16,"x_max":999,"o":"m 999 362 l -16 362 l -16 481 l 999 481 l 999 362 z "},"│":{"ha":868,"x_min":310,"x_max":429,"o":"m 310 -421 l 310 1264 l 429 1264 l 429 -421 l 310 -421 z "},"┌":{"ha":984,"x_min":433,"x_max":1000,"o":"m 1000 481 l 1000 362 l 551 362 l 551 -421 l 433 -421 l 433 481 l 1000 481 z "},"┐":{"ha":984,"x_min":-16,"x_max":551,"o":"m 432 362 l -16 362 l -16 481 l 551 481 l 551 -421 l 432 -421 l 432 362 z "},"└":{"ha":984,"x_min":433,"x_max":1000,"o":"m 433 362 l 433 1264 l 551 1264 l 551 481 l 1000 481 l 1000 362 l 433 362 z "},"┘":{"ha":984,"x_min":-16,"x_max":551,"o":"m 551 362 l -16 362 l -16 481 l 432 481 l 432 1264 l 551 1264 l 551 362 z "},"├":{"ha":984,"x_min":433,"x_max":1000,"o":"m 433 -421 l 433 1264 l 551 1264 l 551 481 l 1000 481 l 1000 362 l 551 362 l 551 -421 l 433 -421 z "},"┤":{"ha":984,"x_min":-16,"x_max":551,"o":"m 432 -421 l 432 362 l -16 362 l -16 481 l 432 481 l 432 1264 l 551 1264 l 551 -421 l 432 -421 z "},"┬":{"ha":984,"x_min":-16,"x_max":999,"o":"m 432 362 l -16 362 l -16 481 l 999 481 l 999 362 l 551 362 l 551 -421 l 432 -421 l 432 362 z "},"┴":{"ha":984,"x_min":-16,"x_max":999,"o":"m 999 362 l -16 362 l -16 481 l 432 481 l 432 1264 l 551 1264 l 551 481 l 999 481 l 999 362 z "},"┼":{"ha":984,"x_min":-16,"x_max":999,"o":"m 432 362 l -16 362 l -16 481 l 432 481 l 432 1264 l 551 1264 l 551 481 l 999 481 l 999 362 l 551 362 l 551 -421 l 432 -421 l 432 362 z "},"═":{"ha":984,"x_min":-16,"x_max":999,"o":"m 999 491 l -16 491 l -16 610 l 999 610 l 999 491 m 999 233 l -16 233 l -16 352 l 999 352 l 999 233 z "},"║":{"ha":984,"x_min":304,"x_max":680,"o":"m 562 -421 l 562 1264 l 680 1264 l 680 -421 l 562 -421 m 304 -421 l 304 1264 l 422 1264 l 422 -421 l 304 -421 z "},"╒":{"ha":984,"x_min":433,"x_max":1000,"o":"m 433 -421 l 433 610 l 1000 610 l 1000 491 l 551 491 l 551 352 l 1000 352 l 1000 233 l 551 233 l 551 -421 l 433 -421 z "},"╓":{"ha":984,"x_min":304,"x_max":1000,"o":"m 304 -421 l 304 481 l 1000 481 l 1000 362 l 680 362 l 680 -421 l 562 -421 l 562 352 l 422 352 l 422 -421 l 304 -421 z "},"╔":{"ha":984,"x_min":304,"x_max":999,"o":"m 422 -421 l 304 -421 l 304 610 l 999 610 l 999 491 l 422 491 l 422 -421 m 680 233 l 680 -421 l 562 -421 l 562 352 l 999 352 l 999 233 l 680 233 z "},"╕":{"ha":984,"x_min":-16,"x_max":551,"o":"m 432 233 l -16 233 l -16 352 l 432 352 l 432 491 l -16 491 l -16 610 l 551 610 l 551 -421 l 432 -421 l 432 233 z "},"╖":{"ha":984,"x_min":-16,"x_max":680,"o":"m 303 -421 l 304 362 l -16 362 l -16 481 l 680 481 l 680 -421 l 561 -421 l 561 362 l 422 362 l 422 -421 l 303 -421 z "},"╗":{"ha":984,"x_min":-16,"x_max":680,"o":"m 561 -421 l 561 491 l -16 491 l -16 610 l 680 610 l 680 -421 l 561 -421 m 303 233 l -16 233 l -16 352 l 422 352 l 422 -421 l 303 -421 l 303 233 z "},"╘":{"ha":984,"x_min":433,"x_max":1000,"o":"m 433 233 l 433 1264 l 551 1264 l 551 610 l 1000 610 l 1000 491 l 551 491 l 551 352 l 1000 352 l 1000 233 l 433 233 z "},"╙":{"ha":984,"x_min":304,"x_max":1000,"o":"m 1000 362 l 304 362 l 304 1264 l 422 1264 l 422 481 l 562 481 l 562 1264 l 680 1264 l 680 481 l 1000 481 l 1000 362 z "},"╚":{"ha":984,"x_min":304,"x_max":999,"o":"m 422 1264 l 422 352 l 999 352 l 999 233 l 304 233 l 304 1264 l 422 1264 m 680 610 l 999 610 l 999 491 l 562 491 l 562 1264 l 680 1264 l 680 610 z "},"╛":{"ha":984,"x_min":-16,"x_max":551,"o":"m 551 233 l -16 233 l -16 352 l 432 352 l 432 491 l -16 491 l -16 610 l 432 610 l 432 1264 l 551 1264 l 551 233 z "},"╜":{"ha":984,"x_min":-16,"x_max":680,"o":"m 680 362 l -16 362 l -16 481 l 303 481 l 303 1264 l 422 1264 l 422 481 l 561 481 l 561 1264 l 680 1264 l 680 362 z "},"╝":{"ha":984,"x_min":-16,"x_max":680,"o":"m 561 1264 l 680 1264 l 680 233 l -16 233 l -16 352 l 561 352 l 561 1264 m 303 610 l 303 1264 l 422 1264 l 422 491 l -16 491 l -16 610 l 303 610 z "},"╞":{"ha":984,"x_min":433,"x_max":1000,"o":"m 433 -421 l 433 1264 l 551 1264 l 551 610 l 1000 610 l 1000 491 l 551 491 l 551 352 l 1000 352 l 1000 233 l 551 233 l 551 -421 l 433 -421 z "},"╟":{"ha":984,"x_min":304,"x_max":1000,"o":"m 562 -421 l 562 1264 l 680 1264 l 680 481 l 1000 481 l 1000 362 l 680 362 l 680 -421 l 562 -421 m 304 -421 l 304 1264 l 422 1264 l 422 -421 l 304 -421 z "},"╠":{"ha":984,"x_min":304,"x_max":1000,"o":"m 304 -421 l 304 1264 l 422 1264 l 422 -421 l 304 -421 m 562 491 l 562 1264 l 680 1264 l 680 610 l 1000 610 l 1000 491 l 562 491 m 562 -421 l 562 352 l 1000 352 l 1000 233 l 680 233 l 680 -421 l 562 -421 z "},"╡":{"ha":984,"x_min":-16,"x_max":551,"o":"m 432 233 l -16 233 l -16 352 l 433 352 l 432 491 l -16 491 l -16 610 l 432 610 l 432 1264 l 551 1264 l 551 -421 l 432 -421 l 432 233 z "},"╢":{"ha":984,"x_min":-16,"x_max":680,"o":"m 303 -421 l 304 362 l -16 362 l -16 481 l 303 481 l 303 1264 l 422 1264 l 422 -421 l 303 -421 m 561 -421 l 561 1264 l 680 1264 l 680 -421 l 561 -421 z "},"╣":{"ha":984,"x_min":-16,"x_max":680,"o":"m 561 -421 l 561 1264 l 680 1264 l 680 -421 l 561 -421 m 422 1264 l 422 491 l -16 491 l -16 610 l 303 610 l 303 1264 l 422 1264 m 303 233 l -16 233 l -16 352 l 422 352 l 422 -421 l 303 -421 l 303 233 z "},"╤":{"ha":984,"x_min":-16,"x_max":999,"o":"m 999 491 l -16 491 l -16 610 l 999 610 l 999 491 m 432 233 l -16 233 l -16 352 l 999 352 l 999 233 l 551 233 l 551 -421 l 432 -421 l 432 233 z "},"╥":{"ha":984,"x_min":-16,"x_max":999,"o":"m 303 -421 l 304 362 l -16 362 l -16 481 l 999 481 l 999 362 l 680 362 l 680 -421 l 561 -421 l 561 352 l 422 352 l 422 -421 l 303 -421 z "},"╦":{"ha":984,"x_min":-16,"x_max":999,"o":"m 999 491 l -16 491 l -16 610 l 999 610 l 999 491 m 303 233 l -16 233 l -16 352 l 422 352 l 422 -421 l 303 -421 l 303 233 m 561 -421 l 561 352 l 999 352 l 999 233 l 680 233 l 680 -421 l 561 -421 z "},"╧":{"ha":984,"x_min":-16,"x_max":999,"o":"m 999 491 l -16 491 l -16 610 l 432 610 l 432 1264 l 551 1264 l 551 610 l 999 610 l 999 491 m 999 233 l -16 233 l -16 352 l 999 352 l 999 233 z "},"╨":{"ha":984,"x_min":-16,"x_max":999,"o":"m 999 362 l -16 362 l -16 481 l 303 481 l 303 1264 l 422 1264 l 422 481 l 561 481 l 561 1264 l 680 1264 l 680 481 l 999 481 l 999 362 z "},"╩":{"ha":984,"x_min":-16,"x_max":999,"o":"m 422 491 l -16 491 l -16 610 l 303 610 l 303 1264 l 422 1264 l 422 491 m 999 491 l 561 491 l 561 1264 l 680 1264 l 680 610 l 999 610 l 999 491 m 999 233 l -16 233 l -16 352 l 999 352 l 999 233 z "},"╪":{"ha":984,"x_min":-16,"x_max":999,"o":"m 432 233 l -16 233 l -16 352 l 432 352 l 432 491 l -16 491 l -16 610 l 432 610 l 432 1264 l 551 1264 l 551 610 l 999 610 l 999 491 l 551 491 l 551 352 l 999 352 l 999 233 l 551 233 l 551 -421 l 432 -421 l 432 233 z "},"╫":{"ha":984,"x_min":-16,"x_max":999,"o":"m 303 -421 l 304 362 l -16 362 l -16 481 l 303 481 l 303 1264 l 422 1264 l 422 481 l 561 481 l 561 1264 l 680 1264 l 680 481 l 999 481 l 999 362 l 680 362 l 680 -421 l 561 -421 l 561 362 l 422 362 l 422 -421 l 303 -421 z "},"╬":{"ha":984,"x_min":-16,"x_max":999,"o":"m 680 610 l 999 610 l 999 491 l 562 491 l 562 1264 l 680 1264 l 680 610 m 303 610 l 303 1264 l 422 1264 l 422 491 l -16 491 l -16 610 l 303 610 m 303 233 l -16 233 l -16 352 l 422 352 l 422 -421 l 303 -421 l 303 233 m 680 233 l 680 -421 l 562 -421 l 562 352 l 999 352 l 999 233 l 680 233 z "},"▀":{"ha":984,"x_min":-16,"x_max":999,"o":"m 999 421 l -16 421 l -16 1264 l 999 1264 l 999 421 z "},"▄":{"ha":984,"x_min":-16,"x_max":999,"o":"m 999 -421 l -16 -421 l -16 421 l 999 421 l 999 -421 z "},"█":{"ha":984,"x_min":-16,"x_max":999,"o":"m -16 -421 l -16 1264 l 999 1264 l 999 -421 l -16 -421 z "},"▌":{"ha":984,"x_min":-16,"x_max":492,"o":"m -16 -421 l -16 1264 l 492 1264 l 492 -421 l -16 -421 z "},"▐":{"ha":984,"x_min":492,"x_max":1000,"o":"m 492 -421 l 492 1264 l 1000 1264 l 1000 -421 l 492 -421 z "},"░":{"ha":984,"x_min":69,"x_max":999,"o":"m 69 1264 l 154 1264 l 154 1179 l 69 1179 l 69 1264 m 407 1264 l 492 1264 l 492 1179 l 407 1179 l 407 1264 m 745 1264 l 830 1264 l 830 1179 l 745 1179 l 745 1264 m 238 1095 l 323 1095 l 323 1010 l 238 1010 l 238 1095 m 576 1095 l 661 1095 l 661 1010 l 576 1010 l 576 1095 m 914 1095 l 999 1095 l 999 1010 l 914 1010 l 914 1095 m 745 926 l 830 926 l 830 842 l 745 842 l 745 926 m 407 926 l 492 926 l 492 842 l 407 842 l 407 926 m 69 926 l 154 926 l 154 842 l 69 842 l 69 926 m 914 757 l 999 757 l 999 673 l 914 673 l 914 757 m 576 757 l 661 757 l 661 673 l 576 673 l 576 757 m 238 757 l 323 757 l 323 673 l 238 673 l 238 757 m 69 588 l 154 588 l 154 503 l 69 503 l 69 588 m 407 588 l 492 588 l 492 503 l 407 503 l 407 588 m 745 588 l 830 588 l 830 503 l 745 503 l 745 588 m 914 419 l 999 419 l 999 334 l 914 334 l 914 419 m 576 419 l 661 419 l 661 334 l 576 334 l 576 419 m 238 419 l 323 419 l 323 334 l 238 334 l 238 419 m 69 250 l 154 250 l 154 165 l 69 165 l 69 250 m 407 250 l 492 250 l 492 165 l 407 165 l 407 250 m 745 250 l 830 250 l 830 165 l 745 165 l 745 250 m 238 81 l 323 81 l 323 -3 l 238 -3 l 238 81 m 576 81 l 661 81 l 661 -3 l 576 -3 l 576 81 m 914 81 l 999 81 l 999 -3 l 914 -3 l 914 81 m 745 -88 l 830 -88 l 830 -173 l 745 -173 l 745 -88 m 407 -88 l 492 -88 l 492 -173 l 407 -173 l 407 -88 m 69 -88 l 154 -88 l 154 -173 l 69 -173 l 69 -88 m 238 -257 l 323 -257 l 323 -342 l 238 -342 l 238 -257 m 576 -257 l 661 -257 l 661 -342 l 576 -342 l 576 -257 m 914 -257 l 999 -257 l 999 -342 l 914 -342 l 914 -257 z "},"▒":{"ha":984,"x_min":-15,"x_max":999,"o":"m 70 1264 l 154 1264 l 154 1179 l 70 1179 l 70 1264 m 239 1264 l 323 1264 l 323 1179 l 239 1179 l 239 1264 m 408 1264 l 492 1264 l 492 1179 l 408 1179 l 408 1264 m 576 1264 l 661 1264 l 661 1179 l 576 1179 l 576 1264 m 746 1264 l 830 1264 l 830 1179 l 746 1179 l 746 1264 m 915 1264 l 999 1264 l 999 1179 l 915 1179 l 915 1264 m -15 1095 l 70 1095 l 70 1010 l -15 1010 l -15 1095 m 154 1095 l 239 1095 l 239 1010 l 154 1010 l 154 1095 m 323 1095 l 408 1095 l 408 1010 l 323 1010 l 323 1095 m 492 1095 l 576 1095 l 576 1010 l 492 1010 l 492 1095 m 661 1095 l 746 1095 l 746 1010 l 661 1010 l 661 1095 m 830 1095 l 915 1095 l 915 1010 l 830 1010 l 830 1095 m 70 926 l 154 926 l 154 842 l 70 842 l 70 926 m 239 926 l 323 926 l 323 842 l 239 842 l 239 926 m 408 926 l 492 926 l 492 842 l 408 842 l 408 926 m 576 926 l 661 926 l 661 842 l 576 842 l 576 926 m 746 926 l 830 926 l 830 842 l 746 842 l 746 926 m 915 926 l 999 926 l 999 842 l 915 842 l 915 926 m -15 757 l 70 757 l 70 673 l -15 673 l -15 757 m 154 757 l 239 757 l 239 673 l 154 673 l 154 757 m 323 757 l 408 757 l 408 673 l 323 673 l 323 757 m 492 757 l 576 757 l 576 673 l 492 673 l 492 757 m 661 757 l 746 757 l 746 673 l 661 673 l 661 757 m 830 757 l 915 757 l 915 673 l 830 673 l 830 757 m 70 588 l 154 588 l 154 503 l 70 503 l 70 588 m 239 588 l 323 588 l 323 503 l 239 503 l 239 588 m 408 588 l 492 588 l 492 503 l 408 503 l 408 588 m 576 588 l 661 588 l 661 503 l 576 503 l 576 588 m 746 588 l 830 588 l 830 503 l 746 503 l 746 588 m 915 588 l 999 588 l 999 503 l 915 503 l 915 588 m -15 419 l 70 419 l 70 334 l -15 334 l -15 419 m 323 419 l 408 419 l 408 334 l 323 334 l 323 419 m 492 419 l 576 419 l 576 334 l 492 334 l 492 419 m 661 419 l 746 419 l 746 334 l 661 334 l 661 419 m 830 419 l 915 419 l 915 334 l 830 334 l 830 419 m 154 419 l 239 419 l 239 334 l 154 334 l 154 419 m 915 250 l 999 250 l 999 165 l 915 165 l 915 250 m 746 250 l 830 250 l 830 165 l 746 165 l 746 250 m 576 250 l 661 250 l 661 165 l 576 165 l 576 250 m 408 250 l 492 250 l 492 165 l 408 165 l 408 250 m 239 250 l 323 250 l 323 165 l 239 165 l 239 250 m 70 250 l 154 250 l 154 165 l 70 165 l 70 250 m -15 81 l 70 81 l 70 -3 l -15 -3 l -15 81 m 154 81 l 239 81 l 239 -3 l 154 -3 l 154 81 m 323 81 l 408 81 l 408 -3 l 323 -3 l 323 81 m 492 81 l 576 81 l 576 -3 l 492 -3 l 492 81 m 661 81 l 746 81 l 746 -3 l 661 -3 l 661 81 m 830 81 l 915 81 l 915 -3 l 830 -3 l 830 81 m 915 -88 l 999 -88 l 999 -173 l 915 -173 l 915 -88 m 746 -88 l 830 -88 l 830 -173 l 746 -173 l 746 -88 m 576 -88 l 661 -88 l 661 -173 l 576 -173 l 576 -88 m 408 -88 l 492 -88 l 492 -173 l 408 -173 l 408 -88 m 239 -88 l 323 -88 l 323 -173 l 239 -173 l 239 -88 m 70 -88 l 154 -88 l 154 -173 l 70 -173 l 70 -88 m -15 -257 l 70 -257 l 70 -342 l -15 -342 l -15 -257 m 154 -257 l 239 -257 l 239 -342 l 154 -342 l 154 -257 m 323 -257 l 408 -257 l 408 -342 l 323 -342 l 323 -257 m 492 -257 l 576 -257 l 576 -342 l 492 -342 l 492 -257 m 661 -257 l 746 -257 l 746 -342 l 661 -342 l 661 -257 m 830 -257 l 915 -257 l 915 -342 l 830 -342 l 830 -257 z "},"▓":{"ha":1013,"x_min":-1,"x_max":1013,"o":"m 1013 1010 l 1013 757 l 929 757 l 929 673 l 1013 673 l 1013 419 l 929 419 l 929 334 l 1013 334 l 1013 81 l 929 81 l 929 -3 l 1013 -3 l 1013 -257 l 929 -257 l 929 -342 l 1013 -342 l 1013 -426 l -1 -426 l -1 -173 l 84 -173 l 84 -88 l -1 -88 l -1 165 l 84 165 l 84 250 l -1 250 l -1 503 l 84 503 l 84 588 l -1 588 l -1 842 l 84 842 l 84 926 l -1 926 l -1 1179 l 84 1179 l 84 1264 l 168 1264 l 168 1179 l 253 1179 l 253 1264 l 337 1264 l 337 1179 l 422 1179 l 422 1264 l 507 1264 l 507 1179 l 591 1179 l 591 1264 l 675 1264 l 675 1179 l 760 1179 l 760 1264 l 844 1264 l 844 1179 l 929 1179 l 929 1264 l 1013 1264 l 1013 1095 l 929 1095 l 929 1010 l 1013 1010 m 84 1095 l 84 1010 l 168 1010 l 168 1095 l 84 1095 m 253 1095 l 253 1010 l 337 1010 l 337 1095 l 253 1095 m 422 1095 l 422 1010 l 507 1010 l 507 1095 l 422 1095 m 591 1095 l 591 1010 l 675 1010 l 675 1095 l 591 1095 m 760 1095 l 760 1010 l 844 1010 l 844 1095 l 760 1095 m 929 926 l 844 926 l 844 842 l 929 842 l 929 926 m 760 926 l 675 926 l 675 842 l 760 842 l 760 926 m 591 926 l 507 926 l 507 842 l 591 842 l 591 926 m 422 926 l 337 926 l 337 842 l 422 842 l 422 926 m 253 926 l 168 926 l 168 842 l 253 842 l 253 926 m 84 757 l 84 673 l 168 673 l 168 757 l 84 757 m 253 757 l 253 673 l 337 673 l 337 757 l 253 757 m 422 757 l 422 673 l 507 673 l 507 757 l 422 757 m 591 757 l 591 673 l 675 673 l 675 757 l 591 757 m 760 757 l 760 673 l 844 673 l 844 757 l 760 757 m 253 588 l 168 588 l 168 503 l 253 503 l 253 588 m 337 588 l 337 503 l 422 503 l 422 588 l 337 588 m 507 588 l 507 503 l 591 503 l 591 588 l 507 588 m 675 588 l 675 503 l 760 503 l 760 588 l 675 588 m 844 588 l 844 503 l 929 503 l 929 588 l 844 588 m 84 419 l 84 334 l 168 334 l 168 419 l 84 419 m 422 419 l 422 334 l 507 334 l 507 419 l 422 419 m 337 334 l 337 419 l 253 419 l 253 334 l 337 334 m 591 419 l 591 334 l 675 334 l 675 419 l 591 419 m 760 419 l 760 334 l 844 334 l 844 419 l 760 419 m 929 165 l 929 250 l 844 250 l 844 165 l 929 165 m 760 165 l 760 250 l 675 250 l 675 165 l 760 165 m 591 165 l 591 250 l 507 250 l 507 165 l 591 165 m 422 165 l 422 250 l 337 250 l 337 165 l 422 165 m 253 165 l 253 250 l 168 250 l 168 165 l 253 165 m 84 81 l 84 -3 l 168 -3 l 168 81 l 84 81 m 253 81 l 253 -3 l 337 -3 l 337 81 l 253 81 m 422 81 l 422 -3 l 507 -3 l 507 81 l 422 81 m 591 81 l 591 -3 l 675 -3 l 675 81 l 591 81 m 760 81 l 760 -3 l 844 -3 l 844 81 l 760 81 m 929 -173 l 929 -88 l 844 -88 l 844 -173 l 929 -173 m 760 -173 l 760 -88 l 675 -88 l 675 -173 l 760 -173 m 591 -173 l 591 -88 l 507 -88 l 507 -173 l 591 -173 m 422 -173 l 422 -88 l 337 -88 l 337 -173 l 422 -173 m 253 -173 l 253 -88 l 168 -88 l 168 -173 l 253 -173 m 84 -257 l 84 -342 l 168 -342 l 168 -257 l 84 -257 m 253 -257 l 253 -342 l 337 -342 l 337 -257 l 253 -257 m 422 -257 l 422 -342 l 507 -342 l 507 -257 l 422 -257 m 591 -257 l 591 -342 l 675 -342 l 675 -257 l 591 -257 m 760 -257 l 760 -342 l 844 -342 l 844 -257 l 760 -257 z "},"■":{"ha":839,"x_min":99,"x_max":739,"o":"m 99 640 l 739 640 l 739 0 l 99 0 l 99 640 z "},"▬":{"ha":1389,"x_min":0,"x_max":1388,"o":"m 0 477 l 1388 477 l 1388 215 l 0 215 l 0 477 z "},"▲":{"ha":1375,"x_min":206,"x_max":1169,"o":"m 206 0 l 688 962 l 1169 0 l 206 0 z "},"►":{"ha":1375,"x_min":195,"x_max":1179,"o":"m 195 961 l 1179 470 l 195 -21 l 195 961 z "},"▼":{"ha":1375,"x_min":206,"x_max":1169,"o":"m 1169 941 l 688 -21 l 206 941 l 1169 941 z "},"◄":{"ha":1375,"x_min":195,"x_max":1179,"o":"m 1179 961 l 1179 -21 l 195 470 l 1179 961 z "},"○":{"ha":839,"x_min":121,"x_max":718,"o":"m 419 690 q 566 652 494 690 q 678 541 638 613 q 718 392 718 469 q 631 180 718 268 q 420 93 543 93 q 208 180 296 93 q 121 392 121 268 q 161 542 121 470 q 273 652 201 613 q 419 690 345 690 m 420 639 q 298 607 357 639 q 205 515 239 575 q 172 392 172 456 q 245 217 172 290 q 420 144 317 144 q 594 217 522 144 q 667 392 667 290 q 633 515 667 456 q 541 607 600 575 q 420 639 482 639 z "},"◘":{"ha":839,"x_min":87,"x_max":751,"o":"m 87 0 l 87 665 l 751 665 l 751 0 l 87 0 m 419 469 q 322 429 362 469 q 282 332 282 389 q 322 236 282 276 q 419 195 363 195 q 516 236 476 195 q 556 332 556 276 q 516 429 556 389 q 419 469 476 469 z "},"◙":{"ha":839,"x_min":28,"x_max":812,"o":"m 28 0 l 28 783 l 812 783 l 812 0 l 28 0 m 420 690 q 273 652 345 690 q 161 541 201 613 q 121 391 121 469 q 209 180 121 268 q 420 93 296 93 q 631 180 544 93 q 719 391 719 268 q 679 541 719 469 q 567 652 639 613 q 420 690 496 690 m 420 639 q 542 607 482 639 q 634 516 601 575 q 667 391 667 456 q 595 217 667 289 q 420 144 523 144 q 245 217 317 144 q 173 391 173 289 q 206 516 173 456 q 299 607 239 575 q 420 639 358 639 z "},"☺":{"ha":1418,"x_min":277,"x_max":1141,"o":"m 1141 351 q 1015 46 1141 172 q 709 -81 888 -81 q 404 46 530 -81 q 277 351 277 172 q 404 657 277 531 q 709 784 530 784 q 1015 657 888 784 q 1141 351 1141 531 m 1079 351 q 971 613 1079 505 q 709 721 863 721 q 448 613 556 721 q 340 351 340 505 q 448 91 340 199 q 709 -18 556 -18 q 971 91 863 -18 q 1079 351 1079 199 m 598 441 q 582 402 598 418 q 543 386 566 386 q 505 402 521 386 q 488 441 488 418 q 505 480 488 464 q 543 496 521 496 q 582 480 566 496 q 598 441 598 464 m 930 441 q 914 402 930 418 q 875 386 898 386 q 836 402 852 386 q 820 441 820 418 q 836 480 820 464 q 875 496 852 496 q 914 480 898 496 q 930 441 930 464 m 510 212 l 552 237 q 709 139 606 139 q 866 237 813 139 l 909 212 q 825 114 875 148 q 709 80 775 80 q 593 114 643 80 q 510 212 544 148 z "},"☻":{"ha":1461,"x_min":298,"x_max":1163,"o":"m 1163 351 q 1037 46 1163 172 q 731 -81 910 -81 q 425 46 552 -81 q 298 351 298 172 q 425 657 298 531 q 731 784 552 784 q 1037 657 910 784 q 1163 351 1163 531 m 620 441 q 604 480 620 464 q 565 496 588 496 q 526 480 543 496 q 510 441 510 464 q 526 402 510 418 q 565 386 543 386 q 604 402 588 386 q 620 441 620 418 m 951 441 q 936 480 951 464 q 897 496 920 496 q 858 480 874 496 q 842 441 842 464 q 858 402 842 418 q 897 386 874 386 q 936 402 920 386 q 951 441 951 418 m 532 212 q 615 114 566 148 q 731 80 665 80 q 847 114 797 80 q 930 212 897 148 l 888 237 q 731 139 835 139 q 574 237 627 139 l 532 212 z "},"☼":{"ha":1273,"x_min":11,"x_max":1263,"o":"m 612 1099 l 663 1099 l 663 871 q 786 845 732 866 q 900 775 840 823 l 1097 968 l 1132 932 l 938 738 q 1008 623 987 673 q 1035 495 1034 558 l 1263 495 l 1263 448 l 1036 448 q 939 213 1023 320 l 1132 16 l 1093 -18 l 901 173 q 785 105 835 124 q 663 77 736 85 l 663 -151 l 612 -151 l 612 77 q 484 109 536 87 q 378 171 432 130 l 178 -18 l 144 17 l 337 211 q 269 323 292 268 q 239 451 246 379 l 11 451 l 11 498 l 239 498 q 267 624 245 570 q 336 734 290 677 l 144 929 l 176 968 l 374 777 q 496 845 443 824 q 612 871 549 865 l 612 1099 m 983 474 q 881 720 983 618 q 635 821 779 821 q 390 720 492 821 q 288 474 288 618 q 390 228 288 330 q 635 126 492 126 q 881 228 779 126 q 983 474 983 330 z "},"♀":{"ha":1042,"x_min":165,"x_max":876,"o":"m 540 313 l 540 40 l 851 40 l 851 0 l 540 0 l 540 -298 l 500 -298 l 500 0 l 188 0 l 188 40 l 500 40 l 500 313 q 347 357 430 313 q 215 487 264 401 q 165 667 165 572 q 213 844 165 759 q 344 975 260 928 q 521 1022 428 1022 q 697 975 613 1022 q 829 843 782 928 q 876 667 876 759 q 778 422 876 525 q 540 313 681 319 m 520 984 q 364 943 440 984 q 245 825 288 902 q 202 666 202 749 q 295 440 202 534 q 520 347 389 347 q 746 440 652 347 q 839 666 839 534 q 796 825 839 749 q 677 943 753 902 q 520 984 601 984 z "},"♂":{"ha":1042,"x_min":75,"x_max":960,"o":"m 825 1099 l 849 1088 l 960 636 l 921 626 l 825 1020 l 582 499 q 734 362 682 448 q 785 178 785 276 q 739 1 785 85 q 607 -131 692 -83 q 430 -178 523 -178 q 253 -131 338 -178 q 122 1 169 -83 q 75 178 75 85 q 179 429 75 325 q 432 532 283 532 q 545 514 485 532 l 789 1037 l 425 857 l 408 893 l 825 1099 m 430 496 q 274 455 350 496 q 155 337 197 414 q 112 178 112 260 q 205 -48 112 45 q 430 -141 298 -141 q 655 -48 562 -141 q 749 178 749 45 q 706 337 749 260 q 587 455 663 414 q 430 496 511 496 z "},"♠":{"ha":738,"x_min":39,"x_max":699,"o":"m 370 835 q 424 704 387 762 q 554 561 460 646 q 673 431 648 476 q 699 338 699 385 q 655 230 699 273 q 549 186 612 186 q 453 219 496 186 q 377 315 410 252 q 403 157 378 216 q 485 65 429 98 q 633 25 541 31 l 638 0 l 100 0 l 106 25 q 299 98 231 25 q 366 315 368 171 q 290 219 335 251 q 188 186 245 186 q 83 231 127 186 q 39 336 39 275 q 62 426 39 386 q 161 538 92 481 q 262 631 229 594 q 334 731 311 687 q 370 835 357 775 z "},"♣":{"ha":911,"x_min":37,"x_max":873,"o":"m 745 0 l 170 0 l 175 23 q 323 70 287 47 q 413 172 378 104 q 448 315 448 240 q 448 347 448 326 q 347 224 406 262 q 226 185 288 185 q 92 240 147 185 q 37 375 37 295 q 87 508 37 454 q 201 562 138 562 q 312 527 242 562 q 275 598 283 574 q 267 650 267 623 q 320 781 267 728 q 454 835 374 835 q 588 781 534 835 q 643 654 643 728 q 596 527 643 593 q 665 557 653 554 q 706 563 683 563 q 824 510 774 563 q 873 378 873 456 q 819 241 873 296 q 688 186 764 186 q 600 207 645 186 q 522 262 555 227 q 463 347 498 287 q 495 176 465 239 q 588 72 526 113 q 739 23 630 44 l 745 0 z "},"♥":{"ha":825,"x_min":43,"x_max":782,"o":"m 414 -16 q 354 134 393 64 q 203 352 315 204 q 102 490 121 460 q 57 577 71 537 q 43 657 43 616 q 93 783 43 732 q 217 834 143 834 q 347 781 292 834 q 414 664 388 742 q 477 781 436 741 q 607 835 533 835 q 731 784 680 835 q 782 664 782 734 q 752 537 782 603 q 637 363 722 471 q 475 133 526 223 q 414 -16 435 62 z "},"♦":{"ha":709,"x_min":43,"x_max":666,"o":"m 353 835 q 502 615 414 732 q 666 410 604 479 q 502 205 616 357 q 354 -16 410 81 q 304 66 336 19 q 168 255 249 147 q 43 410 150 279 q 220 632 112 488 q 353 835 300 739 z "},"♪":{"ha":694,"x_min":25,"x_max":669,"o":"m 330 924 l 355 924 q 509 915 472 924 q 604 863 563 901 q 652 782 634 834 q 669 661 669 730 l 669 591 l 602 591 l 602 621 q 583 699 602 667 q 526 748 564 731 q 416 770 476 770 l 397 770 l 397 203 q 375 76 397 121 q 300 2 353 30 q 185 -25 248 -25 q 68 17 111 -25 q 25 126 25 58 q 77 246 25 197 q 212 294 128 294 q 330 263 264 294 l 330 924 z "},"♫":{"ha":1042,"x_min":58,"x_max":902,"o":"m 362 862 l 902 1030 l 902 279 q 881 152 902 195 q 808 81 859 109 q 692 54 757 54 q 574 96 618 54 q 530 205 530 138 q 583 322 530 273 q 718 372 635 372 q 765 367 745 372 q 833 342 786 362 l 833 833 l 429 708 l 429 141 q 408 13 429 59 q 333 -60 386 -33 q 218 -87 280 -87 q 101 -45 144 -87 q 58 64 58 -3 q 109 183 58 135 q 244 232 161 232 q 362 201 297 232 l 362 862 z "},"Ĳ":{"ha":1019,"x_min":79,"x_max":1068,"o":"m 79 0 l 288 994 l 420 994 l 212 0 l 79 0 m 380 290 l 504 298 q 493 214 493 241 q 527 126 493 159 q 623 93 562 93 q 700 113 667 93 q 755 175 734 133 q 788 290 771 207 l 936 994 l 1068 994 l 917 268 q 810 49 885 115 q 620 -17 736 -17 q 433 40 496 -17 q 370 200 370 97 q 380 290 370 245 z "},"ĳ":{"ha":616,"x_min":40,"x_max":686,"o":"m 219 855 l 248 994 l 370 994 l 341 855 l 219 855 m 40 0 l 191 720 l 313 720 l 163 0 l 40 0 m 535 855 l 564 994 l 686 994 l 656 855 l 535 855 m 146 -271 l 168 -166 q 243 -178 210 -178 q 306 -152 282 -178 q 354 -7 329 -125 l 505 720 l 628 720 l 472 -29 q 405 -220 443 -170 q 263 -288 354 -288 q 146 -271 215 -288 z "},"ŉ":{"ha":854,"x_min":68,"x_max":819,"o":"m 132 0 l 283 720 l 394 720 l 368 595 q 503 703 440 669 q 632 736 566 736 q 769 689 720 736 q 819 562 819 642 q 802 436 819 522 l 710 0 l 587 0 l 683 456 q 697 555 697 523 q 672 613 697 591 q 601 635 648 635 q 433 568 507 635 q 325 335 359 500 l 255 0 l 132 0 m 111 851 l 140 990 l 279 990 l 254 868 q 183 708 231 759 q 68 650 134 658 l 80 703 q 186 851 160 726 l 111 851 z "},"′":{"ha":260,"x_min":176,"x_max":359,"o":"m 176 642 l 184 828 l 220 994 l 359 994 l 323 828 l 252 642 l 176 642 z "},"″":{"ha":492,"x_min":188,"x_max":595,"o":"m 188 642 l 196 828 l 231 994 l 371 994 l 335 828 l 264 642 l 188 642 m 412 642 l 420 828 l 456 994 l 595 994 l 559 828 l 488 642 l 412 642 z "},"℅":{"ha":1230,"x_min":125,"x_max":1208,"o":"m 176 -37 l 998 1011 l 1109 1011 l 290 -37 l 176 -37 m 448 673 l 533 664 q 441 525 500 570 q 307 479 382 479 q 175 532 226 479 q 125 679 125 585 q 157 841 125 762 q 251 961 190 920 q 388 1002 311 1002 q 516 957 469 1002 q 563 837 563 911 l 479 831 q 452 906 479 879 q 380 932 425 932 q 291 900 329 932 q 232 800 254 867 q 211 675 211 734 q 239 577 211 610 q 309 545 267 545 q 389 577 351 545 q 448 673 427 609 m 735 190 q 813 424 735 336 q 1009 511 892 511 q 1153 455 1098 511 q 1208 304 1208 399 q 1129 75 1208 161 q 939 -12 1050 -12 q 791 44 847 -12 q 735 190 735 99 m 821 198 q 854 91 821 128 q 939 54 888 54 q 1074 134 1023 54 q 1124 304 1124 214 q 1090 408 1124 370 q 1006 446 1057 446 q 910 412 954 446 q 843 317 866 378 q 821 198 821 256 z "},"ℓ":{"ha":449,"x_min":17,"x_max":586,"o":"m 17 397 l 163 507 l 255 808 q 322 953 288 913 q 450 1011 374 1011 q 548 974 510 1011 q 586 883 586 937 q 558 784 586 842 q 459 652 530 726 q 277 489 407 597 l 179 170 q 165 108 165 127 q 172 84 165 92 q 191 77 179 77 q 239 89 212 77 q 347 152 267 100 l 319 37 q 169 -16 236 -16 q 82 15 114 -16 q 50 98 50 46 q 73 221 50 145 l 119 368 l 58 323 l 17 397 m 326 646 q 461 794 431 745 q 491 880 491 842 q 480 918 491 905 q 453 930 469 930 q 422 915 436 930 q 380 823 402 894 l 326 646 z "},"□":{"ha":839,"x_min":99,"x_max":739,"o":"m 99 640 l 739 640 l 739 0 l 99 0 l 99 640 m 151 589 l 151 52 l 688 52 l 688 589 l 151 589 z "},"▪":{"ha":492,"x_min":89,"x_max":403,"o":"m 403 616 l 403 302 l 89 302 l 89 616 l 403 616 z "},"▫":{"ha":492,"x_min":89,"x_max":403,"o":"m 403 616 l 403 302 l 89 302 l 89 616 l 403 616 m 351 565 l 140 564 l 140 353 l 351 353 l 351 565 z "},"●":{"ha":839,"x_min":121,"x_max":718,"o":"m 420 690 q 566 652 494 690 q 678 541 638 613 q 718 392 718 469 q 631 180 718 268 q 420 93 543 93 q 208 180 296 93 q 121 392 121 268 q 161 542 121 470 q 273 652 201 613 q 420 690 345 690 z "},"◦":{"ha":492,"x_min":76,"x_max":416,"o":"m 246 629 q 367 579 317 629 q 416 459 416 530 q 367 339 416 389 q 246 289 317 289 q 126 339 176 289 q 76 459 76 389 q 125 579 76 530 q 246 629 175 629 m 246 578 q 162 543 197 578 q 127 459 127 508 q 162 375 127 410 q 246 340 197 340 q 330 375 295 340 q 365 459 365 410 q 330 543 365 508 q 246 578 296 578 z "},"Ā":{"ha":926,"x_min":-28,"x_max":858,"o":"m -28 0 l 536 994 l 692 994 l 857 0 l 728 0 l 680 286 l 277 286 l 118 0 l -28 0 m 334 389 l 663 389 l 625 638 q 597 886 602 787 q 498 683 563 800 l 334 389 m 417 1079 l 437 1173 l 858 1173 l 838 1079 l 417 1079 z "},"ā":{"ha":772,"x_min":61,"x_max":732,"o":"m 532 90 q 409 9 468 35 q 283 -16 350 -16 q 122 42 183 -16 q 61 193 61 101 q 89 299 61 253 q 161 374 116 346 q 273 414 207 402 q 430 427 314 422 q 595 452 545 432 q 610 535 610 502 q 578 602 610 578 q 454 636 536 636 q 327 602 376 636 q 256 505 278 568 l 132 515 q 252 680 170 623 q 460 736 334 736 q 671 673 593 736 q 731 549 731 625 q 714 416 731 492 l 674 237 q 655 98 655 151 q 670 0 655 64 l 546 0 q 532 90 536 35 m 577 365 q 522 349 551 355 q 423 338 492 344 q 272 314 316 328 q 205 267 228 299 q 183 197 183 235 q 219 112 183 145 q 320 79 254 79 q 437 111 381 79 q 526 201 494 143 q 577 365 559 258 m 292 833 l 311 928 l 732 928 l 713 833 l 292 833 z "},"Ĉ":{"ha":1003,"x_min":126,"x_max":1015,"o":"m 838 350 l 969 332 q 787 71 907 159 q 519 -17 668 -17 q 232 94 338 -17 q 126 410 126 204 q 288 854 126 679 q 645 1011 431 1011 q 901 926 803 1011 q 1015 699 999 842 l 890 687 q 809 848 871 795 q 651 901 748 901 q 356 739 469 901 q 258 408 258 600 q 334 174 258 254 q 530 93 409 93 q 716 160 633 93 q 838 350 800 227 m 473 1055 l 652 1242 l 788 1242 l 872 1055 l 765 1055 l 711 1176 l 599 1055 l 473 1055 z "},"ĉ":{"ha":694,"x_min":78,"x_max":709,"o":"m 543 262 l 666 250 q 535 49 620 115 q 341 -16 450 -16 q 151 60 224 -16 q 78 272 78 136 q 125 504 78 390 q 259 677 172 618 q 458 736 346 736 q 642 671 574 736 q 709 498 709 606 l 589 490 q 549 597 588 558 q 446 635 510 635 q 318 589 372 635 q 233 447 264 542 q 202 263 202 351 q 243 125 202 171 q 343 79 283 79 q 457 124 403 79 q 543 262 512 170 m 272 808 l 452 994 l 587 994 l 671 808 l 564 808 l 510 928 l 398 808 l 272 808 z "},"Ċ":{"ha":1003,"x_min":126,"x_max":1015,"o":"m 838 350 l 969 332 q 787 71 907 159 q 519 -17 668 -17 q 232 94 338 -17 q 126 410 126 204 q 288 854 126 679 q 645 1011 431 1011 q 901 926 803 1011 q 1015 699 999 842 l 890 687 q 809 848 871 795 q 651 901 748 901 q 356 739 469 901 q 258 408 258 600 q 334 174 258 254 q 530 93 409 93 q 716 160 633 93 q 838 350 800 227 m 605 1055 l 637 1206 l 788 1206 l 755 1055 l 605 1055 z "},"ċ":{"ha":694,"x_min":78,"x_max":709,"o":"m 543 262 l 666 250 q 535 49 620 115 q 341 -16 450 -16 q 151 60 224 -16 q 78 272 78 136 q 125 504 78 390 q 259 677 172 618 q 458 736 346 736 q 642 671 574 736 q 709 498 709 606 l 589 490 q 549 597 588 558 q 446 635 510 635 q 318 589 372 635 q 233 447 264 542 q 202 263 202 351 q 243 125 202 171 q 343 79 283 79 q 457 124 403 79 q 543 262 512 170 m 386 820 l 418 971 l 569 971 l 536 820 l 386 820 z "},"Ē":{"ha":926,"x_min":62,"x_max":988,"o":"m 62 0 l 271 994 l 988 994 l 964 881 l 380 881 l 315 572 l 884 572 l 861 458 l 291 458 l 219 113 l 845 113 l 821 0 l 62 0 m 431 1079 l 451 1173 l 872 1173 l 852 1079 l 431 1079 z "},"ē":{"ha":772,"x_min":72,"x_max":739,"o":"m 575 245 l 694 233 q 576 64 669 144 q 355 -16 484 -16 q 209 21 275 -16 q 107 128 142 58 q 72 289 72 199 q 126 518 72 407 q 268 683 181 629 q 456 736 355 736 q 662 656 585 736 q 739 438 739 576 q 729 330 739 385 l 199 330 q 196 292 196 309 q 242 137 196 191 q 356 84 289 84 q 480 125 419 84 q 575 245 541 167 m 218 423 l 623 423 q 623 450 623 442 q 577 592 623 543 q 458 641 531 641 q 315 587 380 641 q 218 423 250 532 m 284 833 l 304 928 l 725 928 l 705 833 l 284 833 z "},"Ĕ":{"ha":926,"x_min":62,"x_max":988,"o":"m 62 0 l 271 994 l 988 994 l 964 881 l 380 881 l 315 572 l 884 572 l 861 458 l 291 458 l 219 113 l 845 113 l 821 0 l 62 0 m 444 1231 l 524 1231 q 557 1159 531 1181 q 629 1136 583 1136 q 714 1161 678 1136 q 768 1231 749 1186 l 850 1231 q 766 1102 827 1149 q 625 1055 705 1055 q 497 1102 547 1055 q 444 1231 448 1150 z "},"ĕ":{"ha":772,"x_min":72,"x_max":739,"o":"m 575 245 l 694 233 q 576 64 669 144 q 355 -16 484 -16 q 209 21 275 -16 q 107 128 142 58 q 72 289 72 199 q 126 518 72 407 q 268 683 181 629 q 456 736 355 736 q 662 656 585 736 q 739 438 739 576 q 729 330 739 385 l 199 330 q 196 292 196 309 q 242 137 196 191 q 356 84 289 84 q 480 125 419 84 q 575 245 541 167 m 218 423 l 623 423 q 623 450 623 442 q 577 592 623 543 q 458 641 531 641 q 315 587 380 641 q 218 423 250 532 m 306 964 l 386 964 q 419 892 393 915 q 492 869 445 869 q 576 895 541 869 q 631 964 612 920 l 712 964 q 628 836 689 883 q 488 788 568 788 q 359 836 409 788 q 306 964 310 884 z "},"Ė":{"ha":926,"x_min":62,"x_max":988,"o":"m 62 0 l 271 994 l 988 994 l 964 881 l 380 881 l 315 572 l 884 572 l 861 458 l 291 458 l 219 113 l 845 113 l 821 0 l 62 0 m 566 1055 l 598 1206 l 749 1206 l 717 1055 l 566 1055 z "},"ė":{"ha":772,"x_min":72,"x_max":739,"o":"m 575 245 l 694 233 q 576 64 669 144 q 355 -16 484 -16 q 209 21 275 -16 q 107 128 142 58 q 72 289 72 199 q 126 518 72 407 q 268 683 181 629 q 456 736 355 736 q 662 656 585 736 q 739 438 739 576 q 729 330 739 385 l 199 330 q 196 292 196 309 q 242 137 196 191 q 356 84 289 84 q 480 125 419 84 q 575 245 541 167 m 218 423 l 623 423 q 623 450 623 442 q 577 592 623 543 q 458 641 531 641 q 315 587 380 641 q 218 423 250 532 m 425 820 l 456 971 l 608 971 l 575 820 l 425 820 z "},"Ĝ":{"ha":1080,"x_min":135,"x_max":1064,"o":"m 569 392 l 593 505 l 1028 505 l 943 100 q 756 16 861 48 q 549 -17 651 -17 q 225 114 332 -17 q 135 398 135 224 q 214 724 135 577 q 413 941 293 871 q 681 1011 534 1011 q 871 973 787 1011 q 1000 870 955 935 q 1064 703 1044 806 l 934 689 q 847 846 913 791 q 677 901 781 901 q 475 842 569 901 q 326 665 382 783 q 270 396 270 547 q 344 170 270 246 q 548 93 418 93 q 827 178 677 93 l 871 392 l 569 392 m 511 1055 l 691 1242 l 827 1242 l 911 1055 l 804 1055 l 749 1176 l 637 1055 l 511 1055 z "},"ĝ":{"ha":772,"x_min":36,"x_max":784,"o":"m 39 -65 l 163 -77 q 174 -140 162 -119 q 210 -172 185 -161 q 296 -187 243 -187 q 456 -130 408 -187 q 515 39 488 -91 l 528 97 q 324 0 432 0 q 141 80 215 0 q 68 308 68 161 q 126 531 68 429 q 264 685 184 633 q 429 736 344 736 q 647 602 570 736 l 671 720 l 784 720 l 639 25 q 576 -154 615 -90 q 469 -253 538 -218 q 310 -288 400 -288 q 160 -266 223 -288 q 67 -200 98 -243 q 36 -102 36 -157 q 39 -65 36 -85 m 193 319 q 207 208 193 245 q 265 128 227 155 q 349 100 302 100 q 469 143 409 100 q 565 274 528 185 q 602 444 602 363 q 553 585 602 532 q 431 637 504 637 q 345 613 387 637 q 266 540 302 589 q 211 422 230 491 q 193 319 193 354 m 294 808 l 474 994 l 610 994 l 694 808 l 587 808 l 532 928 l 420 808 l 294 808 z "},"Ġ":{"ha":1080,"x_min":135,"x_max":1064,"o":"m 569 392 l 593 505 l 1028 505 l 943 100 q 756 16 861 48 q 549 -17 651 -17 q 225 114 332 -17 q 135 398 135 224 q 214 724 135 577 q 413 941 293 871 q 681 1011 534 1011 q 871 973 787 1011 q 1000 870 955 935 q 1064 703 1044 806 l 934 689 q 847 846 913 791 q 677 901 781 901 q 475 842 569 901 q 326 665 382 783 q 270 396 270 547 q 344 170 270 246 q 548 93 418 93 q 827 178 677 93 l 871 392 l 569 392 m 630 1055 l 662 1206 l 813 1206 l 781 1055 l 630 1055 z "},"ġ":{"ha":772,"x_min":36,"x_max":784,"o":"m 39 -65 l 163 -77 q 174 -140 162 -119 q 210 -172 185 -161 q 296 -187 243 -187 q 456 -130 408 -187 q 515 39 488 -91 l 528 97 q 324 0 432 0 q 141 80 215 0 q 68 308 68 161 q 126 531 68 429 q 264 685 184 633 q 429 736 344 736 q 647 602 570 736 l 671 720 l 784 720 l 639 25 q 576 -154 615 -90 q 469 -253 538 -218 q 310 -288 400 -288 q 160 -266 223 -288 q 67 -200 98 -243 q 36 -102 36 -157 q 39 -65 36 -85 m 193 319 q 207 208 193 245 q 265 128 227 155 q 349 100 302 100 q 469 143 409 100 q 565 274 528 185 q 602 444 602 363 q 553 585 602 532 q 431 637 504 637 q 345 613 387 637 q 266 540 302 589 q 211 422 230 491 q 193 319 193 354 m 425 820 l 457 971 l 608 971 l 576 820 l 425 820 z "},"Ģ":{"ha":1080,"x_min":135,"x_max":1064,"o":"m 569 392 l 593 505 l 1028 505 l 943 100 q 756 16 861 48 q 549 -17 651 -17 q 225 114 332 -17 q 135 398 135 224 q 214 724 135 577 q 413 941 293 871 q 681 1011 534 1011 q 871 973 787 1011 q 1000 870 955 935 q 1064 703 1044 806 l 934 689 q 847 846 913 791 q 677 901 781 901 q 475 842 569 901 q 326 665 382 783 q 270 396 270 547 q 344 170 270 246 q 548 93 418 93 q 827 178 677 93 l 871 392 l 569 392 m 444 -201 l 470 -82 l 603 -82 l 581 -182 q 515 -298 567 -245 q 393 -357 463 -351 l 406 -298 q 507 -201 473 -281 l 444 -201 z "},"ģ":{"ha":772,"x_min":36,"x_max":784,"o":"m 560 912 l 535 793 l 393 793 l 410 873 q 566 1069 443 1024 l 591 1013 q 495 912 522 986 l 560 912 m 39 -65 l 163 -77 q 163 -92 163 -86 q 299 -187 163 -187 q 412 -164 368 -187 q 476 -98 456 -141 q 515 39 496 -54 l 528 97 q 326 0 432 0 q 141 82 213 0 q 68 307 68 163 q 115 510 68 412 q 246 673 161 609 q 429 736 332 736 q 647 602 571 736 l 671 720 l 784 720 l 639 25 q 507 -230 597 -172 q 307 -288 416 -288 q 108 -241 180 -288 q 36 -100 36 -195 q 39 -65 36 -85 m 193 290 q 235 157 193 213 q 349 100 278 100 q 529 208 456 100 q 602 443 602 315 q 552 586 602 534 q 434 637 503 637 q 263 534 333 637 q 193 290 193 431 z "},"Ĥ":{"ha":1003,"x_min":58,"x_max":1047,"o":"m 58 0 l 267 994 l 399 994 l 313 581 l 828 581 l 914 994 l 1047 994 l 840 0 l 707 0 l 804 469 l 290 469 l 191 0 l 58 0 m 468 1055 l 648 1242 l 783 1242 l 867 1055 l 760 1055 l 706 1176 l 594 1055 l 468 1055 z "},"ĥ":{"ha":772,"x_min":46,"x_max":734,"o":"m 46 0 l 254 994 l 376 994 l 297 612 q 425 708 366 679 q 546 736 484 736 q 685 689 635 736 q 734 565 734 642 q 713 425 734 527 l 624 0 l 501 0 l 593 436 q 612 555 612 531 q 588 613 612 591 q 517 635 564 635 q 391 601 451 635 q 296 505 330 566 q 233 309 262 444 l 169 0 l 46 0 m 326 1055 l 505 1242 l 641 1242 l 725 1055 l 618 1055 l 564 1176 l 452 1055 l 326 1055 z "},"Ħ":{"ha":1003,"x_min":58,"x_max":1107,"o":"m 214 743 l 121 743 l 140 833 l 233 833 l 267 994 l 399 994 l 366 833 l 881 833 l 914 994 l 1047 994 l 1014 833 l 1107 833 l 1088 743 l 995 743 l 840 0 l 707 0 l 804 469 l 289 469 l 191 0 l 58 0 l 214 743 m 347 743 l 313 581 l 828 581 l 862 743 l 347 743 z "},"ħ":{"ha":772,"x_min":46,"x_max":734,"o":"m 338 812 l 297 612 q 549 736 421 736 q 684 691 633 736 q 734 570 734 646 q 713 425 734 526 l 624 0 l 501 0 l 593 436 q 612 557 612 531 q 587 613 612 591 q 515 635 562 635 q 380 594 444 635 q 287 487 317 553 q 233 309 257 421 l 169 0 l 46 0 l 216 812 l 130 812 l 149 903 l 235 903 l 254 994 l 376 994 l 357 903 l 583 903 l 564 812 l 338 812 z "},"Ĩ":{"ha":386,"x_min":79,"x_max":608,"o":"m 79 0 l 288 994 l 420 994 l 212 0 l 79 0 m 149 1055 q 204 1176 172 1145 q 287 1207 237 1207 q 331 1202 309 1207 q 405 1173 352 1196 q 477 1149 458 1149 q 505 1161 493 1149 q 526 1203 517 1172 l 608 1203 q 563 1094 601 1133 q 474 1055 524 1055 q 406 1072 447 1055 q 290 1113 312 1113 q 254 1099 269 1113 q 234 1055 240 1085 l 149 1055 z "},"ĩ":{"ha":309,"x_min":41,"x_max":526,"o":"m 41 0 l 192 720 l 315 720 l 164 0 l 41 0 m 67 829 q 122 950 90 919 q 205 981 155 981 q 249 975 227 981 q 323 946 270 970 q 395 923 376 923 q 423 934 411 923 q 444 977 435 945 l 526 977 q 480 867 519 907 q 392 828 442 828 q 323 846 365 828 q 208 886 230 886 q 172 872 186 886 q 152 829 158 859 l 67 829 z "},"Ī":{"ha":386,"x_min":79,"x_max":597,"o":"m 79 0 l 288 994 l 420 994 l 212 0 l 79 0 m 157 1079 l 176 1173 l 597 1173 l 578 1079 l 157 1079 z "},"ī":{"ha":309,"x_min":41,"x_max":512,"o":"m 41 0 l 192 720 l 315 720 l 164 0 l 41 0 m 71 833 l 91 928 l 512 928 l 492 833 l 71 833 z "},"Ĭ":{"ha":386,"x_min":79,"x_max":599,"o":"m 79 0 l 288 994 l 420 994 l 212 0 l 79 0 m 193 1231 l 273 1231 q 306 1159 280 1181 q 378 1136 332 1136 q 463 1161 427 1136 q 517 1231 498 1186 l 599 1231 q 515 1102 576 1149 q 374 1055 454 1055 q 246 1102 296 1055 q 193 1231 197 1150 z "},"ĭ":{"ha":309,"x_min":41,"x_max":503,"o":"m 41 0 l 192 720 l 315 720 l 164 0 l 41 0 m 97 964 l 177 964 q 210 892 184 915 q 283 869 236 869 q 367 895 332 869 q 422 964 403 920 l 503 964 q 419 836 480 883 q 279 788 359 788 q 151 836 200 788 q 97 964 101 884 z "},"Į":{"ha":386,"x_min":-24,"x_max":420,"o":"m 79 0 l 288 994 l 420 994 l 212 0 l 79 0 m 205 -181 l 187 -268 q 90 -292 133 -292 q -6 -254 23 -292 q -24 -196 -24 -231 q 22 -79 -24 -139 q 108 0 55 -37 l 197 0 q 88 -130 105 -50 q 86 -149 86 -139 q 140 -197 86 -197 q 205 -181 172 -197 z "},"į":{"ha":309,"x_min":-72,"x_max":372,"o":"m 220 855 l 250 994 l 372 994 l 342 855 l 220 855 m 41 0 l 192 720 l 315 720 l 164 0 l 41 0 m 158 -181 l 140 -268 q 42 -292 85 -292 q -54 -254 -24 -292 q -72 -196 -72 -231 q -26 -79 -72 -139 q 60 0 7 -37 l 150 0 q 41 -130 58 -50 q 39 -149 39 -139 q 93 -197 39 -197 q 158 -181 125 -197 z "},"Ĵ":{"ha":694,"x_min":46,"x_max":869,"o":"m 56 290 l 180 298 q 169 214 169 241 q 203 126 169 159 q 298 93 237 93 q 376 113 342 93 q 431 175 410 133 q 464 290 447 207 l 612 994 l 744 994 l 593 268 q 486 49 561 115 q 296 -17 412 -17 q 109 40 172 -17 q 46 200 46 97 q 56 290 46 245 m 469 1055 l 649 1242 l 785 1242 l 869 1055 l 762 1055 l 707 1176 l 595 1055 l 469 1055 z "},"ĵ":{"ha":309,"x_min":-168,"x_max":459,"o":"m 60 808 l 239 994 l 375 994 l 459 808 l 352 808 l 298 928 l 186 808 l 60 808 m -168 -271 l -146 -166 q -73 -178 -106 -178 q -5 -148 -27 -178 q 39 -7 16 -117 l 191 720 l 313 720 l 157 -29 q 83 -229 127 -170 q -52 -288 39 -288 q -168 -271 -100 -288 z "},"Ķ":{"ha":926,"x_min":62,"x_max":1029,"o":"m 62 0 l 269 994 l 402 994 l 302 515 l 842 994 l 1029 994 l 568 589 l 906 0 l 758 0 l 471 504 l 262 323 l 195 0 l 62 0 m 370 -201 l 395 -82 l 528 -82 l 507 -182 q 440 -298 492 -245 q 319 -357 388 -351 l 331 -298 q 433 -201 399 -281 l 370 -201 z "},"ķ":{"ha":694,"x_min":47,"x_max":769,"o":"m 47 0 l 256 994 l 378 994 l 249 378 l 607 720 l 769 720 l 462 452 l 648 0 l 513 0 l 370 370 l 220 241 l 170 0 l 47 0 m 239 -201 l 265 -82 l 398 -82 l 376 -182 q 310 -298 362 -245 q 189 -357 258 -351 l 201 -298 q 302 -201 269 -281 l 239 -201 z "},"ĸ":{"ha":694,"x_min":47,"x_max":769,"o":"m 47 0 l 198 720 l 321 720 l 250 378 l 607 720 l 769 720 l 462 452 l 648 0 l 513 0 l 370 370 l 220 241 l 170 0 l 47 0 z "},"Ļ":{"ha":772,"x_min":56,"x_max":728,"o":"m 56 0 l 263 994 l 396 994 l 212 113 l 728 113 l 705 0 l 56 0 m 307 -201 l 333 -82 l 466 -82 l 444 -182 q 378 -298 430 -245 q 256 -357 326 -351 l 269 -298 q 370 -201 336 -281 l 307 -201 z "},"ļ":{"ha":309,"x_min":-62,"x_max":367,"o":"m 37 0 l 244 994 l 367 994 l 159 0 l 37 0 m -12 -201 l 14 -82 l 147 -82 l 125 -182 q 59 -298 111 -245 q -62 -357 7 -351 l -50 -298 q 52 -201 18 -281 l -12 -201 z "},"Ņ":{"ha":1003,"x_min":68,"x_max":1051,"o":"m 68 0 l 276 994 l 405 994 l 572 621 q 694 334 649 450 q 753 151 720 266 q 800 410 772 276 l 922 994 l 1051 994 l 844 0 l 712 0 l 465 574 q 363 842 399 726 q 323 604 353 745 l 197 0 l 68 0 m 361 -201 l 387 -82 l 520 -82 l 498 -182 q 432 -298 484 -245 q 311 -357 380 -351 l 323 -298 q 425 -201 391 -281 l 361 -201 z "},"ņ":{"ha":772,"x_min":46,"x_max":733,"o":"m 46 0 l 197 720 l 308 720 l 281 595 q 417 703 354 669 q 546 736 480 736 q 683 689 633 736 q 733 562 733 642 q 715 436 733 522 l 624 0 l 501 0 l 597 456 q 611 555 611 523 q 586 613 611 591 q 515 635 562 635 q 347 568 420 635 q 239 335 273 500 l 169 0 l 46 0 m 239 -201 l 265 -82 l 398 -82 l 376 -182 q 310 -298 362 -245 q 189 -357 258 -351 l 201 -298 q 302 -201 269 -281 l 239 -201 z "},"Ŋ":{"ha":1004,"x_min":66,"x_max":993,"o":"m 271 994 l 404 994 l 380 874 q 672 1011 503 1011 q 907 908 821 1011 q 993 627 993 805 q 941 308 993 475 q 805 62 888 141 q 601 -18 722 -18 q 410 32 479 -18 l 475 125 q 582 96 526 96 q 677 121 635 96 q 760 217 718 147 q 827 405 802 287 q 851 635 851 524 q 793 834 851 770 q 644 898 735 898 q 483 847 559 898 q 372 730 407 797 q 317 569 336 663 l 199 0 l 66 0 l 271 994 z "},"ŋ":{"ha":772,"x_min":50,"x_max":736,"o":"m 719 436 l 623 -29 q 548 -230 593 -172 q 417 -288 503 -288 q 286 -265 362 -288 l 330 -163 q 394 -178 365 -178 q 462 -145 441 -178 q 505 -7 483 -113 l 600 456 q 614 553 614 524 q 517 635 614 635 q 353 570 428 635 q 242 335 278 504 l 172 0 l 50 0 l 200 720 l 311 720 l 285 595 q 554 736 419 736 q 686 689 635 736 q 736 570 736 642 q 719 436 736 524 z "},"Ō":{"ha":1080,"x_min":127,"x_max":1073,"o":"m 127 416 q 280 847 127 682 q 653 1011 434 1011 q 956 890 839 1011 q 1073 566 1073 769 q 1014 296 1073 420 q 903 136 970 203 q 759 32 836 68 q 543 -17 657 -17 q 326 40 424 -17 q 177 199 228 97 q 127 416 127 301 m 258 410 q 294 249 258 322 q 402 134 330 176 q 553 93 474 93 q 699 129 630 93 q 823 230 768 165 q 909 390 878 295 q 941 576 941 484 q 858 812 941 724 q 652 901 774 901 q 377 767 496 901 q 258 410 258 634 m 481 1079 l 500 1173 l 922 1173 l 902 1079 l 481 1079 z "},"ō":{"ha":772,"x_min":68,"x_max":750,"o":"m 68 273 q 192 623 68 484 q 460 736 294 736 q 670 655 591 736 q 750 435 750 574 q 700 204 750 311 q 557 41 650 98 q 362 -16 465 -16 q 209 20 278 -16 q 104 121 140 56 q 68 273 68 187 m 191 286 q 239 131 191 184 q 363 79 288 79 q 441 95 403 79 q 513 143 480 111 q 570 217 547 176 q 608 307 593 259 q 629 436 629 374 q 579 588 629 534 q 456 642 530 642 q 351 614 398 642 q 265 534 303 587 q 209 411 227 481 q 191 286 191 340 m 291 833 l 311 928 l 732 928 l 712 833 l 291 833 z "},"Ŏ":{"ha":1080,"x_min":127,"x_max":1073,"o":"m 127 416 q 280 847 127 682 q 653 1011 434 1011 q 956 890 839 1011 q 1073 566 1073 769 q 1014 296 1073 420 q 903 136 970 203 q 759 32 836 68 q 543 -17 657 -17 q 326 40 424 -17 q 177 199 228 97 q 127 416 127 301 m 258 410 q 294 249 258 322 q 402 134 330 176 q 553 93 474 93 q 699 129 630 93 q 823 230 768 165 q 909 390 878 295 q 941 576 941 484 q 858 812 941 724 q 652 901 774 901 q 377 767 496 901 q 258 410 258 634 m 507 1231 l 587 1231 q 621 1159 595 1181 q 693 1136 646 1136 q 778 1161 742 1136 q 832 1231 813 1186 l 913 1231 q 830 1102 890 1149 q 689 1055 769 1055 q 561 1102 610 1055 q 507 1231 511 1150 z "},"ŏ":{"ha":772,"x_min":68,"x_max":750,"o":"m 68 273 q 192 623 68 484 q 460 736 294 736 q 670 655 591 736 q 750 435 750 574 q 700 204 750 311 q 557 41 650 98 q 362 -16 465 -16 q 209 20 278 -16 q 104 121 140 56 q 68 273 68 187 m 191 286 q 239 131 191 184 q 363 79 288 79 q 441 95 403 79 q 513 143 480 111 q 570 217 547 176 q 608 307 593 259 q 629 436 629 374 q 579 588 629 534 q 456 642 530 642 q 351 614 398 642 q 265 534 303 587 q 209 411 227 481 q 191 286 191 340 m 316 964 l 396 964 q 429 892 404 915 q 502 869 455 869 q 586 895 551 869 q 641 964 622 920 l 722 964 q 638 836 699 883 q 498 788 578 788 q 370 836 419 788 q 316 964 320 884 z "},"Ŗ":{"ha":1003,"x_min":65,"x_max":1014,"o":"m 65 0 l 273 994 l 690 994 q 878 974 814 994 q 978 896 941 953 q 1014 752 1014 839 q 935 551 1014 631 q 678 447 855 471 q 760 368 732 407 q 861 187 823 281 l 937 0 l 788 0 l 717 185 q 629 359 678 286 q 559 426 595 410 q 445 441 524 441 l 290 441 l 198 0 l 65 0 m 313 549 l 496 549 q 663 553 624 549 q 786 587 738 560 q 861 658 834 613 q 887 754 887 703 q 867 830 887 798 q 816 873 848 862 q 707 885 784 885 l 383 885 l 313 549 m 375 -201 l 401 -82 l 534 -82 l 512 -182 q 446 -298 498 -245 q 324 -357 393 -351 l 336 -298 q 438 -201 404 -281 l 375 -201 z "},"ŗ":{"ha":463,"x_min":-56,"x_max":583,"o":"m 46 0 l 197 720 l 305 720 l 275 573 q 384 696 330 656 q 492 736 437 736 q 583 710 529 736 l 532 596 q 463 619 500 619 q 330 547 398 619 q 224 289 262 475 l 163 0 l 46 0 m -5 -201 l 21 -82 l 154 -82 l 132 -182 q 66 -298 118 -245 q -56 -357 14 -351 l -43 -298 q 58 -201 24 -281 l -5 -201 z "},"Ŝ":{"ha":926,"x_min":98,"x_max":932,"o":"m 98 321 l 228 334 l 227 299 q 253 194 227 241 q 340 120 279 146 q 486 94 401 94 q 668 146 605 94 q 730 265 730 198 q 697 351 730 312 q 512 454 663 389 q 352 532 395 505 q 253 628 285 576 q 221 746 221 680 q 263 884 221 823 q 386 979 305 946 q 569 1011 467 1011 q 774 970 690 1011 q 895 862 857 930 q 932 732 932 794 q 932 712 932 726 l 804 702 q 796 768 804 744 q 754 838 783 809 q 676 883 726 866 q 564 901 626 901 q 395 852 456 901 q 349 753 349 814 q 368 687 349 716 q 437 631 387 659 q 604 553 472 611 q 752 478 711 505 q 836 391 806 442 q 865 275 865 340 q 815 126 865 194 q 680 20 766 58 q 481 -17 593 -17 q 205 57 312 -17 q 98 321 98 130 m 424 1055 l 604 1242 l 739 1242 l 823 1055 l 716 1055 l 662 1176 l 550 1055 l 424 1055 z "},"ŝ":{"ha":694,"x_min":53,"x_max":696,"o":"m 58 246 l 180 254 q 197 163 180 201 q 257 102 213 126 q 359 79 300 79 q 481 111 440 79 q 522 188 522 144 q 497 248 522 220 q 375 318 472 277 q 250 377 277 360 q 182 443 205 405 q 159 529 159 480 q 227 675 159 614 q 416 736 294 736 q 623 674 552 736 q 696 509 694 611 l 576 500 q 530 604 574 566 q 408 642 487 642 q 309 612 344 642 q 273 549 273 583 q 304 490 273 515 q 409 435 324 472 q 587 339 550 374 q 645 202 645 283 q 612 97 645 149 q 512 15 579 45 q 353 -16 444 -16 q 140 45 228 -16 q 58 246 53 107 m 269 808 l 449 994 l 585 994 l 669 808 l 562 808 l 507 928 l 395 808 l 269 808 z "},"Ŧ":{"ha":848,"x_min":160,"x_max":979,"o":"m 405 428 l 160 428 l 179 519 l 424 519 l 499 881 l 173 881 l 197 994 l 979 994 l 956 881 l 632 881 l 557 519 l 800 519 l 781 428 l 538 428 l 448 0 l 315 0 l 405 428 z "},"ŧ":{"ha":386,"x_min":16,"x_max":446,"o":"m 243 325 l 223 227 q 208 134 208 152 q 264 92 208 92 q 334 100 303 92 l 313 -1 q 227 -12 269 -12 q 119 17 161 -12 q 78 94 78 47 q 96 207 78 119 l 121 325 l 16 325 l 35 416 l 140 416 l 183 625 l 86 625 l 106 720 l 203 720 l 240 897 l 380 982 l 326 720 l 446 720 l 427 625 l 306 625 l 262 416 l 399 416 l 380 325 l 243 325 z "},"Ũ":{"ha":1003,"x_min":134,"x_max":1048,"o":"m 275 994 l 408 994 l 281 383 q 265 271 265 307 q 328 142 265 191 q 487 93 391 93 q 628 128 563 93 q 732 231 694 163 q 800 447 770 298 l 915 994 l 1048 994 l 926 411 q 844 175 895 262 q 703 35 793 87 q 494 -18 613 -18 q 299 20 381 -18 q 175 123 216 57 q 134 272 134 189 q 162 452 134 324 l 275 994 m 462 1055 q 517 1176 484 1145 q 600 1207 550 1207 q 643 1202 622 1207 q 718 1173 665 1196 q 790 1149 770 1149 q 818 1161 806 1149 q 838 1203 830 1172 l 920 1203 q 875 1094 913 1133 q 787 1055 837 1055 q 718 1072 760 1055 q 603 1113 625 1113 q 567 1099 581 1113 q 547 1055 553 1085 l 462 1055 z "},"ũ":{"ha":772,"x_min":87,"x_max":774,"o":"m 538 130 q 273 -16 408 -16 q 138 32 189 -16 q 87 149 87 79 q 110 304 87 194 l 197 720 l 319 720 l 223 260 q 211 170 211 202 q 236 107 211 130 q 309 84 260 84 q 409 109 360 84 q 494 177 458 134 q 552 278 530 220 q 587 409 567 315 l 652 720 l 774 720 l 624 0 l 511 0 l 538 130 m 285 829 q 340 950 307 919 q 422 981 373 981 q 466 975 445 981 q 541 946 488 970 q 613 923 593 923 q 641 934 629 923 q 661 977 653 945 l 743 977 q 698 867 736 907 q 610 828 660 828 q 541 846 583 828 q 426 886 448 886 q 390 872 404 886 q 370 829 376 859 l 285 829 z "},"Ū":{"ha":1003,"x_min":134,"x_max":1048,"o":"m 275 994 l 408 994 l 281 383 q 265 271 265 307 q 328 142 265 191 q 487 93 391 93 q 628 128 563 93 q 732 231 694 163 q 800 447 770 298 l 915 994 l 1048 994 l 926 411 q 844 175 895 262 q 703 35 793 87 q 494 -18 613 -18 q 299 20 381 -18 q 175 123 216 57 q 134 272 134 189 q 162 452 134 324 l 275 994 m 463 1079 l 483 1173 l 904 1173 l 884 1079 l 463 1079 z "},"ū":{"ha":772,"x_min":87,"x_max":774,"o":"m 538 130 q 273 -16 408 -16 q 138 32 189 -16 q 87 149 87 79 q 110 304 87 194 l 197 720 l 319 720 l 223 260 q 211 170 211 202 q 236 107 211 130 q 309 84 260 84 q 409 109 360 84 q 494 177 458 134 q 552 278 530 220 q 587 409 567 315 l 652 720 l 774 720 l 624 0 l 511 0 l 538 130 m 291 833 l 311 928 l 732 928 l 712 833 l 291 833 z "},"Ŭ":{"ha":1003,"x_min":134,"x_max":1048,"o":"m 275 994 l 408 994 l 281 383 q 265 271 265 307 q 328 142 265 191 q 487 93 391 93 q 628 128 563 93 q 732 231 694 163 q 800 447 770 298 l 915 994 l 1048 994 l 926 411 q 844 175 895 262 q 703 35 793 87 q 494 -18 613 -18 q 299 20 381 -18 q 175 123 216 57 q 134 272 134 189 q 162 452 134 324 l 275 994 m 490 1231 l 570 1231 q 604 1159 578 1181 q 676 1136 629 1136 q 761 1161 725 1136 q 815 1231 796 1186 l 897 1231 q 813 1102 873 1149 q 672 1055 752 1055 q 544 1102 593 1055 q 490 1231 494 1150 z "},"ŭ":{"ha":772,"x_min":87,"x_max":774,"o":"m 538 130 q 273 -16 408 -16 q 138 32 189 -16 q 87 149 87 79 q 110 304 87 194 l 197 720 l 319 720 l 223 260 q 211 170 211 202 q 236 107 211 130 q 309 84 260 84 q 409 109 360 84 q 494 177 458 134 q 552 278 530 220 q 587 409 567 315 l 652 720 l 774 720 l 624 0 l 511 0 l 538 130 m 312 964 l 392 964 q 425 892 399 915 q 498 869 451 869 q 582 895 547 869 q 637 964 618 920 l 718 964 q 634 836 695 883 q 494 788 574 788 q 366 836 415 788 q 312 964 316 884 z "},"Ų":{"ha":1003,"x_min":134,"x_max":1048,"o":"m 275 994 l 408 994 l 281 383 q 265 271 265 307 q 328 142 265 191 q 487 93 391 93 q 628 128 563 93 q 732 231 694 163 q 800 447 770 298 l 915 994 l 1048 994 l 926 411 q 844 175 895 262 q 703 35 793 87 q 494 -18 613 -18 q 299 20 381 -18 q 175 123 216 57 q 134 272 134 189 q 162 452 134 324 l 275 994 m 612 -181 l 594 -268 q 496 -292 540 -292 q 401 -254 430 -292 q 382 -196 382 -231 q 429 -79 382 -139 q 515 0 462 -37 l 604 0 q 495 -130 512 -50 q 493 -149 493 -139 q 547 -197 493 -197 q 612 -181 579 -197 z "},"ų":{"ha":772,"x_min":87,"x_max":774,"o":"m 538 130 q 273 -16 408 -16 q 138 32 189 -16 q 87 149 87 79 q 110 304 87 194 l 197 720 l 319 720 l 223 260 q 211 170 211 202 q 236 107 211 130 q 309 84 260 84 q 409 109 360 84 q 494 177 458 134 q 552 278 530 220 q 587 409 567 315 l 652 720 l 774 720 l 624 0 l 511 0 l 538 130 m 619 -181 l 601 -268 q 503 -292 547 -292 q 408 -254 437 -292 q 389 -196 389 -231 q 435 -79 389 -139 q 522 0 469 -37 l 611 0 q 502 -130 519 -50 q 500 -149 500 -139 q 554 -197 500 -197 q 619 -181 586 -197 z "},"Ŵ":{"ha":1311,"x_min":174,"x_max":1474,"o":"m 235 0 l 174 994 l 309 994 l 332 503 q 338 311 334 467 q 340 250 340 268 q 339 183 340 239 q 458 422 422 353 l 761 994 l 898 994 l 931 413 q 939 173 937 313 q 982 276 951 208 q 1055 434 1031 387 l 1339 994 l 1474 994 l 968 0 l 826 0 l 793 602 q 785 792 788 680 q 716 646 744 698 l 372 0 l 235 0 m 628 1055 l 808 1242 l 943 1242 l 1027 1055 l 920 1055 l 866 1176 l 754 1055 l 628 1055 z "},"ŵ":{"ha":1003,"x_min":108,"x_max":1079,"o":"m 183 0 l 108 720 l 226 720 l 258 397 l 271 215 q 275 133 273 195 q 310 239 296 202 q 355 345 324 276 l 527 720 l 661 720 l 684 360 q 691 141 690 278 q 802 393 725 232 l 956 720 l 1079 720 l 727 0 l 600 0 l 572 422 q 568 576 570 462 q 503 419 541 503 l 312 0 l 183 0 m 409 808 l 589 994 l 724 994 l 808 808 l 701 808 l 647 928 l 535 808 l 409 808 z "},"Ŷ":{"ha":926,"x_min":162,"x_max":1074,"o":"m 388 0 l 468 385 l 162 994 l 304 994 l 451 704 q 545 500 499 609 q 682 702 595 593 l 915 994 l 1074 994 l 599 374 l 521 0 l 388 0 m 425 1055 l 605 1242 l 741 1242 l 825 1055 l 718 1055 l 663 1176 l 551 1055 l 425 1055 z "},"ŷ":{"ha":694,"x_min":0,"x_max":779,"o":"m 0 -278 l 7 -163 q 81 -174 45 -174 q 142 -157 119 -174 q 207 -73 172 -134 l 246 -2 l 126 720 l 247 720 l 301 356 q 329 140 317 248 l 651 720 l 779 720 l 320 -96 q 202 -254 254 -215 q 83 -292 151 -292 q 0 -278 41 -292 m 255 808 l 435 994 l 570 994 l 654 808 l 547 808 l 493 928 l 381 808 l 255 808 z "},"ſ":{"ha":309,"x_min":37,"x_max":540,"o":"m 37 0 l 208 823 q 243 936 225 901 q 302 991 262 971 q 398 1011 342 1011 q 540 991 450 1011 l 517 884 q 413 901 456 901 q 354 878 371 901 q 326 798 338 855 l 159 0 l 37 0 z "},"Ǻ":{"ha":926,"x_min":-28,"x_max":863,"o":"m -28 0 l 536 994 l 692 994 l 857 0 l 728 0 l 680 286 l 277 286 l 118 0 l -28 0 m 334 389 l 663 389 l 625 638 q 597 886 602 787 q 498 683 563 800 l 334 389 m 509 1076 q 546 1163 509 1127 q 633 1199 582 1199 q 720 1163 684 1199 q 756 1076 756 1126 q 720 988 756 1024 q 633 952 684 952 q 546 988 582 952 q 509 1076 509 1024 m 560 1076 q 582 1024 560 1045 q 633 1002 603 1002 q 685 1024 663 1002 q 706 1076 706 1045 q 685 1127 706 1105 q 633 1148 663 1148 q 582 1127 603 1148 q 560 1076 560 1105 m 581 1199 l 709 1385 l 863 1385 l 683 1199 l 581 1199 z "},"ǻ":{"ha":772,"x_min":61,"x_max":731,"o":"m 532 90 q 409 9 468 35 q 283 -16 350 -16 q 122 42 183 -16 q 61 193 61 101 q 89 299 61 253 q 161 374 116 346 q 273 414 207 402 q 430 427 314 422 q 595 452 545 432 q 610 535 610 502 q 578 602 610 578 q 454 636 536 636 q 327 602 376 636 q 256 505 278 568 l 132 515 q 252 680 170 623 q 460 736 334 736 q 671 673 593 736 q 731 549 731 625 q 714 416 731 492 l 674 237 q 655 98 655 151 q 670 0 655 64 l 546 0 q 532 90 536 35 m 577 365 q 522 349 551 355 q 423 338 492 344 q 272 314 316 328 q 205 267 228 299 q 183 197 183 235 q 219 112 183 145 q 320 79 254 79 q 437 111 381 79 q 526 201 494 143 q 577 365 559 258 m 370 895 q 406 983 370 947 q 493 1019 442 1019 q 581 982 545 1019 q 616 895 616 946 q 580 808 616 844 q 493 772 544 772 q 406 808 442 772 q 370 895 370 844 m 420 895 q 442 843 420 865 q 493 822 463 822 q 545 843 524 822 q 566 895 566 865 q 545 946 566 925 q 493 968 524 968 q 442 946 463 968 q 420 895 420 925 m 442 1082 l 570 1269 l 724 1269 l 544 1082 l 442 1082 z "},"Ǽ":{"ha":1389,"x_min":-56,"x_max":1449,"o":"m -56 0 l 555 994 l 1449 994 l 1426 881 l 913 881 l 848 572 l 1367 572 l 1343 459 l 825 459 l 752 113 l 1325 113 l 1301 0 l 589 0 l 648 283 l 264 283 l 95 0 l -56 0 m 333 396 l 671 396 l 773 881 l 630 881 l 333 396 m 761 1055 l 888 1242 l 1043 1242 l 863 1055 l 761 1055 z "},"ǽ":{"ha":1235,"x_min":59,"x_max":1202,"o":"m 1038 243 l 1162 232 q 1018 46 1103 109 q 821 -16 934 -16 q 674 22 743 -16 q 562 144 606 61 q 436 22 509 60 q 287 -17 363 -17 q 119 41 178 -17 q 59 193 59 98 q 85 299 59 252 q 150 370 111 346 q 254 407 190 394 q 407 424 294 415 q 568 448 519 433 q 583 532 583 497 q 551 612 583 582 q 454 642 518 642 q 327 608 377 642 q 251 506 277 575 l 130 516 q 248 679 165 621 q 457 737 331 737 q 587 712 530 737 q 682 638 643 688 q 918 736 777 736 q 1067 699 1002 736 q 1167 590 1133 661 q 1202 436 1202 519 q 1192 329 1202 395 l 667 329 q 665 288 665 309 q 709 135 665 186 q 823 84 754 84 q 941 123 884 84 q 1038 243 997 162 m 691 423 l 1086 423 q 1087 452 1087 446 q 1067 551 1087 507 q 1008 618 1047 595 q 924 642 969 642 q 787 584 854 642 q 691 423 719 526 m 549 356 q 373 330 477 339 q 269 313 296 323 q 206 271 227 299 q 184 200 184 243 q 219 113 184 146 q 316 79 253 79 q 453 136 397 79 q 549 356 525 211 m 621 808 l 748 994 l 903 994 l 722 808 l 621 808 z "},"Ǿ":{"ha":1080,"x_min":118,"x_max":1078,"o":"m 231 119 q 127 434 127 243 q 176 682 127 564 q 283 850 217 779 q 427 960 349 921 q 650 1011 531 1011 q 909 932 804 1011 l 1018 1062 l 1078 1008 l 968 876 q 1073 562 1073 757 q 1015 298 1073 422 q 903 137 971 204 q 759 32 836 69 q 543 -17 657 -17 q 292 62 399 -17 l 182 -70 l 118 -16 l 231 119 m 313 217 l 830 837 q 654 901 753 901 q 461 842 554 901 q 313 669 368 783 q 257 426 257 556 q 313 217 257 300 m 886 777 l 370 157 q 553 93 452 93 q 699 129 630 93 q 823 230 768 165 q 909 390 878 295 q 941 576 941 484 q 886 777 941 690 m 607 1055 l 734 1242 l 889 1242 l 709 1055 l 607 1055 z "},"ǿ":{"ha":848,"x_min":104,"x_max":811,"o":"m 673 690 l 749 786 l 811 737 l 732 637 q 795 431 795 558 q 745 205 795 312 q 603 41 696 98 q 408 -16 510 -16 q 242 26 315 -16 l 165 -69 l 104 -22 l 182 75 q 113 282 113 154 q 164 512 113 401 q 305 680 215 624 q 506 736 395 736 q 673 690 601 736 m 606 606 q 501 642 562 642 q 370 597 431 642 q 272 463 308 552 q 236 283 236 373 q 258 171 236 215 l 606 606 m 309 110 q 409 79 353 79 q 504 103 459 79 q 589 177 549 127 q 651 299 628 226 q 674 437 674 373 q 654 541 674 494 l 309 110 m 447 808 l 574 994 l 729 994 l 549 808 l 447 808 z "},"·":{"ha":386,"x_min":201,"x_max":368,"o":"m 201 581 l 230 720 l 368 720 l 339 581 l 201 581 z "},"Ẁ":{"ha":1311,"x_min":174,"x_max":1474,"o":"m 235 0 l 174 994 l 309 994 l 332 503 q 338 311 334 467 q 340 250 340 268 q 339 183 340 239 q 458 422 422 353 l 761 994 l 898 994 l 931 413 q 939 173 937 313 q 982 276 951 208 q 1055 434 1031 387 l 1339 994 l 1474 994 l 968 0 l 826 0 l 793 602 q 785 792 788 680 q 716 646 744 698 l 372 0 l 235 0 m 822 1055 l 690 1242 l 839 1242 l 918 1055 l 822 1055 z "},"ẁ":{"ha":1003,"x_min":108,"x_max":1079,"o":"m 183 0 l 108 720 l 226 720 l 258 397 l 271 215 q 275 133 273 195 q 310 239 296 202 q 355 345 324 276 l 527 720 l 661 720 l 684 360 q 691 141 690 278 q 802 393 725 232 l 956 720 l 1079 720 l 727 0 l 600 0 l 572 422 q 568 576 570 462 q 503 419 541 503 l 312 0 l 183 0 m 605 808 l 473 994 l 622 994 l 701 808 l 605 808 z "},"Ẃ":{"ha":1311,"x_min":174,"x_max":1474,"o":"m 235 0 l 174 994 l 309 994 l 332 503 q 338 311 334 467 q 340 250 340 268 q 339 183 340 239 q 458 422 422 353 l 761 994 l 898 994 l 931 413 q 939 173 937 313 q 982 276 951 208 q 1055 434 1031 387 l 1339 994 l 1474 994 l 968 0 l 826 0 l 793 602 q 785 792 788 680 q 716 646 744 698 l 372 0 l 235 0 m 722 1055 l 849 1242 l 1004 1242 l 823 1055 l 722 1055 z "},"ẃ":{"ha":1003,"x_min":108,"x_max":1079,"o":"m 183 0 l 108 720 l 226 720 l 258 397 l 271 215 q 275 133 273 195 q 310 239 296 202 q 355 345 324 276 l 527 720 l 661 720 l 684 360 q 691 141 690 278 q 802 393 725 232 l 956 720 l 1079 720 l 727 0 l 600 0 l 572 422 q 568 576 570 462 q 503 419 541 503 l 312 0 l 183 0 m 505 808 l 633 994 l 787 994 l 607 808 l 505 808 z "},"Ẅ":{"ha":1311,"x_min":174,"x_max":1474,"o":"m 235 0 l 174 994 l 309 994 l 332 503 q 338 311 334 467 q 340 250 340 268 q 339 183 340 239 q 458 422 422 353 l 761 994 l 898 994 l 931 413 q 939 173 937 313 q 982 276 951 208 q 1055 434 1031 387 l 1339 994 l 1474 994 l 968 0 l 826 0 l 793 602 q 785 792 788 680 q 716 646 744 698 l 372 0 l 235 0 m 648 1055 l 677 1194 l 805 1194 l 776 1055 l 648 1055 m 898 1055 l 927 1194 l 1055 1194 l 1026 1055 l 898 1055 z "},"ẅ":{"ha":1003,"x_min":108,"x_max":1079,"o":"m 183 0 l 108 720 l 226 720 l 258 397 l 271 215 q 275 133 273 195 q 310 239 296 202 q 355 345 324 276 l 527 720 l 661 720 l 684 360 q 691 141 690 278 q 802 393 725 232 l 956 720 l 1079 720 l 727 0 l 600 0 l 572 422 q 568 576 570 462 q 503 419 541 503 l 312 0 l 183 0 m 431 832 l 460 971 l 588 971 l 559 832 l 431 832 m 681 832 l 710 971 l 838 971 l 809 832 l 681 832 z "},"Ỳ":{"ha":926,"x_min":162,"x_max":1074,"o":"m 388 0 l 468 385 l 162 994 l 304 994 l 451 704 q 545 500 499 609 q 682 702 595 593 l 915 994 l 1074 994 l 599 374 l 521 0 l 388 0 m 629 1055 l 497 1242 l 646 1242 l 725 1055 l 629 1055 z "},"ỳ":{"ha":694,"x_min":0,"x_max":779,"o":"m 0 -278 l 7 -163 q 81 -174 45 -174 q 142 -157 119 -174 q 207 -73 172 -134 l 246 -2 l 126 720 l 247 720 l 301 356 q 329 140 317 248 l 651 720 l 779 720 l 320 -96 q 202 -254 254 -215 q 83 -292 151 -292 q 0 -278 41 -292 m 450 808 l 318 994 l 467 994 l 546 808 l 450 808 z "},"‛":{"ha":309,"x_min":208,"x_max":386,"o":"m 355 851 l 279 851 q 268 789 268 818 q 323 703 268 714 l 312 650 q 208 784 208 663 q 220 868 208 817 l 246 990 l 386 990 l 355 851 z "},"‾":{"ha":463,"x_min":104,"x_max":626,"o":"m 104 833 l 123 928 l 626 928 l 606 833 l 104 833 z "},"₤":{"ha":772,"x_min":43,"x_max":844,"o":"m 243 340 l 79 340 l 100 441 l 254 441 q 241 544 253 465 l 123 544 l 144 646 l 229 646 q 227 688 227 667 q 325 923 227 836 q 554 1011 422 1011 q 752 942 673 1011 q 844 747 831 872 l 732 736 q 674 867 722 822 q 557 913 626 913 q 413 850 473 913 q 353 680 353 787 q 354 646 353 663 l 585 646 l 563 544 l 364 544 q 372 441 372 475 l 541 441 l 519 340 l 362 340 q 228 144 335 222 q 280 149 264 149 q 450 121 367 149 q 547 101 509 101 q 696 144 623 101 l 733 33 q 552 -17 629 -17 q 426 14 500 -17 q 269 50 338 50 q 58 -17 162 50 l 43 103 q 243 340 208 210 z "},"℮":{"ha":833,"x_min":61,"x_max":779,"o":"m 218 360 l 218 109 q 420 26 299 26 q 688 193 593 26 l 736 164 q 598 22 668 67 q 420 -23 528 -23 q 162 84 262 -23 q 61 360 61 192 q 161 635 61 527 q 420 743 260 743 q 669 646 566 743 q 779 360 772 549 l 218 360 m 622 410 l 622 612 q 418 694 538 694 q 218 611 300 694 l 218 410 l 622 410 z "},"⅛":{"ha":1158,"x_min":83,"x_max":1149,"o":"m 83 -41 l 1030 1011 l 1149 1011 l 193 -41 l 83 -41 m 284 497 l 359 858 q 189 789 290 808 l 208 875 q 314 922 246 885 q 416 1006 381 960 l 492 1006 l 386 497 l 284 497 m 851 250 q 765 355 765 283 q 819 451 765 416 q 953 486 872 486 q 1089 452 1041 486 q 1137 362 1137 418 q 1020 244 1137 269 q 1116 130 1116 219 q 1059 10 1116 56 q 901 -36 1001 -36 q 756 6 803 -36 q 709 107 709 48 q 747 201 709 163 q 851 250 785 239 m 862 339 q 881 299 862 317 q 943 280 899 280 q 1010 298 983 280 q 1038 350 1038 315 q 1014 396 1038 381 q 958 412 990 412 q 890 393 918 412 q 862 339 862 374 m 809 113 q 898 38 809 38 q 981 62 945 38 q 1017 134 1017 86 q 928 211 1017 211 q 843 184 876 211 q 809 113 809 158 z "},"⅜":{"ha":1158,"x_min":100,"x_max":1166,"o":"m 100 -41 l 1047 1011 l 1166 1011 l 210 -41 l 100 -41 m 115 631 l 212 642 q 325 566 241 566 q 399 591 372 566 q 426 651 426 616 q 398 705 426 690 q 303 720 371 720 l 319 793 q 453 869 453 793 q 429 916 453 899 q 370 933 406 933 q 267 864 292 933 l 168 877 q 236 970 183 935 q 368 1006 288 1006 q 505 970 453 1006 q 556 872 556 934 q 442 753 556 781 q 532 640 532 722 q 472 528 532 571 q 327 485 412 485 q 187 527 243 485 q 115 631 130 568 m 852 250 q 766 355 766 283 q 819 451 766 416 q 954 486 872 486 q 1089 453 1041 486 q 1138 362 1138 420 q 1021 244 1138 269 q 1117 130 1117 219 q 1059 10 1117 56 q 901 -36 1002 -36 q 756 6 804 -36 q 709 107 709 48 q 746 200 709 159 q 852 250 783 241 m 863 339 q 880 300 863 320 q 942 280 898 280 q 1011 298 984 280 q 1038 350 1038 316 q 1015 396 1038 380 q 959 412 991 412 q 890 393 918 412 q 863 339 863 374 m 810 113 q 899 38 810 38 q 982 62 945 38 q 1018 134 1018 85 q 928 211 1018 211 q 844 185 878 211 q 810 113 810 159 z "},"⅝":{"ha":1158,"x_min":100,"x_max":1165,"o":"m 100 -41 l 1046 1011 l 1165 1011 l 210 -41 l 100 -41 m 118 638 l 219 643 q 315 567 237 567 q 404 597 370 567 q 437 678 437 627 q 411 744 437 720 q 350 767 385 767 q 237 728 294 767 l 145 734 l 222 994 l 562 994 l 545 912 l 284 912 l 252 804 q 376 842 317 842 q 497 798 450 842 q 545 691 545 753 q 480 548 545 611 q 310 485 415 485 q 173 530 224 485 q 118 638 122 575 m 851 250 q 765 355 765 283 q 816 449 765 412 q 953 486 867 486 q 1089 452 1041 486 q 1137 362 1137 418 q 1020 244 1137 273 q 1116 130 1116 219 q 1059 11 1116 57 q 901 -36 1002 -36 q 756 6 803 -36 q 709 107 709 47 q 745 200 709 159 q 851 250 782 241 m 862 339 q 880 300 862 320 q 943 280 897 280 q 1010 298 983 280 q 1038 350 1038 316 q 1015 395 1038 379 q 958 412 992 412 q 890 393 918 412 q 862 339 862 374 m 809 113 q 897 38 809 38 q 983 63 949 38 q 1017 134 1017 89 q 928 211 1017 211 q 843 184 876 211 q 809 113 809 158 z "},"⅞":{"ha":1158,"x_min":67,"x_max":1137,"o":"m 67 -41 l 1014 1011 l 1133 1011 l 177 -41 l 67 -41 m 199 497 q 447 912 256 736 l 161 912 l 179 994 l 565 994 l 548 912 q 395 724 467 842 q 304 497 324 606 l 199 497 m 851 250 q 765 355 765 283 q 819 451 765 416 q 953 486 872 486 q 1088 453 1040 486 q 1137 362 1137 420 q 1020 244 1137 269 q 1116 130 1116 219 q 1059 11 1116 57 q 901 -36 1002 -36 q 756 6 804 -36 q 709 107 709 47 q 745 200 709 159 q 851 250 782 241 m 862 339 q 880 300 862 320 q 943 280 897 280 q 1010 298 983 280 q 1038 350 1038 316 q 1014 396 1038 381 q 958 412 991 412 q 890 393 919 412 q 862 339 862 374 m 809 113 q 898 38 809 38 q 981 62 945 38 q 1017 134 1017 86 q 928 211 1017 211 q 841 183 873 211 q 809 113 809 156 z "},"΄":{"ha":463,"x_min":257,"x_max":539,"o":"m 257 808 l 385 994 l 539 994 l 359 808 l 257 808 z "},"΅":{"ha":463,"x_min":66,"x_max":623,"o":"m 358 996 l 482 996 l 321 808 l 239 808 l 358 996 m 94 939 l 213 939 l 185 808 l 66 808 l 94 939 m 504 939 l 623 939 l 595 808 l 476 808 l 504 939 z "},"Ά":{"ha":926,"x_min":-30,"x_max":854,"o":"m -30 0 l 534 994 l 690 994 l 854 0 l 726 0 l 677 286 l 275 286 l 116 0 l -30 0 m 332 389 l 661 389 l 623 638 q 595 886 599 792 q 496 683 561 800 l 332 389 m 158 847 l 283 994 l 477 994 l 275 847 l 158 847 z "},"Έ":{"ha":1095,"x_min":67,"x_max":1154,"o":"m 67 847 l 193 994 l 385 994 l 184 847 l 67 847 m 229 0 l 436 994 l 1154 994 l 1131 881 l 545 881 l 481 572 l 1050 572 l 1026 458 l 457 458 l 385 113 l 1010 113 l 987 0 l 229 0 z "},"Ή":{"ha":1175,"x_min":71,"x_max":1221,"o":"m 231 0 l 439 994 l 572 994 l 486 581 l 1002 581 l 1088 994 l 1221 994 l 1013 0 l 880 0 l 978 469 l 463 469 l 364 0 l 231 0 m 71 847 l 196 994 l 389 994 l 187 847 l 71 847 z "},"Ί":{"ha":540,"x_min":66,"x_max":569,"o":"m 229 0 l 436 994 l 569 994 l 361 0 l 229 0 m 66 847 l 192 994 l 385 994 l 183 847 l 66 847 z "},"Ό":{"ha":1103,"x_min":59,"x_max":1089,"o":"m 143 416 q 299 849 143 688 q 663 1011 454 1011 q 975 886 861 1011 q 1089 565 1089 762 q 934 152 1089 321 q 561 -17 779 -17 q 334 44 433 -17 q 189 209 234 106 q 143 416 143 311 m 273 410 q 359 181 273 269 q 570 94 445 94 q 844 238 732 94 q 957 574 957 383 q 870 816 957 732 q 668 901 783 901 q 465 833 559 901 q 322 659 372 766 q 273 410 273 551 m 59 847 l 184 994 l 377 994 l 176 847 l 59 847 z "},"Ύ":{"ha":1202,"x_min":65,"x_max":1347,"o":"m 661 0 l 742 385 l 435 994 l 578 994 l 725 704 q 818 500 775 604 q 956 702 868 593 l 1188 994 l 1347 994 l 873 374 l 794 0 l 661 0 m 65 847 l 191 994 l 383 994 l 182 847 l 65 847 z "},"Ώ":{"ha":1076,"x_min":18,"x_max":1063,"o":"m 18 0 l 43 113 l 290 113 q 144 450 144 251 q 213 723 144 591 q 400 933 283 855 q 665 1011 517 1011 q 950 888 838 1011 q 1063 565 1063 766 q 830 113 1063 273 l 1046 113 l 1021 0 l 608 0 l 631 104 q 856 280 779 151 q 934 567 934 410 q 854 810 934 720 q 654 901 774 901 q 387 760 499 901 q 275 431 275 620 q 460 104 275 201 l 437 0 l 18 0 m 58 847 l 183 994 l 376 994 l 174 847 l 58 847 z "},"ΐ":{"ha":309,"x_min":-12,"x_max":545,"o":"m 41 0 l 192 720 l 315 720 l 164 0 l 41 0 m 280 996 l 404 996 l 243 808 l 161 808 l 280 996 m 16 939 l 135 939 l 107 808 l -12 808 l 16 939 m 426 939 l 545 939 l 517 808 l 398 808 l 426 939 z "},"Α":{"ha":926,"x_min":-28,"x_max":857,"o":"m -28 0 l 536 994 l 692 994 l 857 0 l 728 0 l 680 286 l 277 286 l 118 0 l -28 0 m 334 389 l 663 389 l 625 638 q 597 886 602 787 q 498 683 563 800 l 334 389 z "},"Β":{"ha":926,"x_min":60,"x_max":909,"o":"m 60 0 l 269 994 l 576 994 q 701 987 661 994 q 813 947 768 976 q 884 868 859 918 q 909 758 909 819 q 864 614 909 676 q 726 519 819 551 q 847 439 807 492 q 887 315 887 386 q 840 157 887 233 q 715 41 793 82 q 542 0 637 0 l 60 0 m 313 570 l 514 570 q 722 616 659 570 q 785 750 785 662 q 766 823 785 792 q 713 867 746 853 q 589 881 680 881 l 378 881 l 313 570 m 217 113 l 444 113 q 565 119 534 113 q 667 156 628 130 q 729 224 707 182 q 751 314 751 267 q 708 420 751 384 q 541 456 664 456 l 289 456 l 217 113 z "},"Δ":{"ha":932,"x_min":-14,"x_max":871,"o":"m -14 0 l 550 994 l 707 994 l 871 0 l -14 0 m 195 113 l 723 113 l 639 638 q 611 886 616 779 q 512 683 577 800 l 195 113 z "},"Ε":{"ha":926,"x_min":62,"x_max":988,"o":"m 62 0 l 271 994 l 988 994 l 964 881 l 380 881 l 315 572 l 884 572 l 861 458 l 291 458 l 219 113 l 845 113 l 821 0 l 62 0 z "},"Ζ":{"ha":848,"x_min":34,"x_max":884,"o":"m 34 0 l 47 100 l 545 694 l 648 819 q 708 889 679 857 q 620 882 645 882 l 587 882 l 548 882 l 509 881 l 175 881 l 199 994 l 884 994 l 873 890 l 339 256 q 214 109 241 139 q 253 113 244 113 l 795 113 l 771 0 l 34 0 z "},"Η":{"ha":1003,"x_min":58,"x_max":1047,"o":"m 58 0 l 267 994 l 399 994 l 313 581 l 828 581 l 914 994 l 1047 994 l 840 0 l 707 0 l 804 469 l 290 469 l 191 0 l 58 0 z "},"Ι":{"ha":386,"x_min":79,"x_max":420,"o":"m 79 0 l 288 994 l 420 994 l 212 0 l 79 0 z "},"Κ":{"ha":926,"x_min":62,"x_max":1029,"o":"m 62 0 l 269 994 l 402 994 l 302 515 l 842 994 l 1029 994 l 568 589 l 906 0 l 758 0 l 471 504 l 262 323 l 195 0 l 62 0 z "},"Λ":{"ha":926,"x_min":-14,"x_max":865,"o":"m 674 994 l 865 0 l 737 0 l 622 592 q 581 853 589 762 q 478 651 518 725 l 123 0 l -14 0 l 532 994 l 674 994 z "},"Μ":{"ha":1157,"x_min":61,"x_max":1211,"o":"m 61 0 l 269 994 l 432 994 l 532 350 q 558 106 552 223 q 696 378 600 207 l 1045 994 l 1211 994 l 1004 0 l 873 0 l 977 484 q 1080 859 1013 651 q 974 650 1037 762 l 604 0 l 475 0 l 376 637 q 356 842 362 725 q 323 634 339 711 l 191 0 l 61 0 z "},"Ν":{"ha":1003,"x_min":68,"x_max":1051,"o":"m 68 0 l 276 994 l 405 994 l 572 621 q 694 334 649 450 q 753 151 720 266 q 800 410 772 276 l 922 994 l 1051 994 l 844 0 l 712 0 l 465 574 q 363 842 399 726 q 323 604 353 745 l 197 0 l 68 0 z "},"Ξ":{"ha":901,"x_min":5,"x_max":960,"o":"m 260 994 l 960 994 l 936 881 l 237 881 l 260 994 m 184 570 l 855 570 l 831 457 l 161 457 l 184 570 m 29 113 l 817 113 l 793 0 l 5 0 l 29 113 z "},"Ο":{"ha":1080,"x_min":127,"x_max":1073,"o":"m 127 416 q 280 847 127 682 q 653 1011 434 1011 q 956 890 839 1011 q 1073 566 1073 769 q 1014 296 1073 420 q 903 136 970 203 q 759 32 836 68 q 543 -17 657 -17 q 326 40 424 -17 q 177 199 228 97 q 127 416 127 301 m 258 410 q 294 249 258 322 q 402 134 330 176 q 553 93 474 93 q 699 129 630 93 q 823 230 768 165 q 909 390 878 295 q 941 576 941 484 q 858 812 941 724 q 652 901 774 901 q 377 767 496 901 q 258 410 258 634 z "},"Π":{"ha":1006,"x_min":59,"x_max":1048,"o":"m 59 0 l 267 994 l 1048 994 l 840 0 l 707 0 l 895 881 l 380 881 l 192 0 l 59 0 z "},"Ρ":{"ha":926,"x_min":60,"x_max":969,"o":"m 60 0 l 268 994 l 683 994 q 845 969 791 994 q 934 885 899 945 q 969 750 969 825 q 944 625 969 688 q 881 519 919 561 q 803 457 842 478 q 719 426 764 436 q 526 404 623 404 l 277 404 l 193 0 l 60 0 m 300 516 l 519 516 q 707 544 647 516 q 802 627 766 571 q 838 747 838 684 q 819 826 838 795 q 766 872 800 857 q 633 886 731 886 l 378 886 l 300 516 z "},"Σ":{"ha":833,"x_min":31,"x_max":924,"o":"m 239 994 l 924 994 l 901 881 l 356 881 l 659 496 l 231 113 l 739 113 l 715 0 l 31 0 l 56 125 l 488 511 l 211 860 l 239 994 z "},"Τ":{"ha":848,"x_min":173,"x_max":979,"o":"m 315 0 l 499 881 l 173 881 l 197 994 l 979 994 l 956 881 l 632 881 l 448 0 l 315 0 z "},"Υ":{"ha":926,"x_min":162,"x_max":1074,"o":"m 388 0 l 468 385 l 162 994 l 304 994 l 451 704 q 545 500 499 609 q 682 702 595 593 l 915 994 l 1074 994 l 599 374 l 521 0 l 388 0 z "},"Χ":{"ha":926,"x_min":-44,"x_max":1068,"o":"m -44 0 l 431 503 l 149 994 l 296 994 l 424 769 q 482 665 475 680 q 521 586 500 632 q 676 764 571 654 l 895 994 l 1068 994 l 587 481 l 860 0 l 715 0 l 554 291 q 499 401 530 334 q 410 296 463 351 l 132 0 l -44 0 z "},"Ψ":{"ha":1154,"x_min":172,"x_max":1230,"o":"m 239 994 l 372 994 l 328 785 q 299 595 299 648 q 546 418 299 433 l 667 994 l 800 994 l 679 418 q 915 484 829 424 q 1050 772 1001 545 l 1097 994 l 1230 994 l 1176 739 q 1087 489 1140 568 q 929 359 1034 410 q 655 305 823 309 l 589 0 l 456 0 l 522 308 q 172 609 172 337 q 195 788 172 677 l 239 994 z "},"Ω":{"ha":1057,"x_min":5,"x_max":1049,"o":"m 5 0 l 29 113 l 277 113 q 130 450 130 251 q 200 723 130 591 q 387 933 269 855 q 652 1011 504 1011 q 937 888 825 1011 q 1049 565 1049 766 q 817 113 1049 273 l 1032 113 l 1008 0 l 594 0 l 618 104 q 843 280 765 151 q 920 567 920 410 q 841 810 920 720 q 640 901 761 901 q 374 760 486 901 q 262 431 262 620 q 446 104 262 201 l 423 0 l 5 0 z "},"Ϊ":{"ha":386,"x_min":79,"x_max":596,"o":"m 79 0 l 288 994 l 420 994 l 212 0 l 79 0 m 189 1055 l 218 1194 l 347 1194 l 317 1055 l 189 1055 m 439 1055 l 469 1194 l 596 1194 l 568 1055 l 439 1055 z "},"Ϋ":{"ha":926,"x_min":162,"x_max":1074,"o":"m 388 0 l 468 385 l 162 994 l 304 994 l 451 704 q 545 500 499 609 q 682 702 595 593 l 915 994 l 1074 994 l 599 374 l 521 0 l 388 0 m 432 1055 l 461 1194 l 589 1194 l 560 1055 l 432 1055 m 682 1055 l 711 1194 l 839 1194 l 810 1055 l 682 1055 z "},"ά":{"ha":792,"x_min":69,"x_max":832,"o":"m 701 720 l 832 720 l 671 371 l 671 241 q 680 0 671 126 l 557 0 l 544 107 q 309 -16 444 -16 q 181 20 233 -16 q 99 118 130 57 q 69 277 69 179 q 175 603 69 469 q 428 736 281 736 q 641 589 568 736 l 701 720 m 191 268 q 233 130 191 175 q 337 84 275 84 q 512 199 439 84 q 585 449 585 315 q 546 582 585 529 q 437 635 507 635 q 260 518 330 635 q 191 268 191 400 m 379 808 l 507 994 l 661 994 l 481 808 l 379 808 z "},"έ":{"ha":610,"x_min":47,"x_max":635,"o":"m 635 633 l 542 570 q 404 635 481 635 q 303 600 341 635 q 266 519 266 565 q 428 413 266 423 l 409 321 q 371 322 384 322 q 229 280 284 322 q 174 180 174 238 q 207 105 174 132 q 293 79 239 79 q 487 166 395 79 l 562 87 q 297 -16 445 -16 q 111 40 174 -16 q 47 177 47 96 q 216 381 47 315 q 143 527 143 444 q 218 675 143 614 q 397 736 292 736 q 635 633 541 736 m 306 808 l 433 994 l 588 994 l 408 808 l 306 808 z "},"ή":{"ha":771,"x_min":47,"x_max":734,"o":"m 47 0 l 197 720 l 309 720 l 282 595 q 551 736 416 736 q 683 689 631 736 q 734 569 734 642 q 716 436 734 525 l 571 -276 l 448 -276 l 597 456 q 612 552 612 525 q 513 635 612 635 q 354 574 432 635 q 239 335 277 512 l 170 0 l 47 0 m 387 808 l 515 994 l 669 994 l 489 808 l 387 808 z "},"ί":{"ha":309,"x_min":41,"x_max":437,"o":"m 41 0 l 192 720 l 315 720 l 164 0 l 41 0 m 155 808 l 283 994 l 437 994 l 257 808 l 155 808 z "},"ΰ":{"ha":764,"x_min":102,"x_max":777,"o":"m 194 720 l 317 720 l 233 321 q 217 210 217 243 q 257 117 217 149 q 357 84 298 84 q 457 114 413 84 q 525 190 501 144 q 566 321 548 236 l 649 720 l 772 720 l 701 382 q 631 150 670 230 q 522 27 591 71 q 359 -16 452 -16 q 168 50 234 -16 q 102 215 102 117 q 134 430 102 271 l 137 448 l 194 720 m 511 996 l 635 996 l 475 808 l 392 808 l 511 996 m 247 939 l 366 939 l 338 808 l 219 808 l 247 939 m 657 939 l 777 939 l 749 808 l 629 808 l 657 939 z "},"β":{"ha":793,"x_min":-16,"x_max":772,"o":"m -16 -276 l 162 568 q 232 819 198 738 q 343 956 267 901 q 526 1011 420 1011 q 703 948 635 1013 q 772 782 772 884 q 715 627 772 689 q 576 543 658 564 q 702 440 660 508 q 744 300 744 373 q 661 83 744 183 q 427 -16 578 -16 q 285 15 339 -16 q 189 107 231 47 l 104 -276 l -16 -276 m 397 582 q 593 641 527 585 q 659 782 659 697 q 621 874 659 838 q 530 911 583 911 q 390 841 452 911 q 298 625 328 771 l 252 402 q 234 261 234 316 q 292 119 234 170 q 421 67 351 67 q 567 137 507 67 q 627 304 627 207 q 380 500 627 500 l 397 582 z "},"γ":{"ha":694,"x_min":107,"x_max":774,"o":"m 355 0 l 298 -276 l 175 -276 l 232 0 l 107 720 l 227 720 l 288 323 q 313 111 298 255 q 404 287 349 188 l 644 720 l 774 720 l 355 0 z "},"ζ":{"ha":644,"x_min":68,"x_max":780,"o":"m 328 994 l 780 994 l 762 910 q 334 575 481 761 q 186 233 186 389 q 214 146 186 184 q 340 105 241 108 q 452 84 414 103 q 515 20 490 65 q 540 -77 540 -24 q 462 -230 540 -172 q 228 -288 384 -288 l 281 -187 q 428 -84 428 -181 q 412 -35 428 -54 q 373 -10 395 -16 q 289 -1 351 -4 q 125 70 182 5 q 68 229 68 134 q 127 457 68 335 q 324 707 186 580 q 567 892 462 835 l 307 892 l 328 994 z "},"η":{"ha":771,"x_min":47,"x_max":734,"o":"m 47 0 l 197 720 l 309 720 l 282 595 q 551 736 416 736 q 683 689 631 736 q 734 569 734 642 q 716 436 734 525 l 571 -276 l 448 -276 l 597 456 q 612 552 612 525 q 513 635 612 635 q 354 574 432 635 q 239 335 277 512 l 170 0 l 47 0 z "},"θ":{"ha":753,"x_min":88,"x_max":775,"o":"m 88 331 q 204 791 88 570 q 509 1011 320 1013 q 701 931 626 1015 q 775 675 775 847 q 660 202 775 420 q 356 -16 544 -16 q 163 76 237 -16 q 88 331 88 168 m 243 543 l 642 543 q 659 710 659 646 q 616 856 659 802 q 503 911 574 911 q 243 543 329 911 m 622 441 l 222 441 q 209 300 209 349 q 250 143 209 202 q 363 84 292 84 q 515 180 446 84 q 622 441 584 275 z "},"ι":{"ha":309,"x_min":41,"x_max":315,"o":"m 41 0 l 192 720 l 315 720 l 164 0 l 41 0 z "},"κ":{"ha":694,"x_min":41,"x_max":764,"o":"m 196 720 l 319 720 l 252 402 l 602 720 l 764 720 l 407 421 l 652 0 l 512 0 l 317 346 l 220 264 l 163 0 l 41 0 l 196 720 z "},"λ":{"ha":684,"x_min":-35,"x_max":621,"o":"m 467 994 l 621 0 l 498 0 l 414 565 l 88 0 l -35 0 l 389 720 l 345 994 l 467 994 z "},"μ":{"ha":761,"x_min":-16,"x_max":770,"o":"m 195 720 l 316 720 l 244 382 q 218 209 218 258 q 255 119 218 153 q 352 86 292 86 q 450 113 402 86 q 523 188 498 140 q 567 332 547 237 l 648 720 l 770 720 l 616 0 l 507 0 l 519 57 q 337 -16 431 -16 q 178 68 242 -16 l 104 -276 l -16 -276 l 195 720 z "},"ν":{"ha":694,"x_min":110,"x_max":777,"o":"m 228 0 l 110 720 l 229 720 l 291 323 q 316 111 301 258 q 406 287 351 188 l 647 720 l 777 720 l 364 0 l 228 0 z "},"ξ":{"ha":621,"x_min":78,"x_max":701,"o":"m 701 1011 l 680 911 q 490 902 551 911 q 389 852 429 892 q 350 764 350 811 q 376 705 350 730 q 453 673 403 681 q 619 665 503 665 l 599 566 q 322 474 437 566 q 208 258 208 383 q 244 154 208 186 q 374 103 280 121 q 469 74 435 91 q 526 17 502 56 q 549 -74 549 -22 q 506 -194 549 -142 q 396 -265 463 -245 q 224 -288 330 -285 l 276 -187 q 435 -90 435 -179 q 410 -33 435 -52 q 318 -3 384 -14 q 196 29 239 8 q 115 112 153 50 q 78 254 78 173 q 153 464 78 367 q 359 602 229 561 q 227 774 227 650 q 267 895 227 837 q 386 982 308 953 q 631 1011 464 1011 l 701 1011 z "},"ο":{"ha":772,"x_min":68,"x_max":750,"o":"m 68 273 q 192 623 68 484 q 460 736 294 736 q 670 655 591 736 q 750 435 750 574 q 700 204 750 311 q 557 41 650 98 q 362 -16 465 -16 q 209 20 278 -16 q 104 121 140 56 q 68 273 68 187 m 191 286 q 239 131 191 184 q 363 79 288 79 q 441 95 403 79 q 513 143 480 111 q 570 217 547 176 q 608 307 593 259 q 629 436 629 374 q 579 588 629 534 q 456 642 530 642 q 351 614 398 642 q 265 534 303 587 q 209 411 227 481 q 191 286 191 340 z "},"ρ":{"ha":795,"x_min":-19,"x_max":775,"o":"m 104 -276 l -19 -276 l 102 288 q 181 538 138 452 q 304 680 224 624 q 492 736 385 736 q 696 654 616 736 q 775 440 775 572 q 668 120 775 257 q 403 -16 560 -16 q 183 86 261 -16 l 104 -276 m 231 267 q 279 130 231 175 q 393 84 326 84 q 523 135 461 84 q 620 274 585 186 q 654 442 654 361 q 609 580 654 524 q 489 635 564 635 q 303 518 376 635 q 231 267 231 400 z "},"ς":{"ha":675,"x_min":75,"x_max":744,"o":"m 744 698 l 700 606 q 557 635 631 635 q 381 592 461 635 q 250 472 302 549 q 197 313 197 395 q 222 216 197 264 q 364 102 248 168 q 503 -3 471 41 q 534 -99 534 -47 q 471 -231 534 -173 q 248 -288 408 -288 q 141 -286 193 -288 l 187 -186 q 256 -187 235 -187 q 425 -100 425 -187 q 404 -47 425 -67 q 287 24 382 -28 q 115 170 154 97 q 75 311 75 242 q 131 506 75 405 q 301 672 187 607 q 556 736 416 736 q 744 698 652 736 z "},"υ":{"ha":764,"x_min":102,"x_max":772,"o":"m 194 720 l 317 720 l 233 321 q 217 210 217 243 q 257 117 217 149 q 357 84 298 84 q 457 114 413 84 q 525 190 501 144 q 566 321 548 236 l 649 720 l 772 720 l 701 382 q 631 150 670 230 q 522 27 591 71 q 359 -16 452 -16 q 168 50 234 -16 q 102 215 102 117 q 134 430 102 271 l 137 448 l 194 720 z "},"χ":{"ha":758,"x_min":-100,"x_max":821,"o":"m 142 720 l 267 720 l 378 322 l 670 720 l 821 720 l 446 220 l 615 -276 l 482 -276 l 359 144 l 48 -276 l -100 -276 l 286 243 l 142 720 z "}}}
